<svg width="17" height="16" viewBox="0 0 17 16" fill="none" xmlns="http://www.w3.org/2000/svg">
<g clip-path="url(#clip0_5514_19651)">
<rect width="17" height="16" fill="white"/>
<rect width="17" height="16" fill="#007CB4"/>
<path d="M15.9375 3L13.7275 5.14706L12.9063 4.88659C12.1632 4.65089 11.3509 4.86845 10.8251 5.444L7.4375 9.15194M5.3125 9C5.68421 7.78599 5.41578 6.59298 4.25 5.88235C4.25 7 2.975 7.5 3.1875 8.5C2.02018 8.34003 2.125 9.15194 0.53125 9.5C1.27481 10.7439 2.10403 11.3904 3.4 10.4118C3.4 10.4118 4.91675 11.6292 6.375 12C8.2529 12.4775 10.625 11 10.625 11C10.625 12.2226 11.2726 12.5237 11.6875 13.5C11.6875 13.5 13.0835 13.1519 13.0835 9.15194C13.0835 9.15194 13.5699 8.68346 13.8703 8.23688C14.2033 7.74197 14.3438 7 14.3438 7" stroke="white" stroke-linecap="round" stroke-linejoin="round"/>
</g>
<defs>
<clipPath id="clip0_5514_19651">
<rect width="17" height="16" fill="white"/>
</clipPath>
</defs>
</svg>
