<svg width="24" height="24" viewBox="0 0 24 24" fill="none" xmlns="http://www.w3.org/2000/svg">
<path d="M17 19V21H7V19H17ZM19 17V7C19 5.89543 18.1046 5 17 5H7C5.89543 5 5 5.89543 5 7V17C5 18.1046 5.89543 19 7 19V21L6.79395 20.9951C4.68056 20.8879 3 19.14 3 17V7C3 4.79086 4.79086 3 7 3H17C19.2091 3 21 4.79086 21 7V17C21 19.2091 19.2091 21 17 21V19C18.1046 19 19 18.1046 19 17Z" fill="#262626"/>
<rect x="10" y="10" width="2" height="10" fill="#262626"/>
<rect x="20" y="10" width="2" height="10" transform="rotate(90 20 10)" fill="#262626"/>
<path d="M7 7H13L11 9L13 11L11 13L9 11L7 13V7Z" fill="#262626"/>
</svg>
