<svg width="24" height="24" viewBox="0 0 24 24" fill="none" xmlns="http://www.w3.org/2000/svg">
<path d="M12.3398 5.33008C12.6912 6.10314 13.0832 6.92476 13.4629 7.62988C13.8226 8.29789 14.231 8.97905 14.626 9.37402C15.021 9.769 15.7021 10.1774 16.3701 10.5371C17.0752 10.9168 17.8969 11.3088 18.6699 11.6602C18.9307 11.7787 19.1881 11.8916 19.4346 12C19.1881 12.1084 18.9307 12.2213 18.6699 12.3398C17.8969 12.6912 17.0752 13.0832 16.3701 13.4629C15.7021 13.8226 15.021 14.231 14.626 14.626C14.231 15.021 13.8226 15.7021 13.4629 16.3701C13.0832 17.0752 12.6912 17.8969 12.3398 18.6699C12.2213 18.9307 12.1084 19.1881 12 19.4346C11.8916 19.1881 11.7787 18.9307 11.6602 18.6699C11.3088 17.8969 10.9168 17.0752 10.5371 16.3701C10.1774 15.7021 9.769 15.021 9.37402 14.626C8.97905 14.231 8.29789 13.8226 7.62988 13.4629C6.92476 13.0832 6.10314 12.6912 5.33008 12.3398C5.06897 12.2212 4.81118 12.1085 4.56445 12C4.81118 11.8915 5.06897 11.7788 5.33008 11.6602C6.10314 11.3088 6.92476 10.9168 7.62988 10.5371C8.29789 10.1774 8.97905 9.769 9.37402 9.37402C9.769 8.97905 10.1774 8.29789 10.5371 7.62988C10.9168 6.92476 11.3088 6.10314 11.6602 5.33008C11.7788 5.06897 11.8915 4.81118 12 4.56445C12.1085 4.81118 12.2212 5.06897 12.3398 5.33008Z" stroke="#262626" stroke-width="2"/>
</svg>
