<svg width="24" height="24" viewBox="0 0 24 24" fill="none" xmlns="http://www.w3.org/2000/svg">
<path d="M10.0898 4.74707C10.3718 5.36735 10.6874 6.02894 10.9941 6.59863C11.2809 7.13122 11.6205 7.70062 11.96 8.04004C12.2994 8.37946 12.8688 8.71908 13.4014 9.00586C13.9711 9.31259 14.6327 9.62821 15.2529 9.91016C15.3205 9.94088 15.3884 9.97001 15.4551 10C15.3884 10.03 15.3205 10.0591 15.2529 10.0898C14.6327 10.3718 13.9711 10.6874 13.4014 10.9941C12.8688 11.2809 12.2994 11.6205 11.96 11.96C11.6205 12.2994 11.2809 12.8688 10.9941 13.4014C10.6874 13.9711 10.3718 14.6327 10.0898 15.2529C10.0591 15.3205 10.03 15.3884 10 15.4551C9.97001 15.3884 9.94088 15.3205 9.91016 15.2529C9.62821 14.6327 9.31259 13.9711 9.00586 13.4014C8.71908 12.8688 8.37946 12.2994 8.04004 11.96C7.70062 11.6205 7.13122 11.2809 6.59863 10.9941C6.02894 10.6874 5.36735 10.3718 4.74707 10.0898C4.6792 10.059 4.61094 10.0301 4.54395 10C4.61094 9.96989 4.6792 9.941 4.74707 9.91016C5.36735 9.62821 6.02894 9.31259 6.59863 9.00586C7.13122 8.71908 7.70062 8.37946 8.04004 8.04004C8.37946 7.70062 8.71908 7.13122 9.00586 6.59863C9.31259 6.02894 9.62821 5.36735 9.91016 4.74707C9.941 4.6792 9.96989 4.61094 10 4.54395C10.0301 4.61094 10.059 4.6792 10.0898 4.74707Z" stroke="#007CB4" stroke-width="2"/>
<path d="M22 17C22 17 19.2222 18.1111 18.6667 18.6667C18.1111 19.2222 17 22 17 22C17 22 15.8889 19.2222 15.3333 18.6667C14.7778 18.1111 12 17 12 17C12 17 14.7778 15.8889 15.3333 15.3333C15.8889 14.7778 17 12 17 12C17 12 18.1111 14.7778 18.6667 15.3333C19.2222 15.8889 22 17 22 17Z" fill="#007CB4"/>
</svg>
