<svg width="24" height="24" viewBox="0 0 24 24" fill="none" xmlns="http://www.w3.org/2000/svg">
<path d="M16 14C16 12.1952 14.5427 11.0457 12.9707 11L9.82812 10.9999L11.1211 12.2929L11.1895 12.3691C11.5098 12.7619 11.4872 13.3408 11.1211 13.707C10.755 14.0731 10.176 14.0957 9.7832 13.7753L9.70703 13.707L6 9.99993L9.70703 6.2929C10.0976 5.90237 10.7306 5.90237 11.1211 6.2929C11.5116 6.68344 11.5116 7.31643 11.1211 7.70696L9.82812 8.99993C11.3032 8.9998 12.9998 8.99914 13.0293 9C15.4574 9.07071 18 10.9012 18 14C18 17.1089 14.9722 19.0003 12.5 19.0003H12C11.4477 19.0003 11 18.5525 11 18.0002C11 17.4479 11.4477 17.0002 12 17.0002H12.5C14.0278 17.0002 16 15.8507 16 14Z" fill="#262626"/>
</svg>
