<svg width="24" height="24" viewBox="0 0 24 24" fill="none" xmlns="http://www.w3.org/2000/svg">
<path d="M8 18V6H12.7266C13.9766 6 14.9375 6.22917 15.6094 6.6875C16.2812 7.14583 16.6172 8.58854 16.6172 9.42188C16.6172 10.026 16.4115 10.5547 16 11.0078C15.5938 11.4609 15.0729 11.776 14.4375 11.9531V11.9844C15.2344 12.0833 15.8698 12.3776 16.3438 12.8672C16.8229 13.3568 17 13.7969 17 14.5C17 15.526 16.6953 16.4974 15.9609 17.1016C15.2266 17.7005 14.224 18 12.9531 18H8ZM11 8V11.0078L12.5 11C13.0208 11 13.2031 10.75 13.5 10.5C13.8021 10.2448 13.9609 9.67708 13.9609 9.23438C13.9609 8.41146 13.3464 8 12.1172 8H11ZM11 13V16H12.5391C13.1224 16 13.5781 15.8646 13.9062 15.5938C14.2396 15.3229 14.4062 14.9531 14.4062 14.4844C14.4062 14.0365 14.2422 13.6849 13.9141 13.4297C13.5911 13.1745 13.1224 13 12.5391 13H11Z" fill="#262626"/>
</svg>
