<svg width="36" height="36" viewBox="0 0 36 36" fill="none" xmlns="http://www.w3.org/2000/svg">
<rect x="8.90967" y="11.6543" width="15.75" height="11.2783" fill="white"/>
<path fill-rule="evenodd" clip-rule="evenodd" d="M0.977582 16.2593C-0.253039 16.8234 -0.350279 19.0754 0.848212 19.7026C3.39432 21.035 6.71531 23.0983 9.62928 25.9575C12.7762 29.0452 14.9772 32.5987 16.3156 35.1574C16.9061 36.2863 18.9026 36.2785 19.4905 35.1482C20.8047 32.6215 22.9858 29.1111 26.1998 25.9575C29.2048 23.0091 32.5276 20.9466 35.0518 19.6368C36.2456 19.0175 36.1758 16.8153 34.952 16.2554C32.4019 15.0887 29.0868 13.2028 26.1998 10.37C23.107 7.33541 20.9162 3.61734 19.5673 0.875648C18.9885 -0.300914 16.8742 -0.287792 16.2995 0.890725C14.9866 3.58324 12.8231 7.2363 9.62928 10.37C6.68814 13.2558 3.46808 15.1176 0.977582 16.2593ZM19.873 22.5882L15.495 12.1382H13.4182L9.04016 22.5882H11.3339L12.2676 20.2593H16.5905L17.5241 22.5882H19.873ZM23.8026 12.1382H21.5529V22.5882H23.8026V12.1382ZM14.429 14.8777L15.7854 18.2441H13.0726L14.429 14.8777Z" fill="url(#paint0_linear_8046_3021)"/>
<defs>
<linearGradient id="paint0_linear_8046_3021" x1="7.02855" y1="15.8157" x2="30.5708" y2="20.4947" gradientUnits="userSpaceOnUse">
<stop stop-color="#704BD6"/>
<stop offset="1" stop-color="#607EDB"/>
</linearGradient>
</defs>
</svg>
