<svg width="24" height="24" viewBox="0 0 24 24" fill="none" xmlns="http://www.w3.org/2000/svg">
<g clip-path="url(#clip0_13522_1201)">
<path d="M17 19V21H7V19H17ZM19 17V7C19 5.89543 18.1046 5 17 5H7C5.89543 5 5 5.89543 5 7V17C5 18.1046 5.89543 19 7 19V21L6.79395 20.9951C4.7488 20.8913 3.10865 19.2512 3.00488 17.2061L3 17V7C3 4.79086 4.79086 3 7 3H17C19.2091 3 21 4.79086 21 7V17C21 19.14 19.3194 20.8879 17.2061 20.9951L17 21V19C18.1046 19 19 18.1046 19 17Z" fill="#262626"/>
<rect x="5" y="7" width="14" height="2" fill="#262626"/>
<rect x="7" y="11" width="2" height="2" fill="#262626"/>
<rect x="11" y="11" width="2" height="2" fill="#262626"/>
<rect x="15" y="11" width="2" height="2" fill="#262626"/>
<rect x="7" y="15" width="2" height="2" fill="#262626"/>
<rect x="11" y="15" width="2" height="2" fill="#262626"/>
<rect x="15" y="15" width="2" height="2" fill="#262626"/>
</g>
<defs>
<clipPath id="clip0_13522_1201">
<rect x="3" y="3" width="18" height="18" rx="4" fill="white"/>
</clipPath>
</defs>
</svg>
