<svg width="24" height="24" viewBox="0 0 24 24" fill="none" xmlns="http://www.w3.org/2000/svg">
<path d="M17.293 5.29289C17.6835 4.90237 18.3165 4.90237 18.707 5.29289C19.0976 5.68342 19.0976 6.31643 18.707 6.70695L13.4141 11.9999L18.707 17.2929L18.7754 17.3691C19.0957 17.7618 19.0731 18.3408 18.707 18.707C18.3409 19.0731 17.7619 19.0957 17.3691 18.7753L17.293 18.707L12 13.414L6.70703 18.707C6.31651 19.0975 5.68349 19.0975 5.29297 18.707C4.90245 18.3164 4.90245 17.6834 5.29297 17.2929L10.5859 11.9999L5.29297 6.70695C4.90245 6.31643 4.90245 5.68342 5.29297 5.29289C5.68349 4.90237 6.31651 4.90237 6.70703 5.29289L12 10.5859L17.293 5.29289Z" fill="#262626"/>
</svg>
