<svg width="24" height="24" viewBox="0 0 24 24" fill="none" xmlns="http://www.w3.org/2000/svg">
<path d="M14.293 8.29289C14.6835 7.90237 15.3166 7.90237 15.7071 8.29289C16.0976 8.68342 16.0976 9.31643 15.7071 9.70696L13.4141 11.9999L15.7071 14.2929L15.7754 14.3691C16.0958 14.7618 16.0732 15.3408 15.7071 15.707C15.341 16.0731 14.762 16.0957 14.3692 15.7753L14.293 15.707L12 13.414L9.70708 15.707C9.31655 16.0975 8.68354 16.0975 8.29302 15.707C7.90249 15.3164 7.90249 14.6834 8.29302 14.2929L10.586 11.9999L8.29302 9.70696C7.90249 9.31643 7.90249 8.68342 8.29302 8.29289C8.68354 7.90237 9.31655 7.90237 9.70708 8.29289L12 10.5859L14.293 8.29289Z" fill="#262626"/>
</svg>
