<svg width="24" height="24" viewBox="0 0 24 24" fill="none" xmlns="http://www.w3.org/2000/svg">
<path d="M15.293 7.29289C15.6835 6.90237 16.3166 6.90237 16.7071 7.29289C17.0976 7.68342 17.0976 8.31643 16.7071 8.70696L13.4141 11.9999L16.7071 15.2929L16.7754 15.3691C17.0958 15.7618 17.0732 16.3408 16.7071 16.707C16.341 17.0731 15.762 17.0957 15.3692 16.7753L15.293 16.707L12 13.414L8.70708 16.707C8.31655 17.0975 7.68354 17.0975 7.29302 16.707C6.90249 16.3164 6.90249 15.6834 7.29302 15.2929L10.586 11.9999L7.29302 8.70696C6.90249 8.31643 6.90249 7.68342 7.29302 7.29289C7.68354 6.90237 8.31655 6.90237 8.70708 7.29289L12 10.5859L15.293 7.29289Z" fill="#F7F9F9"/>
</svg>
