<svg width="24" height="24" viewBox="0 0 24 24" fill="none" xmlns="http://www.w3.org/2000/svg">
<path d="M8.70711 7.70711C8.31658 7.31658 8.31658 6.68342 8.70711 6.29289L11.2929 3.70711C11.6834 3.31658 12.3166 3.31658 12.7071 3.70711L15.2929 6.29289C15.6834 6.68342 15.6834 7.31658 15.2929 7.70711L12.7071 10.2929C12.3166 10.6834 11.6834 10.6834 11.2929 10.2929L8.70711 7.70711Z" fill="#9747FF"/>
<path d="M8.70711 17.7071C8.31658 17.3166 8.31658 16.6834 8.70711 16.2929L11.2929 13.7071C11.6834 13.3166 12.3166 13.3166 12.7071 13.7071L15.2929 16.2929C15.6834 16.6834 15.6834 17.3166 15.2929 17.7071L12.7071 20.2929C12.3166 20.6834 11.6834 20.6834 11.2929 20.2929L8.70711 17.7071Z" fill="#9747FF"/>
<path d="M3.70711 12.7071C3.31658 12.3166 3.31658 11.6834 3.70711 11.2929L6.29289 8.70711C6.68342 8.31658 7.31658 8.31658 7.70711 8.70711L10.2929 11.2929C10.6834 11.6834 10.6834 12.3166 10.2929 12.7071L7.70711 15.2929C7.31658 15.6834 6.68342 15.6834 6.29289 15.2929L3.70711 12.7071Z" fill="#9747FF"/>
<path d="M13.7071 12.7071C13.3166 12.3166 13.3166 11.6834 13.7071 11.2929L16.2929 8.70711C16.6834 8.31658 17.3166 8.31658 17.7071 8.70711L20.2929 11.2929C20.6834 11.6834 20.6834 12.3166 20.2929 12.7071L17.7071 15.2929C17.3166 15.6834 16.6834 15.6834 16.2929 15.2929L13.7071 12.7071Z" fill="#9747FF"/>
</svg>
