<svg width="24" height="24" viewBox="0 0 24 24" fill="none" xmlns="http://www.w3.org/2000/svg">
<path d="M11.6465 4.06055C11.8417 3.86539 12.1583 3.86538 12.3535 4.06055L14.9395 6.64648C15.1346 6.84173 15.1346 7.15827 14.9395 7.35352L12.3535 9.93945C12.1583 10.1346 11.8417 10.1346 11.6465 9.93945L9.06055 7.35352C8.86539 7.15827 8.86538 6.84173 9.06055 6.64648L11.6465 4.06055Z" stroke="#9747FF"/>
<path d="M11.6465 14.0605C11.8417 13.8654 12.1583 13.8654 12.3535 14.0605L14.9395 16.6465C15.1346 16.8417 15.1346 17.1583 14.9395 17.3535L12.3535 19.9395C12.1583 20.1346 11.8417 20.1346 11.6465 19.9395L9.06055 17.3535C8.86539 17.1583 8.86538 16.8417 9.06055 16.6465L11.6465 14.0605Z" stroke="#9747FF"/>
<path d="M6.64648 9.06055C6.84173 8.86539 7.15827 8.86538 7.35352 9.06055L9.93945 11.6465C10.1346 11.8417 10.1346 12.1583 9.93945 12.3535L7.35352 14.9395C7.15827 15.1346 6.84173 15.1346 6.64648 14.9395L4.06055 12.3535C3.86539 12.1583 3.86538 11.8417 4.06055 11.6465L6.64648 9.06055Z" stroke="#9747FF"/>
<path d="M16.6465 9.06055C16.8417 8.86539 17.1583 8.86538 17.3535 9.06055L19.9395 11.6465C20.1346 11.8417 20.1346 12.1583 19.9395 12.3535L17.3535 14.9395C17.1583 15.1346 16.8417 15.1346 16.6465 14.9395L14.0605 12.3535C13.8654 12.1583 13.8654 11.8417 14.0605 11.6465L16.6465 9.06055Z" stroke="#9747FF"/>
</svg>
