<svg width="18" height="18" viewBox="0 0 18 18" fill="none" xmlns="http://www.w3.org/2000/svg">
<g filter="url(#filter0_d_17095_315210)">
<mask id="path-1-outside-1_17095_315210" maskUnits="userSpaceOnUse" x="2" y="2.5" width="14" height="12" fill="black">
<rect fill="white" x="2" y="2.5" width="14" height="12"/>
<path d="M15 12.5C15 13.0523 14.5523 13.5 14 13.5H4C3.44772 13.5 3 13.0523 3 12.5V11.5H15V12.5ZM11.4199 6.91992C11.7569 7.25694 12.285 7.3092 12.6816 7.04492L15 5.5V10.5H3V5.5L5.31836 7.04492C5.71496 7.3092 6.24306 7.25694 6.58008 6.91992L9 4.5L11.4199 6.91992Z"/>
</mask>
<path d="M15 12.5C15 13.0523 14.5523 13.5 14 13.5H4C3.44772 13.5 3 13.0523 3 12.5V11.5H15V12.5ZM11.4199 6.91992C11.7569 7.25694 12.285 7.3092 12.6816 7.04492L15 5.5V10.5H3V5.5L5.31836 7.04492C5.71496 7.3092 6.24306 7.25694 6.58008 6.91992L9 4.5L11.4199 6.91992Z" fill="#F79740"/>
<path d="M14 13.5V14.5V13.5ZM3 11.5V10.5H2V11.5H3ZM15 11.5H16V10.5H15V11.5ZM11.4199 6.91992L10.7128 7.62703L11.4199 6.91992ZM12.6816 7.04492L13.2362 7.87709L13.2362 7.87708L12.6816 7.04492ZM15 5.5H16V3.63192L14.4455 4.66784L15 5.5ZM15 10.5V11.5H16V10.5H15ZM3 10.5H2V11.5H3V10.5ZM3 5.5L3.55454 4.66784L2 3.63192V5.5H3ZM5.31836 7.04492L4.76382 7.87708L4.76383 7.87709L5.31836 7.04492ZM9 4.5L9.70711 3.79289L9 3.08579L8.29289 3.79289L9 4.5ZM15 12.5H14V13.5V14.5C15.1046 14.5 16 13.6046 16 12.5H15ZM14 13.5V12.5H4V13.5V14.5H14V13.5ZM4 13.5V12.5H3H2C2 13.6046 2.89543 14.5 4 14.5V13.5ZM3 12.5H4V11.5H3H2V12.5H3ZM3 11.5V12.5H15V11.5V10.5H3V11.5ZM15 11.5H14V12.5H15H16V11.5H15ZM11.4199 6.91992L10.7128 7.62703C11.3869 8.30115 12.4431 8.40558 13.2362 7.87709L12.6816 7.04492L12.1271 6.21276L12.127 6.21282L11.4199 6.91992ZM12.6816 7.04492L13.2362 7.87708L15.5545 6.33216L15 5.5L14.4455 4.66784L12.1271 6.21276L12.6816 7.04492ZM15 5.5H14V10.5H15H16V5.5H15ZM15 10.5V9.5H3V10.5V11.5H15V10.5ZM3 10.5H4V5.5H3H2V10.5H3ZM3 5.5L2.44546 6.33216L4.76382 7.87708L5.31836 7.04492L5.8729 6.21276L3.55454 4.66784L3 5.5ZM5.31836 7.04492L4.76383 7.87709C5.55693 8.40558 6.61306 8.30115 7.28718 7.62703L6.58008 6.91992L5.87297 6.21282L5.87288 6.21276L5.31836 7.04492ZM6.58008 6.91992L7.28718 7.62703L9.70711 5.20711L9 4.5L8.29289 3.79289L5.87297 6.21282L6.58008 6.91992ZM9 4.5L8.29289 5.20711L10.7128 7.62703L11.4199 6.91992L12.127 6.21282L9.70711 3.79289L9 4.5Z" fill="white" mask="url(#path-1-outside-1_17095_315210)"/>
</g>
<defs>
<filter id="filter0_d_17095_315210" x="0" y="2.08569" width="18" height="15.4143" filterUnits="userSpaceOnUse" color-interpolation-filters="sRGB">
<feFlood flood-opacity="0" result="BackgroundImageFix"/>
<feColorMatrix in="SourceAlpha" type="matrix" values="0 0 0 0 0 0 0 0 0 0 0 0 0 0 0 0 0 0 127 0" result="hardAlpha"/>
<feOffset dy="1"/>
<feGaussianBlur stdDeviation="1"/>
<feComposite in2="hardAlpha" operator="out"/>
<feColorMatrix type="matrix" values="0 0 0 0 0 0 0 0 0 0 0 0 0 0 0 0 0 0 0.25 0"/>
<feBlend mode="normal" in2="BackgroundImageFix" result="effect1_dropShadow_17095_315210"/>
<feBlend mode="normal" in="SourceGraphic" in2="effect1_dropShadow_17095_315210" result="shape"/>
</filter>
</defs>
</svg>
