<svg width="24" height="24" viewBox="0 0 24 24" fill="none" xmlns="http://www.w3.org/2000/svg">
<path d="M12 3C18 3 21 5 21 5V19C21 19 18 21 12 21V19C14.7734 19 16.81 18.5382 18.1172 18.1025C18.4609 17.988 18.7553 17.8745 19 17.7715V6.96875C17.4049 7.4932 15.0708 8 12 8C8.92924 8 6.5951 7.4932 5 6.96875V17.7715C5.24469 17.8745 5.53905 17.988 5.88281 18.1025C7.18999 18.5382 9.22656 19 12 19V21C6 21 3 19 3 19V5C3 5 6 3 12 3ZM12 5C10.0627 5 8.48544 5.22743 7.26465 5.51172C8.52181 5.78765 10.0993 6 12 6C13.9002 6 15.4774 5.78755 16.7344 5.51172C15.5137 5.22753 13.9368 5 12 5Z" fill="#262626"/>
</svg>
