<svg width="24" height="24" viewBox="0 0 24 24" fill="none" xmlns="http://www.w3.org/2000/svg">
<path d="M15 16V18H5V16H15ZM16 15V5C16 4.44772 15.5523 4 15 4H5C4.44772 4 4 4.44772 4 5V15C4 15.5523 4.44772 16 5 16V18C3.34315 18 2 16.6569 2 15V5C2 3.34315 3.34315 2 5 2H15C16.6569 2 18 3.34315 18 5V15C18 16.6569 16.6569 18 15 18V16C15.5523 16 16 15.5523 16 15Z" fill="#262626"/>
<path d="M12.293 6.29289C12.6835 5.90237 13.3165 5.90237 13.707 6.29289C14.0975 6.68342 14.0975 7.31643 13.707 7.70696L11.414 9.99992L13.707 12.2929C14.0975 12.6834 14.0975 13.3164 13.707 13.707C13.3165 14.0975 12.6835 14.0975 12.293 13.707L9.99999 11.414L7.70702 13.707C7.31649 14.0975 6.68348 14.0975 6.29295 13.707C5.90243 13.3164 5.90243 12.6834 6.29295 12.2929L8.58592 9.99992L6.29295 7.70696C5.90243 7.31643 5.90243 6.68342 6.29295 6.29289C6.68348 5.90237 7.31649 5.90237 7.70702 6.29289L9.99999 8.58586L12.293 6.29289Z" fill="#262626"/>
<path d="M20 18V9H22V18C22 20.2091 20.2091 22 18 22H9V20H18C19.1046 20 20 19.1046 20 18Z" fill="#262626"/>
</svg>
