<svg width="24" height="24" viewBox="0 0 24 24" fill="none" xmlns="http://www.w3.org/2000/svg">
<g clip-path="url(#clip0_16809_292839)">
<g filter="url(#filter0_d_16809_292839)">
<path d="M11 19V13H5C4.44772 13 4 12.5523 4 12C4 11.4477 4.44772 11 5 11H11V5C11 4.44772 11.4477 4 12 4C12.5523 4 13 4.44772 13 5V11H19C19.5523 11 20 11.4477 20 12C20 12.5523 19.5523 13 19 13H13V19C13 19.5523 12.5523 20 12 20C11.4477 20 11 19.5523 11 19Z" fill="white"/>
<path d="M12 3C13.1046 3 14 3.89543 14 5V10H19C20.1046 10 21 10.8954 21 12C21 13.1046 20.1046 14 19 14H14V19C14 20.1046 13.1046 21 12 21C10.8954 21 10 20.1046 10 19V14H5C3.89543 14 3 13.1046 3 12C3 10.8954 3.89543 10 5 10H10V5C10 3.89543 10.8954 3 12 3Z" stroke="#262626" stroke-width="2" stroke-linecap="round" stroke-linejoin="round"/>
</g>
</g>
<defs>
<filter id="filter0_d_16809_292839" x="-1" y="0" width="26" height="26" filterUnits="userSpaceOnUse" color-interpolation-filters="sRGB">
<feFlood flood-opacity="0" result="BackgroundImageFix"/>
<feColorMatrix in="SourceAlpha" type="matrix" values="0 0 0 0 0 0 0 0 0 0 0 0 0 0 0 0 0 0 127 0" result="hardAlpha"/>
<feOffset dy="1"/>
<feGaussianBlur stdDeviation="1.5"/>
<feComposite in2="hardAlpha" operator="out"/>
<feColorMatrix type="matrix" values="0 0 0 0 0 0 0 0 0 0 0 0 0 0 0 0 0 0 0.1 0"/>
<feBlend mode="normal" in2="BackgroundImageFix" result="effect1_dropShadow_16809_292839"/>
<feBlend mode="normal" in="SourceGraphic" in2="effect1_dropShadow_16809_292839" result="shape"/>
</filter>
<clipPath id="clip0_16809_292839">
<rect width="24" height="24" fill="white"/>
</clipPath>
</defs>
</svg>
