<svg width="39" height="39" viewBox="0 0 39 39" fill="none" xmlns="http://www.w3.org/2000/svg">
<g opacity="0.8">
<g clip-path="url(#clip0_17205_315396)">
<path d="M17 21C17 18.7909 18.7909 17 21 17H33C35.2091 17 37 18.7909 37 21V33C37 35.2091 35.2091 37 33 37H21C18.7909 37 17 35.2091 17 33V21Z" fill="#F7FFD3"/>
<path d="M33 35V37H21V35H33ZM35 33V21C35 19.8954 34.1046 19 33 19H21C19.8954 19 19 19.8954 19 21V33C19 34.1046 19.8954 35 21 35V37L20.7939 36.9951C18.7488 36.8913 17.1087 35.2512 17.0049 33.2061L17 33V21C17 18.7909 18.7909 17 21 17H33C35.2091 17 37 18.7909 37 21V33C37 35.14 35.3194 36.8879 33.2061 36.9951L33 37V35C34.1046 35 35 34.1046 35 33Z" fill="#909699"/>
<path d="M28.2715 32L27.54 29.8877C27.3988 29.473 27.2142 29.1471 26.9863 28.9102C26.763 28.6732 26.5192 28.5547 26.2549 28.5547H26.1387V32H23.1855V22.1973H27.1094C28.4811 22.1973 29.4928 22.4229 30.1445 22.874C30.8008 23.3206 31.1289 23.9928 31.1289 24.8906C31.1289 25.5651 30.9375 26.1302 30.5547 26.5859C30.1764 27.0417 29.6113 27.3721 28.8594 27.5771V27.6045C29.2741 27.7321 29.6182 27.9395 29.8916 28.2266C30.1696 28.5137 30.418 28.9398 30.6367 29.5049L31.6006 32H28.2715ZM27.9912 25.3076C27.9912 24.9795 27.891 24.7197 27.6904 24.5283C27.4899 24.3369 27.1755 24.2412 26.7471 24.2412H26.1387V26.4834H26.6719C27.0684 26.4834 27.3874 26.3717 27.6289 26.1484C27.8704 25.9251 27.9912 25.6449 27.9912 25.3076Z" fill="#262626"/>
</g>
</g>
<g clip-path="url(#clip1_17205_315396)">
<g filter="url(#filter0_d_17205_315396)">
<path d="M11 19V13H5C4.44772 13 4 12.5523 4 12C4 11.4477 4.44772 11 5 11H11V5C11 4.44772 11.4477 4 12 4C12.5523 4 13 4.44772 13 5V11H19C19.5523 11 20 11.4477 20 12C20 12.5523 19.5523 13 19 13H13V19C13 19.5523 12.5523 20 12 20C11.4477 20 11 19.5523 11 19Z" fill="white"/>
<path d="M12 3C13.1046 3 14 3.89543 14 5V10H19C20.1046 10 21 10.8954 21 12C21 13.1046 20.1046 14 19 14H14V19C14 20.1046 13.1046 21 12 21C10.8954 21 10 20.1046 10 19V14H5C3.89543 14 3 13.1046 3 12C3 10.8954 3.89543 10 5 10H10V5C10 3.89543 10.8954 3 12 3Z" stroke="#262626" stroke-width="2" stroke-linecap="round" stroke-linejoin="round"/>
</g>
</g>
<defs>
<filter id="filter0_d_17205_315396" x="-1" y="0" width="26" height="26" filterUnits="userSpaceOnUse" color-interpolation-filters="sRGB">
<feFlood flood-opacity="0" result="BackgroundImageFix"/>
<feColorMatrix in="SourceAlpha" type="matrix" values="0 0 0 0 0 0 0 0 0 0 0 0 0 0 0 0 0 0 127 0" result="hardAlpha"/>
<feOffset dy="1"/>
<feGaussianBlur stdDeviation="1.5"/>
<feComposite in2="hardAlpha" operator="out"/>
<feColorMatrix type="matrix" values="0 0 0 0 0 0 0 0 0 0 0 0 0 0 0 0 0 0 0.1 0"/>
<feBlend mode="normal" in2="BackgroundImageFix" result="effect1_dropShadow_17205_315396"/>
<feBlend mode="normal" in="SourceGraphic" in2="effect1_dropShadow_17205_315396" result="shape"/>
</filter>
<clipPath id="clip0_17205_315396">
<rect width="20" height="20" fill="white" transform="translate(17 17)"/>
</clipPath>
<clipPath id="clip1_17205_315396">
<rect width="24" height="24" fill="white"/>
</clipPath>
</defs>
</svg>
