<svg width="24" height="24" viewBox="0 0 24 24" fill="none" xmlns="http://www.w3.org/2000/svg">
<path d="M5 16C5 15.4477 5.44772 15 6 15C6.55228 15 7 15.4477 7 16V18H17V16C17 15.4477 17.4477 15 18 15C18.5523 15 19 15.4477 19 16V19C19 19.5523 18.5523 20 18 20H6C5.44772 20 5 19.5523 5 19V16Z" fill="#262626"/>
<path d="M11 5V12.5859L7.70703 9.29297C7.31651 8.90244 6.68349 8.90244 6.29297 9.29297C5.90244 9.68349 5.90244 10.3165 6.29297 10.707L11.293 15.707L11.3691 15.7754C11.7619 16.0957 12.3409 16.0731 12.707 15.707L17.707 10.707C18.0976 10.3165 18.0976 9.68349 17.707 9.29297C17.3165 8.90244 16.6835 8.90244 16.293 9.29297L13 12.5859V5C13 4.44772 12.5523 4 12 4C11.4477 4 11 4.44772 11 5Z" fill="#262626"/>
</svg>
