<svg width="24" height="24" viewBox="0 0 24 24" fill="none" xmlns="http://www.w3.org/2000/svg">
<path d="M16.5008 3.03257C17.5839 2.83798 18.3837 3.54504 18.6473 4.36164C18.9069 5.16666 18.6942 6.21027 17.7798 6.77162C14.7829 8.61125 12.71 10.2401 10.9604 12.2429C13.0536 11.4577 15.188 11.0345 18.1152 10.8559C19.0514 10.7988 19.7502 11.3984 20.0165 12.133C20.2788 12.8567 20.1453 13.7629 19.472 14.3802C17.8888 15.8317 16.8669 17.0974 16.0447 18.9794C16.7644 18.9225 17.9182 18.6119 19.4616 17.4738C19.8988 17.1514 20.5061 17.2559 20.8184 17.7073C21.1308 18.1587 21.0296 18.7855 20.5923 19.1079C18.343 20.7665 16.5827 21.0688 15.4509 20.9883C14.8517 20.9455 14.373 20.5893 14.1292 20.0888C13.8966 19.6112 13.8985 19.056 14.094 18.5744L14.2831 18.1271C15.2425 15.942 16.4514 14.4632 18.1798 12.8785C18.187 12.8718 18.1901 12.8657 18.1921 12.8628C15.4 13.0357 13.4571 13.4374 11.5723 14.1507C10.6876 14.4854 9.80769 14.1533 9.31275 13.5278C8.79612 12.8746 8.68485 11.8629 9.36786 11.0658C11.3254 8.78197 13.611 6.99419 16.7859 5.0453C16.7964 5.03886 16.8019 5.03339 16.8049 5.03059C16.8051 5.02885 16.8059 5.0263 16.8058 5.02274C16.8058 5.02088 16.8051 5.01885 16.8049 5.01686C12.0261 5.87772 8.69472 7.03231 4.46781 9.61318C4.0053 9.89553 3.40922 9.7375 3.13566 9.26007C2.86215 8.78263 3.01523 8.16729 3.47773 7.8849C7.94229 5.15893 11.5067 3.92985 16.5008 3.03257Z" fill="#262626"/>
</svg>
