<svg width="19" height="19" viewBox="0 0 19 19" fill="none" xmlns="http://www.w3.org/2000/svg">
<g filter="url(#filter0_d_17102_317430)">
<path fill-rule="evenodd" clip-rule="evenodd" d="M11.5 3L15 6.5L13.6 7.9L10.1 4.4L11.5 3ZM8.7 5.8L5.1 9.4L8.6 12.9L12.2 9.3L8.7 5.8ZM3.7 10.8L7.2 14.3L6.5 15H3V11.5L3.7 10.8Z" fill="#262626"/>
<path d="M7.90723 14.2998L6.70703 15.5H2.5V11.293L3.7002 10.0928L7.90723 14.2998ZM12.9072 9.2998L8.59961 13.6074L4.39258 9.40039L8.7002 5.09277L12.9072 9.2998ZM15.707 6.5L13.5996 8.60742L9.39258 4.40039L11.5 2.29297L15.707 6.5Z" stroke="white"/>
</g>
<defs>
<filter id="filter0_d_17102_317430" x="0" y="0.585693" width="18.4141" height="18.4143" filterUnits="userSpaceOnUse" color-interpolation-filters="sRGB">
<feFlood flood-opacity="0" result="BackgroundImageFix"/>
<feColorMatrix in="SourceAlpha" type="matrix" values="0 0 0 0 0 0 0 0 0 0 0 0 0 0 0 0 0 0 127 0" result="hardAlpha"/>
<feOffset dy="1"/>
<feGaussianBlur stdDeviation="1"/>
<feComposite in2="hardAlpha" operator="out"/>
<feColorMatrix type="matrix" values="0 0 0 0 0 0 0 0 0 0 0 0 0 0 0 0 0 0 0.25 0"/>
<feBlend mode="normal" in2="BackgroundImageFix" result="effect1_dropShadow_17102_317430"/>
<feBlend mode="normal" in="SourceGraphic" in2="effect1_dropShadow_17102_317430" result="shape"/>
</filter>
</defs>
</svg>
