<svg width="24" height="24" viewBox="0 0 24 24" fill="none" xmlns="http://www.w3.org/2000/svg">
<path d="M9.29295 10.293C9.68348 9.90244 10.3165 9.90244 10.707 10.293C11.0975 10.6835 11.0975 11.3165 10.707 11.707L8.41405 14H17C17.5523 14 18 13.5523 18 13V5C18 4.44772 18.4477 4 19 4C19.5523 4 20 4.44772 20 5V13C20 14.6569 18.6568 16 17 16H8.41405L10.707 18.293L10.7754 18.3691C11.0957 18.7619 11.0731 19.3409 10.707 19.707C10.3409 20.0731 9.7619 20.0957 9.36913 19.7754L9.29295 19.707L5.29295 15.707C4.90243 15.3165 4.90243 14.6835 5.29295 14.293L9.29295 10.293Z" fill="#262626"/>
</svg>
