<svg width="24" height="24" viewBox="0 0 24 24" fill="none" xmlns="http://www.w3.org/2000/svg">
<path d="M7 6.5C7 5.11929 8.11929 4 9.5 4H12V9H9.5C8.11929 9 7 7.88071 7 6.5V6.5Z" stroke="#262626" stroke-width="2"/>
<path d="M7 11.5C7 10.1193 8.11929 9 9.5 9H12V14H9.5C8.11929 14 7 12.8807 7 11.5V11.5Z" stroke="#262626" stroke-width="2"/>
<rect x="12" y="9" width="5" height="5" rx="2.5" stroke="#262626" stroke-width="2"/>
<path d="M12 4H14.5C15.8807 4 17 5.11929 17 6.5V6.5C17 7.88071 15.8807 9 14.5 9H12V4Z" stroke="#262626" stroke-width="2"/>
<path d="M7 16.5C7 15.1193 8.11929 14 9.5 14H12V16.5C12 17.8807 10.8807 19 9.5 19V19C8.11929 19 7 17.8807 7 16.5V16.5Z" stroke="#262626" stroke-width="2"/>
</svg>
