<?xml version="1.0" encoding="UTF-8" standalone="no"?>
<svg
   width="24"
   height="24"
   viewBox="0 0 24 24"
   fill="none"
   version="1.1"
   id="svg4"
   sodipodi:docname="Figma_colored.svg"
   inkscape:export-filename="Figma_colored.svg"
   inkscape:export-xdpi="96"
   inkscape:export-ydpi="96"
   xmlns:inkscape="http://www.inkscape.org/namespaces/inkscape"
   xmlns:sodipodi="http://sodipodi.sourceforge.net/DTD/sodipodi-0.dtd"
   xmlns="http://www.w3.org/2000/svg"
   xmlns:svg="http://www.w3.org/2000/svg">
  <defs
     id="defs4" />
  <sodipodi:namedview
     id="namedview4"
     pagecolor="#ffffff"
     bordercolor="#000000"
     borderopacity="0.25"
     inkscape:showpageshadow="2"
     inkscape:pageopacity="0.0"
     inkscape:pagecheckerboard="0"
     inkscape:deskcolor="#d1d1d1">
    <inkscape:page
       x="0"
       y="0"
       width="24"
       height="24"
       id="page2"
       margin="0"
       bleed="0" />
  </sodipodi:namedview>
  <path
     d="m 5.550188,5.7165502 c 0,-1.7633441 1.4294771,-3.1928212 3.1928212,-3.1928212 H 11.935829 V 8.9093715 H 8.7430092 c -1.7633441,0 -3.1928212,-1.4294771 -3.1928212,-3.1928213 z"
     fill="#ff4d12"
     id="path1"
     style="stroke-width:1.27713" />
  <path
     d="m 5.550188,12.102193 c 0,-1.763332 1.4294771,-3.1928215 3.1928212,-3.1928215 H 11.935829 V 15.295015 H 8.7430092 c -1.7633441,0 -3.1928212,-1.429491 -3.1928212,-3.192822 z"
     fill="#b659ff"
     id="path2"
     style="stroke-width:1.27713" />
  <rect
     x="11.935829"
     y="8.9093733"
     width="6.3856425"
     height="6.3856425"
     rx="3.1928213"
     fill="#00bcff"
     id="rect2"
     style="stroke-width:1.27713" />
  <path
     d="m 11.935829,2.523729 h 3.192823 c 1.76333,0 3.192822,1.4294771 3.192822,3.1928212 0,1.7633442 -1.429492,3.1928213 -3.192822,3.1928213 h -3.192823 z"
     fill="#ff7361"
     id="path3"
     style="stroke-width:1.27713" />
  <path
     d="m 5.550188,18.487835 c 0,-1.763331 1.4294771,-3.19282 3.1928212,-3.19282 h 3.1928198 v 3.19282 c 0,1.763331 -1.429489,3.192822 -3.1928198,3.192822 -1.7633441,0 -3.1928212,-1.429491 -3.1928212,-3.192822 z"
     fill="#00cf7f"
     id="path4"
     style="stroke-width:1.27713" />
</svg>
