<svg width="24" height="24" viewBox="0 0 24 24" fill="none" xmlns="http://www.w3.org/2000/svg">
<path d="M4 17V7C4 5.89543 4.89543 5 6 5H12C13.1046 5 14 5.89543 14 7V8H18C19.1046 8 20 8.89543 20 10V14H9V12H18V10H12V7H6V13.3555C6.73296 12.5246 7.80496 12 9 12V14C7.89543 14 7 14.8954 7 16V17C7 18.1046 7.89543 19 9 19H6C4.89543 19 4 18.1046 4 17Z" fill="#262626"/>
<path d="M20.5928 12.0146C21.7919 12.1589 22.6137 13.3519 22.2715 14.5498L21.4141 17.5498L21.3623 17.707C21.0707 18.4796 20.3284 19 19.4912 19V17L20.3486 14H7.50879L6.65137 17V19C5.40563 18.9999 4.48415 17.882 4.6748 16.6895L4.72852 16.4502L5.58594 13.4502C5.81607 12.6454 6.51993 12.0749 7.34277 12.0068L7.50879 12H20.3486L20.5928 12.0146ZM19.4912 17V19H6.65137V17H19.4912Z" fill="#262626"/>
</svg>
