<svg width="24" height="24" viewBox="0 0 24 24" fill="none" xmlns="http://www.w3.org/2000/svg">
<path d="M6 14V11.5C6 11.2239 5.77613 11 5.5 11C5.22387 11 5 11.2239 5 11.5V13.5C5 14.59 5.33521 16.2475 6.31152 17.6035C7.25114 18.9084 8.82606 20 11.5 20C12.59 20 14.2475 19.6648 15.6035 18.6885C16.9084 17.7489 18 16.1739 18 13.5V9.5C18 9.22387 17.7761 9 17.5 9C17.2239 9 17 9.22387 17 9.5V12C17 12.5523 16.5523 13 16 13C15.4477 13 15 12.5523 15 12V5.5C15 5.22387 14.7761 5 14.5 5C14.2239 5 14 5.22387 14 5.5V11C14 11.5523 13.5523 12 13 12C12.4477 12 12 11.5523 12 11V4.5C12 4.22387 11.7761 4 11.5 4C11.2239 4 11 4.22387 11 4.5V12C11 12.5523 10.5523 13 10 13C9.44772 13 9 12.5523 9 12V5.5C9 5.22385 8.77615 5 8.5 5C8.22385 5 8 5.22385 8 5.5V14C8 14.5523 7.55228 15 7 15C6.44772 15 6 14.5523 6 14ZM17 7.0498C17.1615 7.01701 17.3288 7 17.5 7C18.8807 7 20 8.11927 20 9.5V13.5C20 16.8259 18.5915 19.0011 16.7715 20.3115C15.0025 21.5851 12.91 22 11.5 22C8.17408 22 5.99887 20.5915 4.68848 18.7715C3.41491 17.0025 3 14.91 3 13.5V11.5C3 10.1193 4.11927 9 5.5 9C5.67122 9 5.83846 9.01702 6 9.0498V5.5C6 4.11929 7.11929 3 8.5 3C8.81298 3 9.11158 3.06001 9.3877 3.16504C9.83083 2.46534 10.6105 2 11.5 2C12.3893 2 13.1681 2.46559 13.6113 3.16504C13.8877 3.0598 14.1867 3 14.5 3C15.8807 3 17 4.11927 17 5.5V7.0498Z" fill="#262626" stroke="white" stroke-width="1.0" stroke-linejoin="round" paint-order="stroke fill"/>
</svg>
