<svg width="24" height="26" viewBox="0 0 24 26" fill="none" xmlns="http://www.w3.org/2000/svg">
<g filter="url(#filter0_d_18321_313042)">
<path d="M17 9.0498C17.1615 9.01701 17.3288 9 17.5 9C18.8807 9 20 10.1193 20 11.5V13.5C20 16.8259 18.5915 19.0011 16.7715 20.3115C15.0025 21.5851 12.91 22 11.5 22C8.17408 22 5.99887 20.5915 4.68848 18.7715C3.41491 17.0025 3 14.91 3 13.5C3 12.1193 4.11927 11 5.5 11C5.67122 11 5.83846 11.017 6 11.0498V8.5C6 7.11929 7.11929 6 8.5 6C8.81298 6 9.11158 6.06001 9.3877 6.16504C9.83083 5.46534 10.6105 5 11.5 5C12.3893 5 13.1681 5.46559 13.6113 6.16504C13.8877 6.0598 14.1867 6 14.5 6C15.8807 6 17 7.11927 17 8.5V9.0498Z" fill="white"/>
</g>
<path d="M6 14V13.5C6 13.2239 5.77613 13 5.5 13C5.22387 13 5 13.2239 5 13.5C5 14.59 5.33521 16.2475 6.31152 17.6035C7.25114 18.9084 8.82606 20 11.5 20C12.59 20 14.2475 19.6648 15.6035 18.6885C16.9084 17.7489 18 16.1739 18 13.5V11.5C18 11.2239 17.7761 11 17.5 11C17.2239 11 17 11.2239 17 11.5V12C17 12.5523 16.5523 13 16 13C15.4477 13 15 12.5523 15 12V8.5C15 8.22387 14.7761 8 14.5 8C14.2239 8 14 8.22387 14 8.5V11C14 11.5523 13.5523 12 13 12C12.4477 12 12 11.5523 12 11V7.5C12 7.22387 11.7761 7 11.5 7C11.2239 7 11 7.22387 11 7.5V12C11 12.5523 10.5523 13 10 13C9.44772 13 9 12.5523 9 12V8.5C9 8.22385 8.77615 8 8.5 8C8.22385 8 8 8.22385 8 8.5V14C8 14.5523 7.55228 15 7 15C6.44772 15 6 14.5523 6 14ZM17 9.0498C17.1615 9.01701 17.3288 9 17.5 9C18.8807 9 20 10.1193 20 11.5V13.5C20 16.8259 18.5915 19.0011 16.7715 20.3115C15.0025 21.5851 12.91 22 11.5 22C8.17408 22 5.99887 20.5915 4.68848 18.7715C3.41491 17.0025 3 14.91 3 13.5C3 12.1193 4.11927 11 5.5 11C5.67122 11 5.83846 11.017 6 11.0498V8.5C6 7.11929 7.11929 6 8.5 6C8.81298 6 9.11158 6.06001 9.3877 6.16504C9.83083 5.46534 10.6105 5 11.5 5C12.3893 5 13.1681 5.46559 13.6113 6.16504C13.8877 6.0598 14.1867 6 14.5 6C15.8807 6 17 7.11927 17 8.5V9.0498Z" fill="#262626"/>
<defs>
<filter id="filter0_d_18321_313042" x="1" y="5" width="21" height="21" filterUnits="userSpaceOnUse" color-interpolation-filters="sRGB">
<feFlood flood-opacity="0" result="BackgroundImageFix"/>
<feColorMatrix in="SourceAlpha" type="matrix" values="0 0 0 0 0 0 0 0 0 0 0 0 0 0 0 0 0 0 127 0" result="hardAlpha"/>
<feOffset dy="2"/>
<feGaussianBlur stdDeviation="1"/>
<feComposite in2="hardAlpha" operator="out"/>
<feColorMatrix type="matrix" values="0 0 0 0 0 0 0 0 0 0.0196078 0 0 0 0 0 0 0 0 0.25 0"/>
<feBlend mode="normal" in2="BackgroundImageFix" result="effect1_dropShadow_18321_313042"/>
<feBlend mode="normal" in="SourceGraphic" in2="effect1_dropShadow_18321_313042" result="shape"/>
</filter>
</defs>
</svg>
