<svg width="24" height="24" viewBox="0 0 24 24" fill="none" xmlns="http://www.w3.org/2000/svg">
<path d="M19 3C20.1046 3 21 3.89543 21 5V19C21 20.1046 20.1046 21 19 21H5C3.89543 21 3 20.1046 3 19V5C3 3.89543 3.89543 3 5 3H19ZM11 17L8.5 14L6 19H18L14 12L11 17ZM5 16.5273L6.71094 13.1055C7.01279 12.5018 7.59908 12.0915 8.26953 12.0137C8.93992 11.9359 9.60405 12.2013 10.0361 12.7197L10.7334 13.5566L12.2852 10.9707L12.3564 10.8594C12.7327 10.3171 13.3558 9.99292 14.0215 10C14.7315 10.0076 15.384 10.3913 15.7363 11.0078L19 16.7188V5H5V16.5273Z" fill="#262626"/>
<circle cx="9" cy="8" r="2" fill="#262626"/>
</svg>
