<svg width="24" height="24" viewBox="0 0 24 24" fill="none" xmlns="http://www.w3.org/2000/svg">
<path fill-rule="evenodd" clip-rule="evenodd" d="M11.75 5.00605C10.7835 5.00605 10 5.90419 10 7.0121H13.5C13.5 5.90419 12.7165 5.00605 11.75 5.00605ZM15.25 7.03984V7.0121C15.25 4.79629 13.683 3 11.75 3C9.81701 3 8.25 4.79629 8.25 7.0121V7.03984C7.91111 7.10501 7.60523 7.28185 7.36217 7.53621L6.32769 6.6892L5.25792 3.93001L3.65875 4.74473L4.76083 7.58723C4.86655 7.8599 5.03401 8.09517 5.24583 8.2686L6.79167 9.53433V11.0242H3V13.0303H6.79167V14.5665L5.45024 15.848C5.29568 15.9956 5.16945 16.1783 5.07948 16.3845L3.67571 19.6029L5.24096 20.5L6.61744 17.3442L7.15478 16.8309C7.89629 18.9392 9.69465 20.3858 11.7517 20.3858H12.0417C14.0473 20.3858 15.7574 18.9355 16.4174 16.8998L16.8825 17.3442L18.2591 20.5L19.8243 19.6029L18.4205 16.3845C18.3306 16.1783 18.2043 15.9956 18.0498 15.848L16.7083 14.5665V13.0303H20.5V11.0242H16.7083V9.53433L18.2542 8.2686C18.466 8.09517 18.6334 7.8599 18.7391 7.58723L19.8413 4.74473L18.242 3.93001L17.1723 6.6892L16.1378 7.53621C15.8948 7.28185 15.5889 7.10501 15.25 7.03984ZM14.9583 15.0363V9.01816H8.54167V14.9596L8.58236 15.2629C8.82303 17.056 10.169 18.3797 11.7517 18.3797H12.0417C13.6525 18.3797 14.9583 16.8828 14.9583 15.0363Z" fill="#F15B50"/>
</svg>
