<svg width="24" height="24" viewBox="0 0 24 24" fill="none" xmlns="http://www.w3.org/2000/svg">
<path fill-rule="evenodd" clip-rule="evenodd" d="M3 5.5C3 4.11929 4.11929 3 5.5 3H18C19.3807 3 20.5 4.11929 20.5 5.5V18C20.5 19.3807 19.3807 20.5 18 20.5H5.5C4.11929 20.5 3 19.3807 3 18V5.5ZM5.5 4.875C5.15482 4.875 4.875 5.15482 4.875 5.5V18C4.875 18.3451 5.15482 18.625 5.5 18.625H18C18.3451 18.625 18.625 18.3451 18.625 18V5.5C18.625 5.15482 18.3451 4.875 18 4.875H5.5ZM17.1577 8.60018L10.9077 16.1001C10.7296 16.3139 10.4657 16.4375 10.1875 16.4375C9.90927 16.4375 9.64541 16.3139 9.46729 16.1001L6.34229 12.3502L7.78271 11.1498L10.1875 14.0356L15.7173 7.39982L17.1577 8.60018Z" fill="#4688EC"/>
</svg>
