<svg width="24" height="24" viewBox="0 0 24 24" fill="none" xmlns="http://www.w3.org/2000/svg">
<path d="M19.2816 4H11C11 4.99732 11.3939 5.95378 12.095 6.65899C12.7961 7.3642 13.7469 7.76038 14.7384 7.76038H16.264V9.24199C16.2653 11.3169 17.9372 12.9986 20 13V4.72265C20 4.32365 19.6784 4 19.2816 4Z" fill="#2684FF"/>
<path d="M15.2815 8H7C7.00128 10.0749 8.67314 11.7567 10.736 11.7581H12.2616V13.2444C12.2642 15.3194 13.9372 17 16 17V8.72279C16 8.32366 15.6783 8 15.2815 8Z" fill="url(#paint0_linear_2259_78)"/>
<path d="M11.2815 12H3C3 14.0768 4.6738 15.7604 6.7384 15.7604H8.26874V17.242C8.27008 19.315 9.93904 20.9961 12 21V12.7227C12 12.3236 11.6783 12 11.2815 12Z" fill="url(#paint1_linear_2259_78)"/>
<defs>
<linearGradient id="paint0_linear_2259_78" x1="2259.67" y1="12.1436" x2="1360.2" y2="1057.16" gradientUnits="userSpaceOnUse">
<stop offset="0.18" stop-color="#0052CC"/>
<stop offset="1" stop-color="#2684FF"/>
</linearGradient>
<linearGradient id="paint1_linear_2259_78" x1="2316.2" y1="23.7099" x2="1276.09" y2="1163.1" gradientUnits="userSpaceOnUse">
<stop offset="0.18" stop-color="#0052CC"/>
<stop offset="1" stop-color="#2684FF"/>
</linearGradient>
</defs>
</svg>
