<svg width="24" height="24" viewBox="0 0 24 24" fill="none" xmlns="http://www.w3.org/2000/svg">
<path d="M11.0193 11.8036C11.5867 8.96688 13.3013 7.2597 14.8387 6.28139C15.6033 5.79482 16.3304 5.48269 16.8681 5.29185C17.138 5.19609 17.3635 5.12994 17.5248 5.08676C17.6055 5.06517 17.671 5.04937 17.7182 5.03842C17.7417 5.03299 17.7611 5.0284 17.7755 5.0253L17.7997 5.02047L17.8017 5.01978H17.8031L18.1967 6.97952L18.196 6.98021C18.1915 6.98119 18.1822 6.98338 18.1691 6.98642C18.1426 6.99257 18.0991 7.00343 18.0414 7.01888C17.9254 7.04992 17.7516 7.10028 17.5373 7.17632C17.1064 7.32923 16.5217 7.58091 15.9117 7.96905C14.6992 8.74073 13.4131 10.0329 12.9804 12.1958C12.4131 15.0326 10.6992 16.7404 9.16178 17.7187C8.3968 18.2055 7.66873 18.5174 7.13092 18.7082C6.86138 18.8039 6.63686 18.8702 6.4756 18.9133C6.39487 18.9349 6.32947 18.9507 6.28225 18.9617C6.25863 18.9671 6.23937 18.9717 6.22494 18.9748C6.21776 18.9763 6.21109 18.9772 6.20629 18.9782C6.2042 18.9787 6.20239 18.9793 6.20077 18.9796H6.19801L6.19732 18.9803C6.19684 18.9804 6.19595 18.9803 5.99982 17.9997C5.81777 17.0895 5.80433 17.0245 5.80302 17.0199L5.80233 17.0192H5.80371C5.80826 17.0182 5.8174 17.016 5.83064 17.013C5.85708 17.0068 5.90016 16.9966 5.9577 16.9812C6.07369 16.9502 6.24796 16.8992 6.46248 16.8231C6.89332 16.6702 7.47816 16.4198 8.088 16.0317C9.30063 15.26 10.5867 13.9667 11.0193 11.8036ZM18.1995 6.97952L18.1988 6.98021H18.1974L18.1967 6.97952C18.1982 6.9792 18.1992 6.97957 18.1995 6.97952Z" fill="#262626"/>
</svg>
