<svg width="24" height="24" viewBox="0 0 24 24" fill="none" xmlns="http://www.w3.org/2000/svg">
<path d="M18.707 12.707C18.3165 13.0976 17.6835 13.0976 17.293 12.707C16.9024 12.3165 16.9024 11.6835 17.293 11.293L18.5859 10L14 10C13.4477 10 13 10.4477 13 11L13 17C13 18.6569 11.6569 20 10 20L3 20L2.89746 19.9951C2.39333 19.9438 2 19.5177 2 19C2 18.4477 2.44772 18 3 18L10 18C10.5523 18 11 17.5523 11 17L11 11C11 9.34314 12.3431 8 14 8L18.5859 8L17.293 6.70703L17.2246 6.63086C16.9043 6.23809 16.9269 5.65908 17.293 5.29297C17.6591 4.92685 18.2381 4.90426 18.6309 5.22461L18.707 5.29297L21.707 8.29297C21.8946 8.4805 22 8.73478 22 9C22 9.26521 21.8946 9.5195 21.707 9.70703L18.707 12.707Z" fill="#262626"/>
</svg>
