<svg width="24" height="24" viewBox="0 0 24 24" fill="none" xmlns="http://www.w3.org/2000/svg">
<rect x="8" y="11" width="8" height="2" rx="1" fill="#262626"/>
<path d="M11 9H8C6.34315 9 5 10.3431 5 12C5 13.6569 6.34315 15 8 15H11V17H8C5.23858 17 3 14.7614 3 12C3 9.23858 5.23858 7 8 7H11V9Z" fill="#262626"/>
<path d="M16.2568 7.00684C18.8989 7.14053 21 9.32472 21 12C21 14.6753 18.8989 16.8595 16.2568 16.9932L16 17H13V15H16C17.6569 15 19 13.6569 19 12C19 10.3431 17.6569 9 16 9H13V7H16L16.2568 7.00684Z" fill="#262626"/>
</svg>
