<svg width="32" height="32" viewBox="0 0 32 32" fill="none" xmlns="http://www.w3.org/2000/svg">
<path d="M22.083 23.2763C21.8824 23.4696 21.6623 23.6652 21.4193 23.8631C21.2328 24.0145 20.97 24.0431 20.753 23.935C20.5366 23.827 20.4087 23.6036 20.4298 23.3693C20.4603 23.0264 20.3726 22.7739 20.2508 22.4244C20.1734 22.201 20.0871 21.952 20.028 21.6554C18.3601 22.7544 16.0684 23.663 13.7828 23.4509C11.95 23.2805 10.3304 22.4409 8.96213 20.9524C7.43211 21.8372 5.71674 21.8554 4.27995 20.9771C4.09016 20.861 3.98305 20.6523 4.0022 20.4365C4.0219 20.2206 4.16313 20.0326 4.37235 19.9497C4.87348 19.7491 5.01167 19.4736 5.21783 19.0566C5.60519 18.274 6.06331 17.6029 7.61386 17.3632C7.86165 15.8694 8.55785 15.4278 9.37058 15.0536C9.80317 14.8549 10.0879 14.7238 10.2974 14.2383C10.3795 14.0447 10.5657 13.9096 10.7816 13.8839C10.9974 13.8588 11.2108 13.9479 11.3396 14.1169C11.4056 14.203 12.9359 16.265 11.2336 18.8191C11.0532 19.0898 10.6808 19.1673 10.4006 18.994C10.1206 18.8204 10.0393 18.4612 10.2191 18.1911C10.9142 17.1482 10.8923 16.231 10.7297 15.6142C10.4508 15.8445 10.1536 15.9812 9.88975 16.1024C9.30316 16.3725 8.88055 16.567 8.75513 17.9359C8.72961 18.2162 8.49874 18.4387 8.20795 18.4633C6.78642 18.5845 6.58497 18.9932 6.30555 19.5573C6.18013 19.8109 6.03861 20.0965 5.80109 20.3645C6.74952 20.6015 7.78784 20.3801 8.71601 19.7138C8.97684 19.5266 9.34505 19.5728 9.54734 19.8181C10.7771 21.3074 12.2411 22.1403 13.8985 22.2941C16.2815 22.5156 18.7133 21.2921 20.1948 20.0738C20.3826 19.9189 20.6498 19.8909 20.8682 20.0024C21.0866 20.1139 21.2123 20.3426 21.1851 20.5796C21.1096 21.2365 21.2478 21.634 21.394 22.0552C21.4137 22.1122 21.434 22.1703 21.454 22.2296C23.4696 20.115 22.5023 18.5931 22.4912 18.576C22.3383 18.3462 22.3721 18.045 22.5725 17.8519C23.7998 16.6689 24.337 15.3155 24.0462 14.1386C23.9688 13.8264 24.1694 13.5122 24.4929 13.4389C24.8165 13.3645 25.1417 13.5571 25.2188 13.8695C25.5831 15.343 25.037 16.9676 23.7171 18.3775C24.0326 19.193 24.3636 21.0779 22.083 23.2763ZM28.8235 7.99179L23.9932 12.648C23.7579 12.8748 23.3761 12.8748 23.1408 12.648C22.696 12.2192 22.0586 12.3216 21.4359 12.9218L14.6166 19.4953C13.7156 20.3637 12.3884 20.3506 12.3321 20.3498C11.9994 20.3442 11.7344 20.0792 11.7405 19.7582C11.7472 19.4378 12.0208 19.1826 12.3543 19.1879C12.3599 19.1879 13.2303 19.1882 13.7642 18.6736L20.5835 12.1002C21.6241 11.0971 22.7176 11.0493 23.5079 11.4724L27.9711 7.17011C28.2064 6.9433 28.5882 6.9433 28.8235 7.17011C29.0588 7.39693 29.0588 7.76497 28.8235 7.99179Z" fill="#007CB4"/>
</svg>
