<svg width="18" height="19" viewBox="0 0 18 19" fill="none" xmlns="http://www.w3.org/2000/svg">
<mask id="path-1-outside-1_17113_318000" maskUnits="userSpaceOnUse" x="3" y="0" width="10" height="17" fill="black">
<rect fill="white" x="3" width="10" height="17"/>
<path d="M12 14V15C12 15 10.5 16 8 16C5.5 16 4 15 4 15V14L4.29492 13.1855C4.50339 13.3171 4.74026 13.4334 4.99609 13.5293C5.78922 13.8267 6.85146 14 8 14C9.14854 14 10.2108 13.8267 11.0039 13.5293C11.2594 13.4335 11.4958 13.3169 11.7041 13.1855L12 14ZM9.22461 6.36816C9.08411 6.54038 9 6.76041 9 7C9 7.48747 9.34891 7.89286 9.81055 7.98145L11.3496 12.2119C11.209 12.3355 10.9795 12.4704 10.6533 12.5928C9.99876 12.8382 9.06049 13 8 13C6.93951 13 6.00124 12.8382 5.34668 12.5928C5.02003 12.4703 4.79 12.3356 4.64941 12.2119L5.50195 9.86621C5.64871 9.95077 5.81846 10 6 10C6.55228 10 7 9.55228 7 9C7 8.50737 6.64371 8.09833 6.1748 8.01562L8 3L9.22461 6.36816ZM9 10C8.44772 10 8 10.4477 8 11C8 11.5523 8.44772 12 9 12C9.55228 12 10 11.5523 10 11C10 10.4477 9.55228 10 9 10Z"/>
</mask>
<path d="M12 14V15C12 15 10.5 16 8 16C5.5 16 4 15 4 15V14L4.29492 13.1855C4.50339 13.3171 4.74026 13.4334 4.99609 13.5293C5.78922 13.8267 6.85146 14 8 14C9.14854 14 10.2108 13.8267 11.0039 13.5293C11.2594 13.4335 11.4958 13.3169 11.7041 13.1855L12 14ZM9.22461 6.36816C9.08411 6.54038 9 6.76041 9 7C9 7.48747 9.34891 7.89286 9.81055 7.98145L11.3496 12.2119C11.209 12.3355 10.9795 12.4704 10.6533 12.5928C9.99876 12.8382 9.06049 13 8 13C6.93951 13 6.00124 12.8382 5.34668 12.5928C5.02003 12.4703 4.79 12.3356 4.64941 12.2119L5.50195 9.86621C5.64871 9.95077 5.81846 10 6 10C6.55228 10 7 9.55228 7 9C7 8.50737 6.64371 8.09833 6.1748 8.01562L8 3L9.22461 6.36816ZM9 10C8.44772 10 8 10.4477 8 11C8 11.5523 8.44772 12 9 12C9.55228 12 10 11.5523 10 11C10 10.4477 9.55228 10 9 10Z" fill="#F79740"/>
<path d="M12 14H13V13.824L12.9399 13.6585L12 14ZM12 15L12.5547 15.8321L13 15.5352V15H12ZM4 15H3V15.5352L3.4453 15.8321L4 15ZM4 14L3.05975 13.6595L3 13.8245V14H4ZM4.29492 13.1855L4.82851 12.3398L3.7777 11.6768L3.35467 12.8451L4.29492 13.1855ZM4.99609 13.5293L4.64497 14.4656L4.64501 14.4656L4.99609 13.5293ZM11.0039 13.5293L11.355 14.4656L11.355 14.4656L11.0039 13.5293ZM11.7041 13.1855L12.644 12.8441L12.2203 11.6779L11.1708 12.3396L11.7041 13.1855ZM9.22461 6.36816L9.99945 7.00032L10.3585 6.56024L10.1644 6.02646L9.22461 6.36816ZM9.81055 7.98145L10.7503 7.63956L10.5563 7.1063L9.999 6.99936L9.81055 7.98145ZM11.3496 12.2119L12.0096 12.9632L12.523 12.5122L12.2894 11.87L11.3496 12.2119ZM10.6533 12.5928L11.0044 13.5291L11.0045 13.5291L10.6533 12.5928ZM5.34668 12.5928L4.99548 13.5291L4.99556 13.5291L5.34668 12.5928ZM4.64941 12.2119L3.70956 11.8703L3.47639 12.5119L3.98893 12.9628L4.64941 12.2119ZM5.50195 9.86621L6.00121 8.99976L4.96903 8.405L4.5621 9.52462L5.50195 9.86621ZM6.1748 8.01562L5.23509 7.67366L4.8276 8.79345L6.00111 9.00043L6.1748 8.01562ZM8 3L8.93981 2.6583L8.00041 0.0745809L7.06029 2.65804L8 3ZM12 14H11V15H12H13V14H12ZM12 15C11.4453 14.1679 11.4456 14.1677 11.4459 14.1675C11.446 14.1675 11.4463 14.1673 11.4465 14.1672C11.4469 14.1669 11.4472 14.1667 11.4475 14.1665C11.4482 14.166 11.4488 14.1657 11.4492 14.1653C11.4502 14.1647 11.4508 14.1643 11.4511 14.1641C11.4516 14.1638 11.4508 14.1643 11.4486 14.1657C11.4441 14.1686 11.4342 14.1748 11.4189 14.1839C11.3882 14.2021 11.3363 14.2319 11.264 14.2697C11.1192 14.3452 10.894 14.4518 10.5958 14.5602C9.9995 14.777 9.11545 15 8 15V16V17C9.38455 17 10.5005 16.723 11.2792 16.4398C11.6685 16.2982 11.9745 16.1548 12.1891 16.0428C12.2965 15.9868 12.3813 15.9385 12.4425 15.9021C12.4731 15.8838 12.4978 15.8686 12.5165 15.8567C12.5259 15.8508 12.5338 15.8457 12.5401 15.8416C12.5433 15.8395 12.5461 15.8377 12.5486 15.8361C12.5498 15.8353 12.5509 15.8346 12.5519 15.8339C12.5524 15.8336 12.5529 15.8332 12.5534 15.8329C12.5536 15.8328 12.5539 15.8326 12.5541 15.8325C12.5544 15.8323 12.5547 15.8321 12 15ZM8 16V15C6.88455 15 6.0005 14.777 5.40424 14.5602C5.10605 14.4518 4.88076 14.3452 4.736 14.2697C4.6637 14.2319 4.61176 14.2021 4.58114 14.1839C4.56584 14.1748 4.55591 14.1686 4.55145 14.1657C4.54922 14.1643 4.54837 14.1638 4.5489 14.1641C4.54917 14.1643 4.54979 14.1647 4.55075 14.1653C4.55124 14.1657 4.55181 14.166 4.55246 14.1665C4.55279 14.1667 4.55314 14.1669 4.55352 14.1672C4.5537 14.1673 4.554 14.1675 4.55409 14.1675C4.55439 14.1677 4.5547 14.1679 4 15C3.4453 15.8321 3.44562 15.8323 3.44594 15.8325C3.44606 15.8326 3.44639 15.8328 3.44662 15.8329C3.44709 15.8332 3.44757 15.8336 3.44809 15.8339C3.44911 15.8346 3.45023 15.8353 3.45144 15.8361C3.45387 15.8377 3.45667 15.8395 3.45985 15.8416C3.46622 15.8457 3.47409 15.8508 3.48346 15.8567C3.5022 15.8686 3.52693 15.8838 3.55753 15.9021C3.61871 15.9385 3.70349 15.9868 3.81087 16.0428C4.02549 16.1548 4.33145 16.2982 4.72076 16.4398C5.4995 16.723 6.61545 17 8 17V16ZM4 15H5V14H4H3V15H4ZM4 14L4.94025 14.3405L5.23518 13.526L4.29492 13.1855L3.35467 12.8451L3.05975 13.6595L4 14ZM4.29492 13.1855L3.76134 14.0313C4.03274 14.2025 4.33162 14.3481 4.64497 14.4656L4.99609 13.5293L5.34722 12.593C5.14891 12.5186 4.97403 12.4316 4.82851 12.3398L4.29492 13.1855ZM4.99609 13.5293L4.64501 14.4656C5.57694 14.8151 6.7636 15 8 15V14V13C6.93931 13 6.00151 12.8383 5.34717 12.593L4.99609 13.5293ZM8 14V15C9.2364 15 10.4231 14.8151 11.355 14.4656L11.0039 13.5293L10.6528 12.593C9.99849 12.8383 9.06069 13 8 13V14ZM11.0039 13.5293L11.355 14.4656C11.6694 14.3478 11.9674 14.2017 12.2374 14.0314L11.7041 13.1855L11.1708 12.3396C11.0242 12.432 10.8495 12.5192 10.6528 12.593L11.0039 13.5293ZM11.7041 13.1855L10.7642 13.527L11.0601 14.3415L12 14L12.9399 13.6585L12.644 12.8441L11.7041 13.1855ZM9.22461 6.36816L8.44976 5.73601C8.16861 6.08062 8 6.5223 8 7H9H10L9.99945 7.00032L9.22461 6.36816ZM9 7H8C8 7.97697 8.6992 8.78644 9.6221 8.96353L9.81055 7.98145L9.999 6.99936C10.001 6.99975 10.0007 7.00045 9.99936 6.99889C9.99899 6.99845 9.99925 6.99861 9.99963 6.99965C10.0002 7.00113 10 7.00176 10 7H9ZM9.81055 7.98145L8.8708 8.32333L10.4099 12.5538L11.3496 12.2119L12.2894 11.87L10.7503 7.63956L9.81055 7.98145ZM11.3496 12.2119L10.6897 11.4606C10.6692 11.4786 10.5584 11.5603 10.3021 11.6565L10.6533 12.5928L11.0045 13.5291C11.4007 13.3805 11.7488 13.1923 12.0096 12.9632L11.3496 12.2119ZM10.6533 12.5928L10.3022 11.6564C9.78643 11.8499 8.9726 12 8 12V13V14C9.14837 14 10.2111 13.8266 11.0044 13.5291L10.6533 12.5928ZM8 13V12C7.0274 12 6.21357 11.8499 5.6978 11.6564L5.34668 12.5928L4.99556 13.5291C5.78891 13.8266 6.85163 14 8 14V13ZM5.34668 12.5928L5.69788 11.6565C5.43943 11.5595 5.32913 11.478 5.3099 11.4611L4.64941 12.2119L3.98893 12.9628C4.25088 13.1932 4.60063 13.381 4.99548 13.5291L5.34668 12.5928ZM4.64941 12.2119L5.58926 12.5535L6.4418 10.2078L5.50195 9.86621L4.5621 9.52462L3.70956 11.8703L4.64941 12.2119ZM5.50195 9.86621L5.00269 10.7327C5.29389 10.9005 5.63487 11 6 11V10V9C5.99987 9 6.00016 9 6.00073 9.00007C6.00128 9.00015 6.00181 9.00026 6.00224 9.00038C6.00316 9.00063 6.00279 9.00067 6.00121 8.99976L5.50195 9.86621ZM6 10V11C7.10457 11 8 10.1046 8 9H7H6V10ZM7 9H8C8 8.01313 7.28643 7.19625 6.34849 7.03082L6.1748 8.01562L6.00111 9.00043C5.99891 9.00004 5.99914 8.99919 6.00051 9.00081C6.00093 9.0013 6.00071 9.00122 6.00035 9.00025C5.99981 8.99881 6 8.99822 6 9H7ZM6.1748 8.01562L7.11452 8.35759L8.93971 3.34196L8 3L7.06029 2.65804L5.23509 7.67366L6.1748 8.01562ZM8 3L7.06019 3.3417L8.2848 6.70986L9.22461 6.36816L10.1644 6.02646L8.93981 2.6583L8 3ZM9 10V9C7.89543 9 7 9.89543 7 11H8H9V10ZM8 11H7C7 12.1046 7.89543 13 9 13V12V11H8ZM9 12V13C10.1046 13 11 12.1046 11 11H10H9V12ZM10 11H11C11 9.89543 10.1046 9 9 9V10V11H10Z" fill="white" mask="url(#path-1-outside-1_17113_318000)"/>
<circle cx="8" cy="4" r="1" fill="#F8ADAE"/>
</svg>
