<svg width="24" height="24" viewBox="0 0 24 24" fill="none" xmlns="http://www.w3.org/2000/svg">
<rect x="12" y="13" width="8" height="8" rx="1" stroke="#262626" stroke-width="2"/>
<path d="M15 4C16.1046 4 17 4.89543 17 6V11H15V6H5V16H10V18H5L4.7959 17.9893C3.85435 17.8938 3.1062 17.1457 3.01074 16.2041L3 16V6C3 4.89543 3.89543 4 5 4H15Z" fill="#262626"/>
<path d="M6 4H14V7C14 7.55228 13.5523 8 13 8H7C6.44772 8 6 7.55228 6 7V4Z" fill="#262626"/>
<path d="M7 3C7 2.44772 7.44772 2 8 2H12C12.5523 2 13 2.44772 13 3V4H7V3Z" fill="#262626"/>
</svg>
