<svg width="24" height="24" viewBox="0 0 24 24" fill="none" xmlns="http://www.w3.org/2000/svg">
<g filter="url(#filter0_d_16829_314453)">
<path d="M12 4C13.1052 4 14.1555 4.22359 15.1104 4.62695C17.9852 5.84158 20 8.68676 20 12C20 13.6459 19.5038 15.1728 18.6533 16.4434C17.6161 17.9929 16.053 19.1593 14.2227 19.6875C13.5182 19.8908 12.7727 20 12 20C7.58172 20 4 16.4183 4 12C4 7.58172 7.58172 4 12 4Z" stroke="#F7F9F9" stroke-width="2" shape-rendering="crispEdges"/>
</g>
<path d="M13.3281 13.8926L14.2812 15.7988L14.6484 15.9365L18.0635 17.2168C17.1401 18.2889 15.9389 19.1134 14.5723 19.5771L11.8125 18.2773L10.1582 13.3135L13.3281 13.8926ZM12 4C12.5284 4 13.0441 4.052 13.543 4.14941L12.3896 6.07227L10.8672 6.27637L10.4189 6.33691L10.168 6.71289L7.8457 10.1963L8.10547 10.7148L8.7168 11.9385L4.04297 11.1602C4.4627 7.13659 7.86534 4 12 4Z" fill="#F7F9F9" stroke="#F7F9F9" stroke-width="2"/>
<defs>
<filter id="filter0_d_16829_314453" x="1" y="2" width="22" height="22" filterUnits="userSpaceOnUse" color-interpolation-filters="sRGB">
<feFlood flood-opacity="0" result="BackgroundImageFix"/>
<feColorMatrix in="SourceAlpha" type="matrix" values="0 0 0 0 0 0 0 0 0 0 0 0 0 0 0 0 0 0 127 0" result="hardAlpha"/>
<feOffset dy="1"/>
<feGaussianBlur stdDeviation="1"/>
<feComposite in2="hardAlpha" operator="out"/>
<feColorMatrix type="matrix" values="0 0 0 0 0 0 0 0 0 0 0 0 0 0 0 0 0 0 0.1 0"/>
<feBlend mode="normal" in2="BackgroundImageFix" result="effect1_dropShadow_16829_314453"/>
<feBlend mode="normal" in="SourceGraphic" in2="effect1_dropShadow_16829_314453" result="shape"/>
</filter>
</defs>
</svg>
