<svg width="24" height="24" viewBox="0 0 24 24" fill="none" xmlns="http://www.w3.org/2000/svg">
<path d="M9 17.9999V13.9999C9 12.1952 10.4573 11.0456 12.0293 10.9999H14.5859L13.293 12.2929L13.2246 12.3691C12.9043 12.7618 12.9269 13.3408 13.293 13.707C13.6591 14.0731 14.2381 14.0957 14.6309 13.7753L14.707 13.707L18.4141 9.99992L14.707 6.29289C14.3165 5.90237 13.6835 5.90237 13.293 6.29289C12.9024 6.68342 12.9024 7.31643 13.293 7.70696L14.5859 8.99992C13.3097 8.99982 11.9986 8.99911 11.9707 8.99992C9.54264 9.07063 7 10.9012 7 13.9999V17.9999C7 18.5522 7.44771 18.9999 8 18.9999C8.55229 18.9999 9 18.5522 9 17.9999Z" fill="#262626"/>
</svg>
