<svg width="24" height="24" viewBox="0 0 24 24" fill="none" xmlns="http://www.w3.org/2000/svg">
<g clip-path="url(#clip0_13701_36244)">
<path d="M2 6C2 3.79086 3.79086 2 6 2H18C20.2091 2 22 3.79086 22 6V18C22 20.2091 20.2091 22 18 22H6C3.79086 22 2 20.2091 2 18V6Z" fill="#FFE5CD"/>
<path d="M18 20V22H6V20H18ZM20 18V6C20 4.89543 19.1046 4 18 4H6C4.89543 4 4 4.89543 4 6V18C4 19.1046 4.89543 20 6 20V22L5.79395 21.9951C3.7488 21.8913 2.10865 20.2512 2.00488 18.2061L2 18V6C2 3.79086 3.79086 2 6 2H18C20.2091 2 22 3.79086 22 6V18C22 20.14 20.3194 21.8879 18.2061 21.9951L18 22V20C19.1046 20 20 19.1046 20 18Z" fill="#909699"/>
<path d="M15.7666 14.0332C15.7666 14.6849 15.5911 15.2523 15.2402 15.7354C14.8939 16.2184 14.4062 16.5785 13.7773 16.8154C13.1484 17.0524 12.3919 17.1709 11.5078 17.1709C10.4824 17.1709 9.54362 16.9977 8.69141 16.6514V13.9648C9.10156 14.2656 9.55501 14.5094 10.0518 14.6963C10.5485 14.8786 11.0111 14.9697 11.4395 14.9697C11.763 14.9697 12.0137 14.9128 12.1914 14.7988C12.3691 14.6803 12.458 14.5094 12.458 14.2861C12.458 14.1266 12.4124 13.9876 12.3213 13.8691C12.2347 13.7461 12.1003 13.6322 11.918 13.5273C11.7402 13.4225 11.4076 13.279 10.9199 13.0967C9.3431 12.4906 8.55469 11.5107 8.55469 10.1572C8.55469 9.20931 8.91471 8.4528 9.63477 7.8877C10.3548 7.31803 11.321 7.0332 12.5332 7.0332C12.875 7.0332 13.1895 7.04688 13.4766 7.07422C13.7637 7.10156 14.0234 7.13574 14.2559 7.17676C14.4928 7.21777 14.8232 7.29525 15.2471 7.40918V9.9043C14.4222 9.45312 13.611 9.22754 12.8135 9.22754C12.4854 9.22754 12.221 9.28906 12.0205 9.41211C11.82 9.53516 11.7197 9.70378 11.7197 9.91797C11.7197 10.123 11.7995 10.2939 11.959 10.4307C12.123 10.5628 12.4626 10.736 12.9775 10.9502C13.9938 11.3604 14.7116 11.8092 15.1309 12.2969C15.5547 12.7845 15.7666 13.3633 15.7666 14.0332Z" fill="#262626"/>
</g>
<defs>
<clipPath id="clip0_13701_36244">
<rect width="20" height="20" fill="white" transform="translate(2 2)"/>
</clipPath>
</defs>
</svg>
