<svg width="24" height="24" viewBox="0 0 24 24" fill="none" xmlns="http://www.w3.org/2000/svg">
<g clip-path="url(#clip0_13697_36239)">
<path d="M2 6C2 3.79086 3.79086 2 6 2H18C20.2091 2 22 3.79086 22 6V18C22 20.2091 20.2091 22 18 22H6C3.79086 22 2 20.2091 2 18V6Z" fill="#F7FFD3"/>
<path d="M18 20V22H6V20H18ZM20 18V6C20 4.89543 19.1046 4 18 4H6C4.89543 4 4 4.89543 4 6V18C4 19.1046 4.89543 20 6 20V22L5.79395 21.9951C3.7488 21.8913 2.10865 20.2512 2.00488 18.2061L2 18V6C2 3.79086 3.79086 2 6 2H18C20.2091 2 22 3.79086 22 6V18C22 20.14 20.3194 21.8879 18.2061 21.9951L18 22V20C19.1046 20 20 19.1046 20 18Z" fill="#909699"/>
<path d="M13.2715 17L12.54 14.8877C12.3988 14.473 12.2142 14.1471 11.9863 13.9102C11.763 13.6732 11.5192 13.5547 11.2549 13.5547H11.1387V17H8.18555V7.19727H12.1094C13.4811 7.19727 14.4928 7.42285 15.1445 7.87402C15.8008 8.32064 16.1289 8.99284 16.1289 9.89062C16.1289 10.5651 15.9375 11.1302 15.5547 11.5859C15.1764 12.0417 14.6113 12.3721 13.8594 12.5771V12.6045C14.2741 12.7321 14.6182 12.9395 14.8916 13.2266C15.1696 13.5137 15.418 13.9398 15.6367 14.5049L16.6006 17H13.2715ZM12.9912 10.3076C12.9912 9.97949 12.891 9.71973 12.6904 9.52832C12.4899 9.33691 12.1755 9.24121 11.7471 9.24121H11.1387V11.4834H11.6719C12.0684 11.4834 12.3874 11.3717 12.6289 11.1484C12.8704 10.9251 12.9912 10.6449 12.9912 10.3076Z" fill="#262626"/>
</g>
<defs>
<clipPath id="clip0_13697_36239">
<rect width="20" height="20" fill="white" transform="translate(2 2)"/>
</clipPath>
</defs>
</svg>
