<svg width="24" height="24" viewBox="0 0 24 24" fill="none" xmlns="http://www.w3.org/2000/svg">
<g clip-path="url(#clip0_13701_36252)">
<path d="M2 6C2 3.79086 3.79086 2 6 2H18C20.2091 2 22 3.79086 22 6V18C22 20.2091 20.2091 22 18 22H6C3.79086 22 2 20.2091 2 18V6Z" fill="#D4F7E4"/>
<path d="M18 20V22H6V20H18ZM20 18V6C20 4.89543 19.1046 4 18 4H6C4.89543 4 4 4.89543 4 6V18C4 19.1046 4.89543 20 6 20V22L5.79395 21.9951C3.7488 21.8913 2.10865 20.2512 2.00488 18.2061L2 18V6C2 3.79086 3.79086 2 6 2H18C20.2091 2 22 3.79086 22 6V18C22 20.14 20.3194 21.8879 18.2061 21.9951L18 22V20C19.1046 20 20 19.1046 20 18Z" fill="#909699"/>
<path d="M16.3271 12.5225C16.3271 14.0947 15.9671 15.2637 15.2471 16.0293C14.5316 16.7904 13.4264 17.1709 11.9316 17.1709C10.5371 17.1709 9.47754 16.7904 8.75293 16.0293C8.03288 15.2637 7.67285 14.113 7.67285 12.5771V7.19727H10.6396V12.6865C10.6396 13.3154 10.7559 13.8008 10.9883 14.1426C11.2253 14.4798 11.5625 14.6484 12 14.6484C12.4421 14.6484 12.777 14.4889 13.0049 14.1699C13.2373 13.8509 13.3535 13.3792 13.3535 12.7549V7.19727H16.3271V12.5225Z" fill="#262626"/>
</g>
<defs>
<clipPath id="clip0_13701_36252">
<rect width="20" height="20" fill="white" transform="translate(2 2)"/>
</clipPath>
</defs>
</svg>
