<svg width="24" height="24" viewBox="0 0 24 24" fill="none" xmlns="http://www.w3.org/2000/svg">
<path d="M14.918 8.96096C15.4917 8.3635 16.4415 8.34433 17.0391 8.91799C17.6365 9.49172 17.6557 10.4415 17.082 11.0391L12.2822 16.0391C11.7232 16.6214 10.8034 16.6566 10.2012 16.1192L7.00099 13.2617C6.38306 12.71 6.32913 11.7615 6.88087 11.1436C7.39823 10.5642 8.26451 10.481 8.8799 10.9278L8.99904 11.0244L11.1192 12.917L14.918 8.96096Z" fill="#262626"/>
<path d="M20 12C20 7.58172 16.4183 4 12 4C7.58172 4 4 7.58172 4 12C4 16.4183 7.58172 20 12 20V22C6.47715 22 2 17.5228 2 12C2 6.47715 6.47715 2 12 2C17.5228 2 22 6.47715 22 12C22 17.5228 17.5228 22 12 22V20C16.4183 20 20 16.4183 20 12Z" fill="#262626"/>
</svg>
