<svg width="24" height="24" viewBox="0 0 24 24" fill="none" xmlns="http://www.w3.org/2000/svg">
<path d="M15 16V18H5V16H15ZM16 15V5C16 4.44772 15.5523 4 15 4H5C4.44772 4 4 4.44772 4 5V15C4 15.5523 4.44772 16 5 16V18C3.34315 18 2 16.6569 2 15V5C2 3.34315 3.34315 2 5 2H15C16.6569 2 18 3.34315 18 5V15C18 16.6569 16.6569 18 15 18V16C15.5523 16 16 15.5523 16 15Z" fill="#262626"/>
<path d="M12.2568 7.33096C12.6263 6.9205 13.2585 6.8873 13.6689 7.25674C14.0794 7.62621 14.1126 8.25836 13.7432 8.66885L10.1436 12.6688C9.96287 12.8696 9.70838 12.9885 9.43848 12.9989C9.16859 13.0093 8.90555 12.9108 8.70996 12.7245L6.31055 10.4384C5.91066 10.0575 5.89462 9.42426 6.27539 9.02432C6.65626 8.62441 7.28952 8.60931 7.68945 8.99014L9.34473 10.5653L12.2568 7.33096Z" fill="#262626"/>
<path d="M20 18V9H22V18C22 20.2091 20.2091 22 18 22H9V20H18C19.1046 20 20 19.1046 20 18Z" fill="#262626"/>
</svg>
