<svg width="32" height="32" viewBox="0 0 32 32" fill="none" xmlns="http://www.w3.org/2000/svg">
<path d="M13.2929 14.293C13.6834 13.9024 14.3164 13.9024 14.707 14.293C15.0975 14.6835 15.0975 15.3165 14.707 15.707L12.414 18H20.9999C21.5522 18 21.9999 17.5523 21.9999 17V9C21.9999 8.44772 22.4476 8 22.9999 8C23.5522 8 23.9999 8.44772 23.9999 9V17C23.9999 18.6569 22.6568 20 20.9999 20H12.414L14.707 22.293L14.7753 22.3691C15.0957 22.7619 15.0731 23.3409 14.707 23.707C14.3408 24.0731 13.7618 24.0957 13.3691 23.7754L13.2929 23.707L9.29289 19.707C8.90237 19.3165 8.90237 18.6835 9.29289 18.293L13.2929 14.293Z" fill="#262626"/>
</svg>
