<svg width="24" height="24" viewBox="0 0 24 24" fill="none" xmlns="http://www.w3.org/2000/svg">
<path d="M20 17C20 15.3431 18.6569 14 17 14C15.3431 14 14 15.3431 14 17C14 18.6569 15.3431 20 17 20V22C14.2386 22 12 19.7614 12 17C12 14.2386 14.2386 12 17 12C19.7614 12 22 14.2386 22 17C22 19.7614 19.7614 22 17 22V20C18.6569 20 20 18.6569 20 17Z" fill="#262626"/>
<path d="M11.2569 2.30761C11.6674 1.89746 12.3326 1.89746 12.7432 2.30761L18.6924 8.25683C19.1025 8.66739 19.1025 9.3326 18.6924 9.74316L14 14.4355V11.6064L16.6065 8.99999L12 4.39355L7.39358 8.99999L8.39358 9.99999H5.56447L5.30764 9.74316C4.89749 9.3326 4.89749 8.66739 5.30764 8.25683L11.2569 2.30761Z" fill="#262626"/>
<path d="M4 20H12V12H4V20ZM14 21C14 21.5177 13.6067 21.9438 13.1025 21.9951L13 22H3L2.89746 21.9951C2.42703 21.9472 2.05278 21.573 2.00488 21.1025L2 21V11C2 10.4477 2.44772 10 3 10H13C13.5523 10 14 10.4477 14 11V21Z" fill="#262626"/>
</svg>
