<svg width="24" height="24" viewBox="0 0 24 24" fill="none" xmlns="http://www.w3.org/2000/svg">
<path d="M12 7C12 5.89543 11.1046 5 10 5C8.89543 5 8 5.89543 8 7C8 8.10457 8.89543 9 10 9V11C7.79086 11 6 9.20914 6 7C6 4.79086 7.79086 3 10 3C12.2091 3 14 4.79086 14 7C14 9.20914 12.2091 11 10 11V9C11.1046 9 12 8.10457 12 7Z" fill="#262626"/>
<path d="M17 7.5C17 7.04906 16.8359 6.64808 16.6055 6.37012C16.3651 6.08013 16.1253 6 16 6C15.4477 6 15 5.55228 15 5C15 4.44772 15.4477 4 16 4C16.8746 4 17.6349 4.47909 18.1445 5.09375C18.6641 5.72061 19 6.57024 19 7.5C19 8.42976 18.6641 9.27939 18.1445 9.90625C17.6349 10.5209 16.8746 11 16 11C15.4477 11 15 10.5523 15 10C15 9.44772 15.4477 9 16 9C16.1253 9 16.3651 8.91987 16.6055 8.62988C16.8359 8.35192 17 7.95094 17 7.5Z" fill="#262626"/>
<path d="M12.5586 13C13.8498 13 14.996 13.8268 15.4043 15.0518L16.9482 19.6836C17.1228 20.2074 16.8401 20.7735 16.3164 20.9482C15.8251 21.112 15.2968 20.8735 15.0889 20.4111L15.0517 20.3164L13.5068 15.6836C13.3706 15.2754 12.9889 15 12.5586 15H7.44139C7.0111 15 6.62933 15.2754 6.49315 15.6836L4.94823 20.3164C4.77347 20.8402 4.20743 21.1229 3.68358 20.9482C3.15982 20.7735 2.87713 20.2074 3.05174 19.6836L4.59569 15.0518C5.00402 13.8268 6.15015 13 7.44139 13H12.5586Z" fill="#262626"/>
<path d="M18 14C19.0466 14 19.9591 14.7122 20.2129 15.7275L20.9697 18.7578L20.9902 18.8574C21.0631 19.3592 20.7446 19.8441 20.2422 19.9697C19.7401 20.0951 19.2316 19.8174 19.0596 19.3408L19.0303 19.2422L18.2725 16.2129C18.2412 16.0879 18.1288 16 18 16C17.4477 16 17 15.5523 17 15C17 14.4477 17.4477 14 18 14Z" fill="#262626"/>
</svg>
