<svg width="24" height="24" viewBox="0 0 24 24" fill="none" xmlns="http://www.w3.org/2000/svg">
<path d="M5 19H19V14.8252C19.3131 14.936 19.6489 15 20 15C20.3511 15 20.6869 14.936 21 14.8252V19C21 20.1046 20.1046 21 19 21H5C3.89543 21 3 20.1046 3 19V14.8252C3.31314 14.936 3.64888 15 4 15C4.35112 15 4.68686 14.936 5 14.8252V19Z" fill="#262626"/>
<path d="M19 3C20.1046 3 21 3.89543 21 5V9.17383C20.6869 9.06306 20.351 9 20 9C19.649 9 19.3131 9.06306 19 9.17383V5H5V9.17383C4.68694 9.06306 4.351 9 4 9C3.649 9 3.31306 9.06306 3 9.17383V5C3 3.89543 3.89543 3 5 3H19Z" fill="#262626"/>
<path d="M17 6V9H15V8H13V16H14V18H10V16H11V8H9V9H7V6H17Z" fill="#262626"/>
<circle cx="4" cy="12" r="2" fill="#262626"/>
<circle cx="20" cy="12" r="2" fill="#262626"/>
</svg>
