<svg width="24" height="24" viewBox="0 0 24 24" fill="none" xmlns="http://www.w3.org/2000/svg">
<path d="M17 19V21H7V19H17ZM19 17V7C19 5.89543 18.1046 5 17 5H7C5.89543 5 5 5.89543 5 7V17C5 18.1046 5.89543 19 7 19V21L6.79395 20.9951C4.68056 20.8879 3 19.14 3 17V7C3 4.79086 4.79086 3 7 3H17C19.2091 3 21 4.79086 21 7V17C21 19.2091 19.2091 21 17 21V19C18.1046 19 19 18.1046 19 17Z" fill="#262626"/>
<path d="M16.7715 17H14.2354L12.7109 14.4775C12.597 14.2861 12.4876 14.1152 12.3828 13.9648C12.278 13.8145 12.1709 13.6868 12.0615 13.582C11.9567 13.4727 11.8451 13.3906 11.7266 13.3359C11.6126 13.2767 11.4873 13.2471 11.3506 13.2471H10.7559V17H8.54785V7.19727H12.0479C14.4268 7.19727 15.6162 8.08594 15.6162 9.86328C15.6162 10.2051 15.5638 10.5218 15.459 10.8135C15.3542 11.1006 15.2061 11.3604 15.0146 11.5928C14.8232 11.8252 14.5908 12.0257 14.3174 12.1943C14.0485 12.363 13.7477 12.4951 13.415 12.5908V12.6182C13.5609 12.6637 13.7021 12.7389 13.8389 12.8438C13.9756 12.944 14.1077 13.0625 14.2354 13.1992C14.363 13.3359 14.4837 13.484 14.5977 13.6436C14.7161 13.7985 14.8232 13.9512 14.9189 14.1016L16.7715 17ZM10.7559 8.85156V11.5791H11.7129C12.1868 11.5791 12.5674 11.4424 12.8545 11.1689C13.1462 10.891 13.292 10.5469 13.292 10.1367C13.292 9.27995 12.7793 8.85156 11.7539 8.85156H10.7559Z" fill="#262626"/>
</svg>
