<svg width="24" height="24" viewBox="0 0 24 24" fill="none" xmlns="http://www.w3.org/2000/svg">
<rect x="3" y="2" width="8" height="6" rx="2" fill="#262626"/>
<path d="M6 9V4C6 3.44772 6.44772 3 7 3C7.55228 3 8 3.44772 8 4V9C8 9.55228 8.44772 10 9 10H13C13.5523 10 14 10.4477 14 11C14 11.5523 13.5523 12 13 12H9C7.34315 12 6 10.6569 6 9Z" fill="#262626"/>
<path d="M6 17V9C6 8.44772 6.44772 8 7 8C7.55228 8 8 8.44772 8 9V17C8 17.5523 8.44772 18 9 18H13C13.5523 18 14 18.4477 14 19C14 19.5523 13.5523 20 13 20H9C7.34315 20 6 18.6569 6 17Z" fill="#262626"/>
<rect x="13" y="8" width="8" height="6" rx="2" fill="#262626"/>
<rect x="13" y="16" width="8" height="6" rx="2" fill="#262626"/>
</svg>
