<svg width="24" height="24" viewBox="0 0 24 24" fill="none" xmlns="http://www.w3.org/2000/svg">
<path d="M16 6V11.0692C16 11.6949 15.9071 12.2513 15.7213 12.7385C15.541 13.2256 15.2787 13.6359 14.9344 13.9692C14.5847 14.3077 14.1585 14.5641 13.6557 14.7385C13.1585 14.9128 12.6393 15 12 15C11.3989 15 10.806 14.9128 10.3197 14.7385C9.8388 14.5641 9.42623 14.3103 9.08197 13.9769C8.7377 13.6436 8.46995 13.2333 8.27869 12.7462C8.0929 12.2538 8 11.6949 8 11.0692L8.01639 6H10.3197L10.3197 10.7969C10.3251 11.1712 10.3634 11.4994 10.4344 11.7815C10.5109 12.0635 10.623 12.2969 10.7705 12.4815C10.9071 12.6507 11.0738 12.7789 11.2705 12.8661C11.4672 12.9482 11.7432 13 12 13C12.2787 13 12.4918 12.9456 12.7049 12.8584C12.9235 12.7661 13.1038 12.6302 13.2459 12.4507C13.3989 12.2661 13.5137 12.0353 13.5902 11.7584C13.6667 11.4815 13.7077 11.161 13.7131 10.7969L13.7131 6H16Z" fill="#262626"/>
<rect x="8" y="16" width="8" height="2" fill="#262626"/>
</svg>
