<svg width="24" height="24" viewBox="0 0 24 24" fill="none" xmlns="http://www.w3.org/2000/svg">
<path d="M15 17.9999V13.9999C15 12.1952 13.5427 11.0456 11.9707 10.9999H9.41406L10.707 12.2929L10.7754 12.3691C11.0957 12.7618 11.0731 13.3408 10.707 13.707C10.3409 14.0731 9.76191 14.0957 9.36914 13.7753L9.29297 13.707L5.58594 9.99992L9.29297 6.29289C9.68349 5.90237 10.3165 5.90237 10.707 6.29289C11.0976 6.68342 11.0976 7.31643 10.707 7.70696L9.41406 8.99992C10.6903 8.99982 12.0014 8.99911 12.0293 8.99992C14.4574 9.07063 17 10.9012 17 13.9999V17.9999C17 18.5522 16.5523 18.9999 16 18.9999C15.4477 18.9999 15 18.5522 15 17.9999Z" fill="#262626"/>
</svg>
