<svg width="24" height="24" viewBox="0 0 24 24" fill="none" xmlns="http://www.w3.org/2000/svg">
<path d="M5 15.9998C5 15.4475 5.44772 14.9998 6 14.9998C6.55228 14.9998 7 15.4475 7 15.9998V17.9998H17V15.9998C17 15.4475 17.4477 14.9998 18 14.9998C18.5523 14.9998 19 15.4475 19 15.9998V18.9998C19 19.5521 18.5523 19.9998 18 19.9998H6C5.44772 19.9998 5 19.5521 5 18.9998V15.9998ZM11 14.9998V7.41383L7.70703 10.7068C7.31651 11.0973 6.68349 11.0973 6.29297 10.7068C5.90244 10.3163 5.90244 9.68326 6.29297 9.29273L11.293 4.29273L11.3691 4.22438C11.7619 3.90402 12.3409 3.92662 12.707 4.29273L17.707 9.29273L17.7754 9.36891C18.0957 9.76168 18.0731 10.3407 17.707 10.7068C17.3409 11.0729 16.7619 11.0955 16.3691 10.7752L16.293 10.7068L13 7.41383V14.9998C13 15.5521 12.5523 15.9998 12 15.9998C11.4477 15.9998 11 15.5521 11 14.9998Z" fill="#262626"/>
</svg>
