<svg width="24" height="24" viewBox="0 0 24 24" fill="none" xmlns="http://www.w3.org/2000/svg">
<path d="M16 19H8V17H16V19ZM20 16H18V8H20V16ZM6 16H4V8H6V16ZM16 6H8V4H16V6Z" fill="#262626"/>
<path d="M8.25525 9.29728C8.15852 8.42672 9.1484 7.8613 9.84914 8.38685L13.6 11.2C14.3688 11.7766 13.961 13 13 13H11.9684C11.6716 13 11.3901 13.1318 11.2002 13.3598L10.5029 14.1966C9.93867 14.8736 8.83808 14.5427 8.74076 13.6668L8.25525 9.29728Z" fill="#262626"/>
<rect x="3" y="3" width="4" height="4" stroke="#262626" stroke-width="2"/>
<rect x="3" y="17" width="4" height="4" stroke="#262626" stroke-width="2"/>
<rect x="17" y="3" width="4" height="4" stroke="#262626" stroke-width="2"/>
<rect x="17" y="17" width="4" height="4" stroke="#262626" stroke-width="2"/>
</svg>
