<?xml version="1.0" encoding="UTF-8"?>
<svg xmlns="http://www.w3.org/2000/svg" xmlns:xlink="http://www.w3.org/1999/xlink" width="16px" height="16px" viewBox="0 0 16 16" version="1.1">
<g id="surface1">
<path style=" stroke:none;fill-rule:nonzero;fill:rgb(84.313726%,32.941177%,11.372549%);fill-opacity:1;" d="M 8.242188 0.242188 C 8.546875 0.394531 8.808594 0.542969 9.089844 0.726562 C 9.25 0.820312 9.410156 0.910156 9.566406 1 C 9.691406 1.070312 9.8125 1.140625 9.9375 1.210938 C 9.9375 1.292969 9.9375 1.371094 9.9375 1.453125 C 10.027344 1.484375 10.113281 1.515625 10.199219 1.546875 C 10.707031 1.769531 11.109375 2.105469 11.550781 2.4375 C 11.859375 2.675781 11.859375 2.675781 12.1875 2.78125 C 12.578125 2.949219 12.792969 3.210938 13.089844 3.515625 C 13.339844 3.695312 13.597656 3.871094 13.855469 4.039062 C 13.984375 4.121094 14.113281 4.207031 14.25 4.292969 C 14.347656 4.355469 14.445312 4.421875 14.546875 4.484375 C 14.585938 4.445312 14.625 4.40625 14.667969 4.363281 C 14.910156 4.359375 15.152344 4.359375 15.394531 4.363281 C 15.394531 4.605469 15.394531 4.84375 15.394531 5.089844 C 15.273438 5.152344 15.273438 5.152344 15.152344 5.210938 C 15.273438 5.871094 15.273438 5.871094 15.394531 6.546875 C 15.59375 6.546875 15.792969 6.546875 16 6.546875 C 16 6.785156 16 7.027344 16 7.273438 C 15.839844 7.273438 15.679688 7.273438 15.515625 7.273438 C 15.496094 7.378906 15.496094 7.378906 15.480469 7.484375 C 15.320312 8.351562 15.066406 9.167969 14.78125 10 C 14.734375 10.132812 14.691406 10.261719 14.648438 10.398438 C 14.324219 11.351562 14.324219 11.351562 14.183594 11.636719 C 14.34375 11.636719 14.5 11.636719 14.667969 11.636719 C 14.667969 11.875 14.667969 12.117188 14.667969 12.363281 C 14.386719 12.363281 14.105469 12.363281 13.816406 12.363281 C 13.796875 12.515625 13.796875 12.515625 13.773438 12.675781 C 13.695312 13.109375 13.582031 13.515625 13.453125 13.9375 C 13.375 13.9375 13.292969 13.9375 13.210938 13.9375 C 13.191406 14.046875 13.191406 14.046875 13.167969 14.15625 C 13.035156 14.667969 12.894531 15.070312 12.46875 15.402344 C 11.675781 15.824219 10.6875 15.6875 9.816406 15.636719 C 9.734375 15.632812 9.65625 15.625 9.570312 15.621094 C 9.210938 15.597656 8.851562 15.574219 8.492188 15.542969 C 8.125 15.515625 7.761719 15.511719 7.394531 15.515625 C 7.394531 15.59375 7.394531 15.675781 7.394531 15.757812 C 7.164062 15.703125 7.164062 15.703125 6.933594 15.644531 C 6.390625 15.53125 5.875 15.503906 5.328125 15.492188 C 4.417969 15.472656 3.710938 15.449219 2.957031 14.878906 C 2.742188 14.609375 2.71875 14.398438 2.667969 14.0625 C 2.597656 13.878906 2.523438 13.695312 2.445312 13.515625 C 2.082031 12.632812 1.796875 11.714844 1.574219 10.789062 C 1.496094 10.789062 1.414062 10.789062 1.332031 10.789062 C 1.320312 10.710938 1.308594 10.632812 1.296875 10.554688 C 1.269531 10.46875 1.242188 10.386719 1.210938 10.304688 C 1.09375 10.261719 0.972656 10.222656 0.847656 10.183594 C 0.859375 9.996094 0.859375 9.996094 0.867188 9.808594 C 0.847656 9.300781 0.734375 8.960938 0.546875 8.492188 C 0.117188 7.335938 0.183594 6.496094 0.605469 5.332031 C 0.855469 4.828125 1.113281 4.59375 1.589844 4.296875 C 2.34375 3.816406 3.070312 3.304688 3.792969 2.78125 C 3.878906 2.722656 3.960938 2.660156 4.050781 2.597656 C 4.125 2.542969 4.199219 2.492188 4.277344 2.433594 C 4.484375 2.304688 4.484375 2.304688 4.847656 2.183594 C 4.847656 2.101562 4.847656 2.023438 4.847656 1.9375 C 5.378906 1.574219 5.378906 1.574219 5.695312 1.574219 C 5.695312 1.496094 5.695312 1.414062 5.695312 1.332031 C 5.820312 1.265625 5.941406 1.199219 6.066406 1.128906 C 6.394531 0.945312 6.679688 0.746094 6.96875 0.515625 C 7.402344 0.203125 7.703125 0.15625 8.242188 0.242188 Z M 8.242188 0.242188 "/>
<path style=" stroke:none;fill-rule:nonzero;fill:rgb(41.176471%,11.764706%,10.196079%);fill-opacity:1;" d="M 7.757812 3.878906 C 8.210938 3.90625 8.46875 4.066406 8.824219 4.324219 C 9.179688 4.5625 9.179688 4.5625 9.59375 4.59375 C 9.832031 4.527344 10.070312 4.445312 10.304688 4.363281 C 10.464844 4.363281 10.621094 4.363281 10.789062 4.363281 C 10.746094 4.476562 10.707031 4.589844 10.667969 4.703125 C 10.527344 5.082031 10.527344 5.082031 10.546875 5.453125 C 11.03125 5.894531 11.59375 6.1875 12.21875 6.371094 C 12.714844 6.515625 12.9375 6.703125 13.210938 7.152344 C 13.390625 7.507812 13.367188 7.71875 13.332031 8.121094 C 13.253906 8.34375 13.171875 8.5625 13.082031 8.78125 C 12.769531 9.59375 12.882812 10.121094 13.210938 10.910156 C 13.210938 11.027344 13.210938 11.148438 13.210938 11.273438 C 12.851562 11.234375 12.492188 11.191406 12.121094 11.152344 C 12.09375 11.265625 12.09375 11.265625 12.0625 11.378906 C 11.621094 12.988281 11.621094 12.988281 11.152344 13.453125 C 10.808594 13.542969 10.5 13.554688 10.144531 13.554688 C 9.808594 13.578125 9.652344 13.632812 9.371094 13.8125 C 8.703125 14.226562 8.078125 14.378906 7.289062 14.25 C 6.695312 14.097656 6.074219 13.898438 5.585938 13.515625 C 5.332031 13.308594 5.332031 13.308594 4.960938 13.234375 C 4.605469 13.089844 4.605469 13.089844 4.414062 12.777344 C 4.371094 12.65625 4.328125 12.53125 4.28125 12.402344 C 4.230469 12.269531 4.183594 12.140625 4.132812 12.007812 C 4.089844 11.882812 4.046875 11.761719 4 11.636719 C 3.773438 11.042969 3.773438 11.042969 3.394531 10.546875 C 3.070312 10.476562 2.753906 10.457031 2.425781 10.425781 C 2.070312 9.640625 1.996094 8.820312 2.261719 7.992188 C 2.660156 6.988281 3.125 6.082031 4.121094 5.574219 C 4.199219 5.53125 4.273438 5.488281 4.355469 5.441406 C 4.652344 5.3125 4.882812 5.304688 5.203125 5.296875 C 5.820312 5.246094 6.003906 5.066406 6.425781 4.605469 C 6.738281 4.429688 7.054688 4.273438 7.378906 4.125 C 7.628906 4.019531 7.628906 4.019531 7.757812 3.878906 Z M 7.757812 3.878906 "/>
<path style=" stroke:none;fill-rule:nonzero;fill:rgb(82.352942%,30.588236%,12.156863%);fill-opacity:1;" d="M 9.695312 5.332031 C 9.617188 5.851562 9.535156 6.375 9.453125 6.910156 C 9.613281 6.90625 9.777344 6.902344 9.941406 6.902344 C 10.152344 6.898438 10.363281 6.894531 10.574219 6.894531 C 10.734375 6.890625 10.734375 6.890625 10.894531 6.886719 C 11 6.886719 11.101562 6.886719 11.207031 6.886719 C 11.300781 6.882812 11.394531 6.882812 11.492188 6.882812 C 11.789062 6.914062 11.984375 7.003906 12.242188 7.152344 C 12.15625 7.21875 12.066406 7.285156 11.976562 7.355469 C 11.863281 7.449219 11.753906 7.542969 11.636719 7.636719 C 11.519531 7.730469 11.40625 7.820312 11.289062 7.917969 C 10.992188 8.226562 10.992188 8.226562 11 8.660156 C 11.179688 9.164062 11.375 9.320312 11.792969 9.636719 C 12.085938 9.894531 12.21875 10.1875 12.363281 10.546875 C 11.964844 10.625 11.5625 10.707031 11.152344 10.789062 C 10.992188 10.507812 10.832031 10.226562 10.667969 9.9375 C 10.671875 10.011719 10.679688 10.085938 10.6875 10.160156 C 10.734375 11.027344 10.554688 11.648438 10.0625 12.363281 C 9.800781 12.644531 9.53125 12.878906 9.210938 13.089844 C 9.144531 13.136719 9.078125 13.183594 9.007812 13.230469 C 8.585938 13.386719 8.167969 13.359375 7.726562 13.347656 C 7.636719 13.347656 7.546875 13.347656 7.453125 13.34375 C 7.230469 13.34375 7.011719 13.339844 6.789062 13.332031 C 7.085938 13.132812 7.363281 12.976562 7.6875 12.824219 C 7.78125 12.78125 7.875 12.738281 7.96875 12.691406 C 8.277344 12.59375 8.425781 12.621094 8.726562 12.726562 C 8.703125 12.636719 8.675781 12.542969 8.652344 12.445312 C 8.605469 12.121094 8.605469 12.121094 8.847656 11.757812 C 9.207031 11.816406 9.207031 11.816406 9.574219 11.878906 C 9.378906 11.5 9.378906 11.5 9.074219 11.433594 C 9 11.417969 8.925781 11.40625 8.847656 11.394531 C 8.808594 11.195312 8.769531 10.992188 8.726562 10.789062 C 9.007812 10.667969 9.289062 10.546875 9.574219 10.425781 C 9.203125 10.359375 8.863281 10.304688 8.484375 10.304688 C 8.542969 9.925781 8.605469 9.578125 8.726562 9.210938 C 8.421875 9.4375 8.363281 9.582031 8.265625 9.953125 C 8.246094 10.367188 8.273438 10.597656 8.378906 10.984375 C 8.472656 11.367188 8.496094 11.480469 8.363281 11.863281 C 8.070312 12.175781 7.789062 12.324219 7.394531 12.484375 C 7.3125 12.484375 7.234375 12.484375 7.152344 12.484375 C 7.105469 12.335938 7.0625 12.191406 7.015625 12.039062 C 6.808594 11.496094 6.570312 11.210938 6.0625 10.910156 C 5.777344 10.882812 5.507812 10.894531 5.226562 10.910156 C 4.847656 10.910156 4.648438 10.789062 4.363281 10.546875 C 4.144531 10.21875 4.144531 10.21875 4 9.9375 C 4.082031 9.925781 4.164062 9.910156 4.25 9.894531 C 4.410156 9.863281 4.410156 9.863281 4.574219 9.832031 C 4.734375 9.804688 4.734375 9.804688 4.898438 9.773438 C 5.195312 9.699219 5.429688 9.601562 5.695312 9.453125 C 5.765625 9.515625 5.835938 9.574219 5.910156 9.636719 C 6.195312 9.863281 6.195312 9.863281 6.667969 9.816406 C 6.667969 9.898438 6.667969 9.976562 6.667969 10.0625 C 6.828125 10.0625 6.988281 10.0625 7.152344 10.0625 C 7.070312 9.980469 6.992188 9.902344 6.910156 9.816406 C 6.859375 9.578125 6.820312 9.335938 6.789062 9.089844 C 6.621094 9.164062 6.621094 9.164062 6.453125 9.234375 C 6.0625 9.332031 6.0625 9.332031 5.773438 9.167969 C 5.707031 9.101562 5.644531 9.035156 5.574219 8.96875 C 5.53125 9.046875 5.484375 9.125 5.4375 9.207031 C 5.210938 9.453125 5.210938 9.453125 4.878906 9.523438 C 4.691406 9.53125 4.691406 9.53125 4.5 9.539062 C 4.035156 9.558594 3.605469 9.59375 3.152344 9.695312 C 2.960938 9.3125 2.996094 8.902344 3.03125 8.484375 C 3.152344 8.183594 3.152344 8.183594 3.273438 8 C 3.351562 8 3.433594 8 3.515625 8 C 3.507812 7.890625 3.5 7.785156 3.492188 7.675781 C 3.519531 7.210938 3.59375 7.027344 3.878906 6.667969 C 4.519531 6.183594 4.519531 6.183594 4.847656 6.183594 C 4.839844 6.257812 4.835938 6.332031 4.828125 6.40625 C 4.8125 6.707031 4.808594 6.976562 4.847656 7.273438 C 5.167969 7.582031 5.394531 7.625 5.824219 7.703125 C 5.941406 7.683594 6.0625 7.660156 6.183594 7.636719 C 6.246094 7.515625 6.3125 7.394531 6.378906 7.273438 C 6.667969 6.910156 6.667969 6.910156 7.019531 6.859375 C 7.390625 6.863281 7.753906 6.878906 8.121094 6.910156 C 7.820312 6.789062 7.820312 6.789062 7.515625 6.667969 C 8.019531 5.945312 8.777344 5.332031 9.695312 5.332031 Z M 9.695312 5.332031 "/>
<path style=" stroke:none;fill-rule:nonzero;fill:rgb(0.784314%,0.392157%,0.392157%);fill-opacity:1;" d="M 8.242188 0.242188 C 8.546875 0.394531 8.808594 0.542969 9.089844 0.726562 C 9.25 0.820312 9.410156 0.910156 9.566406 1 C 9.691406 1.070312 9.8125 1.140625 9.9375 1.210938 C 9.9375 1.292969 9.9375 1.371094 9.9375 1.453125 C 10.027344 1.484375 10.113281 1.515625 10.199219 1.546875 C 10.707031 1.769531 11.109375 2.105469 11.550781 2.4375 C 11.859375 2.675781 11.859375 2.675781 12.1875 2.78125 C 12.578125 2.949219 12.792969 3.210938 13.089844 3.515625 C 13.339844 3.695312 13.597656 3.871094 13.855469 4.039062 C 13.984375 4.121094 14.113281 4.207031 14.25 4.292969 C 14.347656 4.355469 14.445312 4.421875 14.546875 4.484375 C 14.585938 4.445312 14.625 4.40625 14.667969 4.363281 C 14.910156 4.359375 15.152344 4.359375 15.394531 4.363281 C 15.394531 4.605469 15.394531 4.84375 15.394531 5.089844 C 15.273438 5.152344 15.273438 5.152344 15.152344 5.210938 C 15.273438 5.871094 15.273438 5.871094 15.394531 6.546875 C 15.59375 6.546875 15.792969 6.546875 16 6.546875 C 16 6.785156 16 7.027344 16 7.273438 C 15.839844 7.273438 15.679688 7.273438 15.515625 7.273438 C 15.496094 7.378906 15.496094 7.378906 15.480469 7.484375 C 15.320312 8.351562 15.066406 9.167969 14.78125 10 C 14.734375 10.132812 14.691406 10.261719 14.648438 10.398438 C 14.324219 11.351562 14.324219 11.351562 14.183594 11.636719 C 14.34375 11.636719 14.5 11.636719 14.667969 11.636719 C 14.667969 11.875 14.667969 12.117188 14.667969 12.363281 C 14.386719 12.363281 14.105469 12.363281 13.816406 12.363281 C 13.796875 12.515625 13.796875 12.515625 13.773438 12.675781 C 13.695312 13.109375 13.582031 13.515625 13.453125 13.9375 C 13.375 13.9375 13.292969 13.9375 13.210938 13.9375 C 13.191406 14.046875 13.191406 14.046875 13.167969 14.15625 C 13.035156 14.667969 12.894531 15.070312 12.46875 15.402344 C 11.675781 15.824219 10.6875 15.6875 9.816406 15.636719 C 9.734375 15.632812 9.65625 15.625 9.570312 15.621094 C 9.210938 15.597656 8.851562 15.574219 8.492188 15.542969 C 8.125 15.515625 7.761719 15.511719 7.394531 15.515625 C 7.394531 15.59375 7.394531 15.675781 7.394531 15.757812 C 7.164062 15.703125 7.164062 15.703125 6.933594 15.644531 C 6.390625 15.53125 5.875 15.503906 5.328125 15.492188 C 4.417969 15.472656 3.710938 15.449219 2.957031 14.878906 C 2.742188 14.609375 2.71875 14.398438 2.667969 14.0625 C 2.597656 13.878906 2.523438 13.695312 2.445312 13.515625 C 2.082031 12.632812 1.796875 11.714844 1.574219 10.789062 C 1.496094 10.789062 1.414062 10.789062 1.332031 10.789062 C 1.320312 10.710938 1.308594 10.632812 1.296875 10.554688 C 1.269531 10.46875 1.242188 10.386719 1.210938 10.304688 C 1.09375 10.261719 0.972656 10.222656 0.847656 10.183594 C 0.859375 9.996094 0.859375 9.996094 0.867188 9.808594 C 0.847656 9.300781 0.734375 8.960938 0.546875 8.492188 C 0.117188 7.335938 0.183594 6.496094 0.605469 5.332031 C 0.855469 4.828125 1.113281 4.59375 1.589844 4.296875 C 2.34375 3.816406 3.070312 3.304688 3.792969 2.78125 C 3.878906 2.722656 3.960938 2.660156 4.050781 2.597656 C 4.125 2.542969 4.199219 2.492188 4.277344 2.433594 C 4.484375 2.304688 4.484375 2.304688 4.847656 2.183594 C 4.847656 2.101562 4.847656 2.023438 4.847656 1.9375 C 5.378906 1.574219 5.378906 1.574219 5.695312 1.574219 C 5.695312 1.496094 5.695312 1.414062 5.695312 1.332031 C 5.820312 1.265625 5.941406 1.199219 6.066406 1.128906 C 6.394531 0.945312 6.679688 0.746094 6.96875 0.515625 C 7.402344 0.203125 7.703125 0.15625 8.242188 0.242188 Z M 6.9375 0.769531 C 6.859375 0.828125 6.785156 0.890625 6.703125 0.953125 C 6.585938 1.050781 6.585938 1.050781 6.460938 1.152344 C 6.289062 1.285156 6.117188 1.421875 5.945312 1.554688 C 5.863281 1.621094 5.777344 1.6875 5.691406 1.757812 C 5.375 2 5.046875 2.222656 4.710938 2.4375 C 4.101562 2.835938 3.507812 3.253906 2.921875 3.679688 C 2.597656 3.914062 2.269531 4.140625 1.933594 4.359375 C 1.773438 4.46875 1.773438 4.46875 1.605469 4.574219 C 1.464844 4.664062 1.464844 4.664062 1.320312 4.753906 C 0.769531 5.269531 0.734375 6.183594 0.691406 6.894531 C 0.71875 7.890625 1.21875 8.828125 1.605469 9.726562 C 1.734375 10.03125 1.859375 10.335938 1.984375 10.640625 C 2.066406 10.832031 2.148438 11.027344 2.230469 11.222656 C 2.46875 11.796875 2.679688 12.371094 2.839844 12.976562 C 3.03125 13.628906 3.332031 14.253906 3.878906 14.667969 C 4.289062 14.75 4.703125 14.757812 5.121094 14.765625 C 5.246094 14.773438 5.367188 14.777344 5.496094 14.78125 C 5.890625 14.796875 6.285156 14.808594 6.683594 14.816406 C 6.941406 14.828125 7.199219 14.835938 7.460938 14.847656 C 8.089844 14.867188 8.71875 14.886719 9.34375 14.902344 C 9.574219 14.90625 9.804688 14.910156 10.03125 14.917969 C 10.335938 14.925781 10.636719 14.933594 10.9375 14.9375 C 11.070312 14.941406 11.070312 14.941406 11.203125 14.945312 C 11.734375 14.949219 12.066406 14.878906 12.484375 14.546875 C 12.644531 14.25 12.769531 13.980469 12.886719 13.667969 C 12.921875 13.578125 12.957031 13.488281 12.992188 13.394531 C 13.378906 12.398438 13.726562 11.386719 14.066406 10.375 C 14.210938 9.953125 14.363281 9.542969 14.53125 9.132812 C 15.082031 7.765625 15.125 6.636719 14.828125 5.1875 C 14.609375 4.730469 14.289062 4.527344 13.871094 4.265625 C 13.695312 4.148438 13.519531 4.035156 13.347656 3.917969 C 13.199219 3.824219 13.199219 3.824219 13.050781 3.726562 C 12.421875 3.316406 11.804688 2.886719 11.183594 2.460938 C 10.8125 2.210938 10.4375 1.957031 10.066406 1.707031 C 9.8125 1.53125 9.558594 1.355469 9.308594 1.175781 C 9.183594 1.085938 9.058594 1 8.929688 0.90625 C 8.816406 0.824219 8.707031 0.746094 8.589844 0.660156 C 8.011719 0.367188 7.453125 0.351562 6.9375 0.769531 Z M 6.9375 0.769531 "/>
<path style=" stroke:none;fill-rule:nonzero;fill:rgb(41.960785%,13.333334%,14.117648%);fill-opacity:1;" d="M 8.242188 0.484375 C 8.589844 0.660156 8.589844 0.660156 8.929688 0.90625 C 9.054688 0.996094 9.179688 1.085938 9.308594 1.175781 C 9.5 1.3125 9.5 1.3125 9.695312 1.453125 C 9.941406 1.621094 10.1875 1.789062 10.433594 1.953125 C 10.816406 2.210938 11.199219 2.472656 11.578125 2.734375 C 12.164062 3.132812 12.75 3.53125 13.347656 3.917969 C 13.4375 3.980469 13.527344 4.039062 13.617188 4.097656 C 13.78125 4.207031 13.945312 4.3125 14.109375 4.414062 C 14.601562 4.742188 14.792969 4.996094 14.910156 5.574219 C 14.917969 5.859375 14.921875 6.140625 14.910156 6.425781 C 14.53125 6.25 14.21875 6.039062 13.886719 5.789062 C 13.199219 5.285156 12.5 4.800781 11.796875 4.324219 C 11.6875 4.25 11.578125 4.175781 11.46875 4.101562 C 10.988281 3.78125 10.546875 3.496094 9.996094 3.3125 C 9.574219 3.152344 9.574219 3.152344 9.425781 2.910156 C 9.394531 2.832031 9.363281 2.75 9.332031 2.667969 C 9.097656 2.453125 9.097656 2.453125 8.816406 2.273438 C 8.726562 2.210938 8.636719 2.144531 8.542969 2.082031 C 8.167969 1.902344 7.929688 1.886719 7.515625 1.9375 C 7.230469 2.105469 7.230469 2.105469 6.976562 2.347656 C 6.480469 2.773438 5.972656 3.144531 5.425781 3.5 C 4.714844 3.964844 4.019531 4.445312 3.339844 4.953125 C 2.992188 5.207031 2.71875 5.351562 2.304688 5.453125 C 2.261719 5.574219 2.222656 5.695312 2.183594 5.816406 C 1.945312 5.949219 1.699219 6.066406 1.453125 6.183594 C 1.25 6.300781 1.050781 6.421875 0.847656 6.546875 C 0.808594 5.910156 0.871094 5.394531 1.210938 4.847656 C 1.488281 4.625 1.730469 4.449219 2.03125 4.273438 C 2.195312 4.167969 2.359375 4.066406 2.523438 3.960938 C 2.609375 3.90625 2.691406 3.855469 2.777344 3.800781 C 3.183594 3.539062 3.566406 3.25 3.953125 2.960938 C 4.652344 2.445312 5.359375 1.945312 6.078125 1.457031 C 6.453125 1.191406 6.808594 0.910156 7.15625 0.605469 C 7.527344 0.417969 7.832031 0.453125 8.242188 0.484375 Z M 8.242188 0.484375 "/>
<path style=" stroke:none;fill-rule:nonzero;fill:rgb(62.7451%,20.784314%,25.098041%);fill-opacity:1;" d="M 14.546875 8.242188 C 14.703125 8.683594 14.625 8.9375 14.464844 9.371094 C 14.417969 9.496094 14.375 9.621094 14.328125 9.75 C 14.277344 9.882812 14.226562 10.015625 14.175781 10.152344 C 14.125 10.289062 14.074219 10.421875 14.023438 10.5625 C 13.875 10.960938 13.726562 11.359375 13.574219 11.757812 C 13.5 11.957031 13.425781 12.160156 13.355469 12.359375 C 13.1875 12.804688 13.023438 13.253906 12.847656 13.695312 C 12.792969 13.847656 12.742188 13.996094 12.683594 14.152344 C 12.453125 14.605469 12.335938 14.699219 11.878906 14.910156 C 11.554688 14.9375 11.261719 14.945312 10.9375 14.9375 C 10.84375 14.933594 10.75 14.933594 10.652344 14.933594 C 10.335938 14.925781 10.015625 14.917969 9.695312 14.910156 C 9.460938 14.902344 9.222656 14.898438 8.984375 14.894531 C 8.347656 14.882812 7.714844 14.859375 7.078125 14.839844 C 6.816406 14.828125 6.554688 14.824219 6.289062 14.816406 C 5.90625 14.804688 5.519531 14.792969 5.132812 14.777344 C 5.015625 14.777344 4.898438 14.773438 4.777344 14.773438 C 4.226562 14.746094 3.957031 14.726562 3.507812 14.382812 C 3.226562 14 3.082031 13.640625 2.933594 13.1875 C 2.882812 13.039062 2.832031 12.890625 2.777344 12.738281 C 2.667969 12.363281 2.667969 12.363281 2.667969 12.121094 C 3.046875 12.117188 3.394531 12.132812 3.757812 12.242188 C 3.871094 12.445312 3.984375 12.652344 4.078125 12.867188 C 4.566406 13.535156 5.78125 13.746094 6.546875 13.9375 C 6.679688 13.988281 6.816406 14.035156 6.953125 14.082031 C 7.945312 14.304688 8.800781 14.003906 9.695312 13.574219 C 9.738281 13.535156 9.777344 13.496094 9.816406 13.453125 C 10.042969 13.425781 10.265625 13.40625 10.492188 13.386719 C 10.613281 13.375 10.738281 13.367188 10.863281 13.355469 C 11.007812 13.34375 11.007812 13.34375 11.152344 13.332031 C 11.484375 12.609375 11.8125 11.886719 12.121094 11.152344 C 12.9375 11.136719 12.9375 11.136719 13.210938 11.273438 C 13.175781 11.1875 13.140625 11.101562 13.105469 11.015625 C 13.0625 10.90625 13.015625 10.796875 12.96875 10.683594 C 12.925781 10.570312 12.878906 10.460938 12.832031 10.347656 C 12.726562 10.0625 12.726562 10.0625 12.726562 9.816406 C 12.808594 9.816406 12.886719 9.816406 12.96875 9.816406 C 12.96875 9.738281 12.96875 9.65625 12.96875 9.574219 C 13.089844 9.574219 13.210938 9.574219 13.332031 9.574219 C 13.214844 9.394531 13.214844 9.394531 13.089844 9.210938 C 13.089844 8.960938 13.089844 8.960938 13.210938 8.726562 C 13.546875 8.589844 13.546875 8.589844 13.9375 8.484375 C 14.140625 8.40625 14.34375 8.324219 14.546875 8.242188 Z M 14.546875 8.242188 "/>
<path style=" stroke:none;fill-rule:nonzero;fill:rgb(85.882354%,46.666667%,12.54902%);fill-opacity:1;" d="M 7.84375 1.78125 C 8.335938 1.828125 8.558594 1.984375 8.953125 2.28125 C 9.128906 2.410156 9.128906 2.410156 9.308594 2.539062 C 9.441406 2.664062 9.441406 2.664062 9.574219 2.789062 C 9.574219 2.90625 9.574219 3.027344 9.574219 3.152344 C 9.644531 3.171875 9.710938 3.191406 9.78125 3.210938 C 10.480469 3.425781 11.046875 3.714844 11.652344 4.121094 C 11.738281 4.179688 11.828125 4.238281 11.917969 4.296875 C 12.53125 4.707031 13.136719 5.132812 13.734375 5.566406 C 13.847656 5.648438 13.847656 5.648438 13.960938 5.734375 C 14.722656 6.296875 14.722656 6.296875 15.03125 6.667969 C 15.085938 7.25 15.085938 7.722656 14.789062 8.242188 C 14.53125 8.460938 14.53125 8.460938 14.304688 8.605469 C 14.304688 8.527344 14.304688 8.445312 14.304688 8.363281 C 14.234375 8.421875 14.167969 8.480469 14.097656 8.539062 C 13.796875 8.742188 13.570312 8.796875 13.210938 8.847656 C 13.273438 9.207031 13.273438 9.207031 13.332031 9.574219 C 13.214844 9.574219 13.09375 9.574219 12.96875 9.574219 C 12.96875 9.65625 12.96875 9.734375 12.96875 9.816406 C 12.890625 9.816406 12.808594 9.816406 12.726562 9.816406 C 12.933594 8.816406 12.933594 8.816406 13.105469 8.402344 C 13.246094 8.035156 13.261719 7.785156 13.210938 7.394531 C 12.953125 6.921875 12.695312 6.59375 12.242188 6.304688 C 12.5625 6.261719 12.882812 6.222656 13.210938 6.183594 C 13.210938 6.0625 13.210938 5.941406 13.210938 5.816406 C 12.570312 5.179688 11.832031 4.660156 11.027344 4.25 C 10.789062 4.121094 10.789062 4.121094 10.425781 3.855469 C 10.070312 3.644531 9.878906 3.59375 9.484375 3.53125 C 9.199219 3.476562 9.199219 3.476562 8.96875 3.394531 C 8.816406 3.03125 8.816406 3.03125 8.726562 2.667969 C 8.296875 2.402344 7.890625 2.351562 7.394531 2.425781 C 7.128906 2.605469 6.90625 2.8125 6.667969 3.03125 C 6.585938 3.03125 6.507812 3.03125 6.425781 3.03125 C 6.425781 3.109375 6.425781 3.191406 6.425781 3.273438 C 6.210938 3.421875 6.210938 3.421875 5.910156 3.589844 C 4.796875 4.238281 3.742188 4.96875 2.710938 5.738281 C 2.460938 5.914062 2.21875 6.054688 1.9375 6.183594 C 1.9375 6.261719 1.9375 6.34375 1.9375 6.425781 C 1.804688 6.453125 1.667969 6.484375 1.53125 6.515625 C 1.085938 6.621094 1.085938 6.621094 0.917969 6.925781 C 0.882812 7.035156 0.882812 7.035156 0.847656 7.152344 C 0.804688 6.886719 0.804688 6.886719 0.847656 6.546875 C 1.273438 6.121094 1.621094 5.910156 2.183594 5.695312 C 2.234375 5.644531 2.285156 5.589844 2.339844 5.535156 C 2.601562 5.277344 2.890625 5.09375 3.195312 4.894531 C 4.359375 4.128906 6.488281 1.933594 7.84375 1.78125 Z M 7.84375 1.78125 "/>
<path style=" stroke:none;fill-rule:nonzero;fill:rgb(79.607844%,25.490198%,12.54902%);fill-opacity:1;" d="M 12.242188 7.273438 C 12.132812 7.34375 12.023438 7.414062 11.910156 7.484375 C 11.417969 7.8125 11.417969 7.8125 11.03125 8.242188 C 10.980469 8.664062 10.980469 8.664062 11.152344 9.089844 C 11.351562 9.296875 11.5625 9.464844 11.792969 9.636719 C 12.085938 9.894531 12.21875 10.1875 12.363281 10.546875 C 11.964844 10.625 11.5625 10.707031 11.152344 10.789062 C 10.992188 10.507812 10.832031 10.226562 10.667969 9.9375 C 10.671875 10.011719 10.679688 10.085938 10.6875 10.160156 C 10.734375 11.027344 10.554688 11.648438 10.0625 12.363281 C 9.800781 12.644531 9.53125 12.878906 9.210938 13.089844 C 9.144531 13.136719 9.078125 13.183594 9.007812 13.230469 C 8.585938 13.386719 8.167969 13.359375 7.726562 13.347656 C 7.636719 13.347656 7.546875 13.347656 7.453125 13.34375 C 7.230469 13.34375 7.011719 13.339844 6.789062 13.332031 C 7.085938 13.132812 7.363281 12.976562 7.6875 12.824219 C 7.78125 12.78125 7.875 12.738281 7.96875 12.691406 C 8.277344 12.59375 8.425781 12.621094 8.726562 12.726562 C 8.703125 12.636719 8.675781 12.542969 8.652344 12.445312 C 8.605469 12.121094 8.605469 12.121094 8.847656 11.757812 C 9.089844 11.796875 9.328125 11.835938 9.574219 11.878906 C 9.378906 11.5 9.378906 11.5 9.074219 11.433594 C 9 11.417969 8.925781 11.40625 8.847656 11.394531 C 8.789062 11.09375 8.789062 11.09375 8.726562 10.789062 C 9.007812 10.667969 9.289062 10.546875 9.574219 10.425781 C 9.203125 10.359375 8.863281 10.304688 8.484375 10.304688 C 8.53125 9.648438 8.726562 9.398438 9.210938 8.96875 C 9.273438 8.894531 9.332031 8.820312 9.394531 8.742188 C 9.574219 8.605469 9.574219 8.605469 9.902344 8.644531 C 10.039062 8.683594 10.039062 8.683594 10.183594 8.726562 C 10.140625 8.488281 10.101562 8.246094 10.0625 8 C 10.152344 8.011719 10.242188 8.019531 10.332031 8.03125 C 10.761719 7.992188 10.867188 7.828125 11.152344 7.515625 C 11.230469 7.515625 11.3125 7.515625 11.394531 7.515625 C 11.394531 7.433594 11.394531 7.355469 11.394531 7.273438 C 11.757812 7.160156 11.863281 7.144531 12.242188 7.273438 Z M 12.242188 7.273438 "/>
<path style=" stroke:none;fill-rule:nonzero;fill:rgb(81.176472%,33.725491%,12.941177%);fill-opacity:1;" d="M 3.636719 4.96875 C 3.878906 5.210938 3.878906 5.210938 3.933594 5.5 C 3.878906 5.816406 3.878906 5.816406 3.605469 6.023438 C 3.191406 6.371094 2.988281 6.726562 2.75 7.203125 C 2.707031 7.289062 2.664062 7.375 2.621094 7.464844 C 2.15625 8.453125 2.195312 9.371094 2.425781 10.425781 C 2.574219 10.414062 2.722656 10.402344 2.878906 10.394531 C 3.226562 10.371094 3.359375 10.398438 3.648438 10.605469 C 4.015625 11.089844 4.136719 11.648438 4.296875 12.230469 C 4.445312 12.742188 4.445312 12.742188 4.808594 13.105469 C 5.019531 13.191406 5.238281 13.261719 5.453125 13.332031 C 5.75 13.597656 5.75 13.597656 5.9375 13.816406 C 5.222656 13.632812 4.574219 13.457031 4 12.96875 C 3.96875 12.863281 3.933594 12.757812 3.902344 12.652344 C 3.855469 12.554688 3.804688 12.460938 3.757812 12.363281 C 3.515625 12.3125 3.515625 12.3125 3.234375 12.289062 C 2.953125 12.238281 2.953125 12.238281 2.667969 12.121094 C 2.503906 11.875 2.503906 11.875 2.371094 11.554688 C 2.320312 11.433594 2.273438 11.3125 2.21875 11.1875 C 2.167969 11.054688 2.113281 10.925781 2.0625 10.789062 C 2.003906 10.648438 1.945312 10.511719 1.886719 10.371094 C 1.707031 9.929688 1.53125 9.488281 1.355469 9.046875 C 1.292969 8.894531 1.234375 8.742188 1.171875 8.589844 C 1.113281 8.445312 1.058594 8.296875 0.996094 8.148438 C 0.945312 8.019531 0.894531 7.886719 0.839844 7.753906 C 0.730469 7.40625 0.703125 7.148438 0.726562 6.789062 C 0.847656 6.847656 0.847656 6.847656 0.96875 6.910156 C 1.015625 6.851562 1.066406 6.792969 1.113281 6.734375 C 1.382812 6.503906 1.59375 6.472656 1.9375 6.425781 C 1.9375 6.34375 1.9375 6.265625 1.9375 6.183594 C 2.171875 5.988281 2.40625 5.808594 2.652344 5.628906 C 2.71875 5.578125 2.785156 5.527344 2.855469 5.476562 C 3.109375 5.289062 3.355469 5.109375 3.636719 4.96875 Z M 3.636719 4.96875 "/>
<path style=" stroke:none;fill-rule:nonzero;fill:rgb(78.431374%,24.313726%,12.941177%);fill-opacity:1;" d="M 7.03125 9.089844 C 7.332031 9.113281 7.632812 9.152344 7.933594 9.191406 C 8.234375 9.210938 8.445312 9.179688 8.726562 9.089844 C 8.644531 9.191406 8.5625 9.289062 8.476562 9.394531 C 8.203125 9.804688 8.222656 10.078125 8.308594 10.550781 C 8.355469 10.757812 8.40625 10.96875 8.453125 11.175781 C 8.484375 11.515625 8.484375 11.515625 8.355469 11.839844 C 8.070312 12.179688 7.804688 12.320312 7.394531 12.484375 C 7.3125 12.484375 7.234375 12.484375 7.152344 12.484375 C 7.105469 12.335938 7.0625 12.191406 7.015625 12.039062 C 6.808594 11.496094 6.570312 11.210938 6.0625 10.910156 C 5.777344 10.882812 5.507812 10.894531 5.226562 10.910156 C 4.847656 10.910156 4.648438 10.789062 4.363281 10.546875 C 4.144531 10.21875 4.144531 10.21875 4 9.9375 C 4.082031 9.925781 4.164062 9.910156 4.25 9.894531 C 4.410156 9.863281 4.410156 9.863281 4.574219 9.832031 C 4.683594 9.8125 4.789062 9.792969 4.898438 9.773438 C 5.195312 9.699219 5.429688 9.601562 5.695312 9.453125 C 5.765625 9.515625 5.835938 9.574219 5.910156 9.636719 C 6.195312 9.863281 6.195312 9.863281 6.667969 9.816406 C 6.667969 9.898438 6.667969 9.976562 6.667969 10.0625 C 6.828125 10.0625 6.988281 10.0625 7.152344 10.0625 C 7.070312 9.980469 6.992188 9.902344 6.910156 9.816406 C 6.886719 9.507812 6.886719 9.507812 6.910156 9.210938 C 6.949219 9.171875 6.988281 9.132812 7.03125 9.089844 Z M 7.03125 9.089844 "/>
<path style=" stroke:none;fill-rule:nonzero;fill:rgb(83.92157%,35.294119%,11.764706%);fill-opacity:1;" d="M 9.695312 5.332031 C 9.617188 5.851562 9.535156 6.375 9.453125 6.910156 C 9.699219 6.90625 9.699219 6.90625 9.945312 6.902344 C 10.15625 6.898438 10.371094 6.894531 10.582031 6.894531 C 10.691406 6.890625 10.796875 6.890625 10.90625 6.886719 C 11.007812 6.886719 11.113281 6.886719 11.21875 6.886719 C 11.3125 6.882812 11.40625 6.882812 11.503906 6.882812 C 11.757812 6.910156 11.757812 6.910156 12.121094 7.152344 C 11.882812 7.191406 11.640625 7.230469 11.394531 7.273438 C 11.394531 7.351562 11.394531 7.433594 11.394531 7.515625 C 10.960938 7.949219 10.960938 7.949219 10.667969 8.121094 C 10.316406 8.097656 10.316406 8.097656 10.0625 8 C 10.101562 8.238281 10.140625 8.480469 10.183594 8.726562 C 9.988281 8.679688 9.792969 8.628906 9.597656 8.574219 C 9.488281 8.546875 9.382812 8.519531 9.269531 8.492188 C 8.921875 8.34375 8.796875 8.203125 8.605469 7.878906 C 8.605469 7.796875 8.605469 7.71875 8.605469 7.636719 C 8.441406 7.609375 8.441406 7.609375 8.273438 7.582031 C 7.972656 7.53125 7.6875 7.472656 7.394531 7.394531 C 7.394531 7.273438 7.394531 7.152344 7.394531 7.03125 C 7.195312 7.070312 6.992188 7.109375 6.789062 7.152344 C 6.828125 7.070312 6.867188 6.992188 6.910156 6.910156 C 7.308594 6.910156 7.710938 6.910156 8.121094 6.910156 C 7.820312 6.789062 7.820312 6.789062 7.515625 6.667969 C 8.019531 5.945312 8.777344 5.332031 9.695312 5.332031 Z M 9.695312 5.332031 "/>
<path style=" stroke:none;fill-rule:nonzero;fill:rgb(79.215688%,23.137255%,12.156863%);fill-opacity:1;" d="M 3.636719 4.96875 C 3.878906 5.210938 3.878906 5.210938 3.933594 5.5 C 3.878906 5.816406 3.878906 5.816406 3.601562 6.027344 C 3.195312 6.367188 3.027344 6.707031 2.8125 7.183594 C 2.773438 7.261719 2.734375 7.339844 2.695312 7.421875 C 2.605469 7.613281 2.515625 7.804688 2.425781 8 C 2.304688 8 2.183594 8 2.0625 8 C 1.898438 8.039062 1.738281 8.078125 1.574219 8.121094 C 1.59375 8.191406 1.609375 8.265625 1.628906 8.339844 C 1.746094 8.839844 1.851562 9.300781 1.816406 9.816406 C 1.449219 9.449219 1.324219 8.988281 1.136719 8.507812 C 1.097656 8.410156 1.058594 8.3125 1.015625 8.210938 C 0.667969 7.320312 0.667969 7.320312 0.726562 6.789062 C 0.847656 6.847656 0.847656 6.847656 0.96875 6.910156 C 1.015625 6.851562 1.066406 6.792969 1.113281 6.734375 C 1.382812 6.503906 1.59375 6.472656 1.9375 6.425781 C 1.9375 6.34375 1.9375 6.265625 1.9375 6.183594 C 2.171875 5.988281 2.40625 5.808594 2.652344 5.628906 C 2.71875 5.578125 2.785156 5.527344 2.855469 5.476562 C 3.109375 5.289062 3.355469 5.109375 3.636719 4.96875 Z M 3.636719 4.96875 "/>
<path style=" stroke:none;fill-rule:nonzero;fill:rgb(61.176473%,21.176471%,25.882354%);fill-opacity:1;" d="M 2.667969 12.121094 C 2.839844 12.117188 3.011719 12.121094 3.183594 12.128906 C 3.277344 12.128906 3.375 12.132812 3.472656 12.132812 C 3.859375 12.28125 3.914062 12.523438 4.09375 12.878906 C 4.367188 13.269531 4.777344 13.382812 5.210938 13.539062 C 5.382812 13.601562 5.554688 13.667969 5.726562 13.734375 C 5.839844 13.777344 5.839844 13.777344 5.957031 13.820312 C 6.183594 13.9375 6.183594 13.9375 6.667969 14.425781 C 5.828125 14.425781 4.988281 14.425781 4.121094 14.425781 C 4.640625 14.464844 5.160156 14.503906 5.695312 14.546875 C 5.695312 14.585938 5.695312 14.625 5.695312 14.667969 C 5.40625 14.683594 5.117188 14.695312 4.824219 14.703125 C 4.703125 14.710938 4.703125 14.710938 4.578125 14.71875 C 4.125 14.730469 3.90625 14.6875 3.539062 14.414062 C 3.238281 14.015625 3.089844 13.660156 2.933594 13.1875 C 2.882812 13.039062 2.832031 12.890625 2.777344 12.738281 C 2.667969 12.363281 2.667969 12.363281 2.667969 12.121094 Z M 2.667969 12.121094 "/>
<path style=" stroke:none;fill-rule:nonzero;fill:rgb(83.137256%,34.117648%,12.156863%);fill-opacity:1;" d="M 4.847656 6.183594 C 4.839844 6.257812 4.835938 6.332031 4.828125 6.40625 C 4.8125 6.707031 4.804688 6.976562 4.847656 7.273438 C 5.179688 7.566406 5.507812 7.675781 5.9375 7.757812 C 5.9375 7.917969 5.9375 8.078125 5.9375 8.242188 C 6.054688 8.238281 6.167969 8.238281 6.289062 8.234375 C 6.667969 8.242188 6.667969 8.242188 6.910156 8.363281 C 7.253906 8.398438 7.601562 8.417969 7.949219 8.4375 C 8.09375 8.460938 8.09375 8.460938 8.242188 8.484375 C 8.300781 8.605469 8.300781 8.605469 8.363281 8.726562 C 7.820312 9.011719 7.355469 8.96875 6.765625 8.886719 C 6.675781 8.875 6.589844 8.867188 6.5 8.855469 C 6.246094 8.824219 6.246094 8.824219 5.816406 8.726562 C 5.738281 8.605469 5.65625 8.488281 5.574219 8.363281 C 5.265625 8.273438 5.265625 8.273438 4.96875 8.242188 C 4.96875 8.164062 4.96875 8.082031 4.96875 8 C 4.707031 8.0625 4.484375 8.121094 4.242188 8.242188 C 4.164062 8.488281 4.164062 8.488281 4.121094 8.726562 C 3.839844 8.648438 3.5625 8.566406 3.273438 8.484375 C 3.234375 8.726562 3.191406 8.964844 3.152344 9.210938 C 3.113281 9.210938 3.070312 9.210938 3.03125 9.210938 C 3.007812 8.734375 3.019531 8.414062 3.273438 8 C 3.351562 8 3.433594 8 3.515625 8 C 3.507812 7.890625 3.5 7.785156 3.492188 7.675781 C 3.519531 7.210938 3.59375 7.027344 3.878906 6.667969 C 4.519531 6.183594 4.519531 6.183594 4.847656 6.183594 Z M 4.847656 6.183594 "/>
<path style=" stroke:none;fill-rule:nonzero;fill:rgb(38.82353%,11.372549%,9.411765%);fill-opacity:1;" d="M 12 6.667969 C 12.359375 6.726562 12.359375 6.726562 12.726562 6.789062 C 12.765625 7.066406 12.808594 7.347656 12.847656 7.636719 C 13.007812 7.636719 13.167969 7.636719 13.332031 7.636719 C 13.277344 8.085938 13.171875 8.480469 13.015625 8.902344 C 12.839844 9.414062 12.847656 9.769531 12.96875 10.304688 C 12.992188 10.421875 13.015625 10.539062 13.039062 10.660156 C 13.054688 10.742188 13.074219 10.824219 13.089844 10.910156 C 12.890625 10.910156 12.691406 10.910156 12.484375 10.910156 C 12.484375 10.667969 12.484375 10.429688 12.484375 10.183594 C 12.324219 10.140625 12.164062 10.101562 12 10.0625 C 12 9.980469 12 9.902344 12 9.816406 C 12.078125 9.816406 12.160156 9.816406 12.242188 9.816406 C 12.242188 9.738281 12.242188 9.65625 12.242188 9.574219 C 12.164062 9.574219 12.082031 9.574219 12 9.574219 C 12 9.414062 12 9.253906 12 9.089844 C 11.90625 9.074219 11.808594 9.0625 11.710938 9.046875 C 11.394531 8.96875 11.394531 8.96875 11.152344 8.726562 C 11.421875 8.375 11.628906 8.125 12 7.878906 C 12.121094 7.878906 12.238281 7.878906 12.363281 7.878906 C 12.363281 7.71875 12.363281 7.558594 12.363281 7.394531 C 12.363281 7.273438 12.363281 7.152344 12.363281 7.03125 C 12.1875 6.824219 12.1875 6.824219 12 6.667969 Z M 12 6.667969 "/>
<path style=" stroke:none;fill-rule:nonzero;fill:rgb(64.705884%,21.960784%,24.705882%);fill-opacity:1;" d="M 4.121094 10.0625 C 4.242188 10.0625 4.359375 10.0625 4.484375 10.0625 C 4.523438 10.140625 4.566406 10.21875 4.605469 10.304688 C 4.773438 10.296875 4.773438 10.296875 4.941406 10.292969 C 5.085938 10.292969 5.230469 10.289062 5.378906 10.289062 C 5.523438 10.285156 5.664062 10.28125 5.8125 10.28125 C 6.183594 10.304688 6.183594 10.304688 6.425781 10.546875 C 6.527344 10.527344 6.632812 10.503906 6.742188 10.484375 C 7.269531 10.40625 7.613281 10.515625 8.121094 10.667969 C 8.121094 10.746094 8.121094 10.828125 8.121094 10.910156 C 8.203125 10.910156 8.28125 10.910156 8.363281 10.910156 C 8.480469 11.285156 8.503906 11.464844 8.355469 11.832031 C 8.070312 12.183594 7.808594 12.316406 7.394531 12.484375 C 7.3125 12.484375 7.234375 12.484375 7.152344 12.484375 C 7.105469 12.335938 7.0625 12.191406 7.015625 12.039062 C 6.808594 11.496094 6.570312 11.210938 6.0625 10.910156 C 5.777344 10.882812 5.507812 10.894531 5.226562 10.910156 C 4.851562 10.910156 4.644531 10.785156 4.363281 10.546875 C 4.203125 10.28125 4.203125 10.28125 4.121094 10.0625 Z M 4.121094 10.0625 "/>
<path style=" stroke:none;fill-rule:nonzero;fill:rgb(47.843137%,12.54902%,10.196079%);fill-opacity:1;" d="M 8.726562 9.089844 C 8.847656 9.332031 8.847656 9.332031 8.78125 9.570312 C 8.746094 9.65625 8.710938 9.742188 8.675781 9.832031 C 8.621094 9.964844 8.621094 9.964844 8.570312 10.097656 C 8.539062 10.167969 8.511719 10.234375 8.484375 10.304688 C 8.617188 10.277344 8.75 10.253906 8.886719 10.226562 C 9.332031 10.183594 9.332031 10.183594 9.695312 10.425781 C 9.277344 10.605469 9.277344 10.605469 8.847656 10.789062 C 8.847656 10.988281 8.847656 11.1875 8.847656 11.394531 C 9.046875 11.433594 9.25 11.472656 9.453125 11.515625 C 9.496094 11.636719 9.535156 11.753906 9.574219 11.878906 C 9.335938 11.878906 9.097656 11.878906 8.847656 11.878906 C 8.808594 12.160156 8.769531 12.4375 8.726562 12.726562 C 8.625 12.738281 8.523438 12.753906 8.417969 12.765625 C 7.988281 12.835938 7.988281 12.835938 7.566406 13.039062 C 7.179688 13.199219 6.957031 13.25 6.546875 13.210938 C 6.503906 13.132812 6.464844 13.050781 6.425781 12.96875 C 6.585938 12.890625 6.746094 12.808594 6.910156 12.726562 C 6.828125 12.605469 6.75 12.488281 6.667969 12.363281 C 6.53125 11.945312 6.425781 11.59375 6.425781 11.152344 C 6.910156 11.574219 7.105469 11.835938 7.152344 12.484375 C 7.308594 12.417969 7.464844 12.34375 7.621094 12.273438 C 7.753906 12.214844 7.753906 12.214844 7.886719 12.152344 C 8.171875 11.96875 8.257812 11.839844 8.363281 11.515625 C 8.335938 11.253906 8.335938 11.253906 8.25 10.992188 C 8.121094 10.480469 8.101562 10.09375 8.242188 9.574219 C 8.492188 9.28125 8.492188 9.28125 8.726562 9.089844 Z M 8.726562 9.089844 "/>
<path style=" stroke:none;fill-rule:nonzero;fill:rgb(76.862746%,21.568628%,11.372549%);fill-opacity:1;" d="M 4.855469 7.910156 C 5.089844 8 5.089844 8 5.332031 8.242188 C 5.453125 8.28125 5.574219 8.324219 5.695312 8.363281 C 5.816406 8.542969 5.816406 8.542969 5.9375 8.726562 C 5.898438 8.847656 5.859375 8.96875 5.816406 9.089844 C 5.699219 9.089844 5.578125 9.089844 5.453125 9.089844 C 5.335938 9.269531 5.335938 9.269531 5.210938 9.453125 C 4.890625 9.511719 4.890625 9.511719 4.507812 9.53125 C 4.042969 9.554688 3.605469 9.59375 3.152344 9.695312 C 2.972656 9.234375 3.097656 8.933594 3.273438 8.484375 C 3.550781 8.566406 3.832031 8.644531 4.121094 8.726562 C 4.132812 8.632812 4.144531 8.539062 4.160156 8.4375 C 4.265625 8.039062 4.421875 7.855469 4.855469 7.910156 Z M 4.855469 7.910156 "/>
<path style=" stroke:none;fill-rule:nonzero;fill:rgb(77.64706%,28.627452%,11.764706%);fill-opacity:1;" d="M 14.667969 6.910156 C 14.910156 7.046875 14.910156 7.046875 15.03125 7.273438 C 15.03125 7.78125 14.941406 7.964844 14.597656 8.347656 C 14.453125 8.476562 14.453125 8.476562 14.304688 8.605469 C 14.304688 8.527344 14.304688 8.445312 14.304688 8.363281 C 14.234375 8.421875 14.167969 8.480469 14.097656 8.539062 C 13.796875 8.742188 13.570312 8.796875 13.210938 8.847656 C 13.253906 9.089844 13.292969 9.328125 13.332031 9.574219 C 13.214844 9.574219 13.09375 9.574219 12.96875 9.574219 C 12.96875 9.65625 12.96875 9.734375 12.96875 9.816406 C 12.890625 9.816406 12.808594 9.816406 12.726562 9.816406 C 12.933594 8.8125 12.933594 8.8125 13.105469 8.410156 C 13.238281 8.101562 13.238281 8.101562 13.1875 7.683594 C 13.210938 7.273438 13.210938 7.273438 13.460938 7.039062 C 13.894531 6.882812 14.210938 6.859375 14.667969 6.910156 Z M 14.667969 6.910156 "/>
<path style=" stroke:none;fill-rule:nonzero;fill:rgb(68.627453%,21.960784%,18.039216%);fill-opacity:1;" d="M 14.546875 8.242188 C 14.6875 8.589844 14.664062 8.730469 14.546875 9.09375 C 14.488281 9.222656 14.429688 9.351562 14.371094 9.484375 C 14.3125 9.617188 14.257812 9.746094 14.199219 9.878906 C 14.152344 9.980469 14.105469 10.078125 14.0625 10.183594 C 13.78125 10.183594 13.5 10.183594 13.210938 10.183594 C 13.230469 10.242188 13.253906 10.300781 13.273438 10.363281 C 13.359375 10.792969 13.339844 11.199219 13.332031 11.636719 C 13.054688 11.554688 12.773438 11.476562 12.484375 11.394531 C 12.484375 11.472656 12.484375 11.554688 12.484375 11.636719 C 12.363281 11.675781 12.246094 11.714844 12.121094 11.757812 C 12.042969 11.835938 11.960938 11.917969 11.878906 12 C 11.984375 11.425781 11.984375 11.425781 12.121094 11.152344 C 12.9375 11.136719 12.9375 11.136719 13.210938 11.273438 C 13.175781 11.1875 13.140625 11.101562 13.105469 11.015625 C 13.0625 10.90625 13.015625 10.796875 12.96875 10.683594 C 12.925781 10.570312 12.878906 10.460938 12.832031 10.347656 C 12.726562 10.0625 12.726562 10.0625 12.726562 9.816406 C 12.808594 9.816406 12.886719 9.816406 12.96875 9.816406 C 12.96875 9.738281 12.96875 9.65625 12.96875 9.574219 C 13.089844 9.574219 13.210938 9.574219 13.332031 9.574219 C 13.253906 9.457031 13.171875 9.335938 13.089844 9.210938 C 13.089844 8.960938 13.089844 8.960938 13.210938 8.726562 C 13.546875 8.589844 13.546875 8.589844 13.9375 8.484375 C 14.140625 8.40625 14.34375 8.324219 14.546875 8.242188 Z M 14.546875 8.242188 "/>
<path style=" stroke:none;fill-rule:nonzero;fill:rgb(47.450981%,12.156863%,10.196079%);fill-opacity:1;" d="M 12.363281 6.910156 C 12.5625 7.296875 12.5625 7.296875 12.605469 7.636719 C 12.527344 7.636719 12.445312 7.636719 12.363281 7.636719 C 12.363281 7.714844 12.363281 7.796875 12.363281 7.878906 C 12.152344 7.992188 11.9375 8.109375 11.722656 8.222656 C 11.476562 8.371094 11.476562 8.371094 11.273438 8.726562 C 11.53125 8.988281 11.652344 9.019531 12 9.089844 C 12 9.25 12 9.410156 12 9.574219 C 12.078125 9.574219 12.160156 9.574219 12.242188 9.574219 C 12.242188 9.65625 12.242188 9.734375 12.242188 9.816406 C 11.734375 9.757812 11.355469 9.472656 11.03125 9.089844 C 10.871094 8.683594 10.871094 8.683594 10.910156 8.242188 C 11.242188 7.785156 11.652344 7.464844 12.121094 7.152344 C 11.570312 6.96875 11.007812 7.03125 10.433594 7.046875 C 10.1875 7.050781 9.941406 7.039062 9.695312 7.03125 C 9.617188 6.949219 9.535156 6.871094 9.453125 6.789062 C 10.449219 6.464844 11.40625 6.425781 12.363281 6.910156 Z M 12.363281 6.910156 "/>
<path style=" stroke:none;fill-rule:nonzero;fill:rgb(40.784314%,15.294118%,18.039216%);fill-opacity:1;" d="M 2.304688 4.242188 C 2.304688 4.414062 2.308594 4.585938 2.3125 4.757812 C 2.3125 4.851562 2.3125 4.949219 2.316406 5.046875 C 2.304688 5.328125 2.28125 5.554688 2.183594 5.816406 C 1.847656 6.007812 1.847656 6.007812 1.453125 6.183594 C 1.25 6.300781 1.050781 6.421875 0.847656 6.546875 C 0.808594 5.878906 0.878906 5.429688 1.210938 4.847656 C 1.871094 4.242188 1.871094 4.242188 2.304688 4.242188 Z M 2.304688 4.242188 "/>
<path style=" stroke:none;fill-rule:nonzero;fill:rgb(43.529412%,12.941177%,9.411765%);fill-opacity:1;" d="M 12.242188 10.183594 C 12.324219 10.183594 12.402344 10.183594 12.484375 10.183594 C 12.484375 10.421875 12.484375 10.660156 12.484375 10.910156 C 12.726562 10.910156 12.964844 10.910156 13.210938 10.910156 C 13.210938 11.027344 13.210938 11.148438 13.210938 11.273438 C 12.851562 11.234375 12.492188 11.191406 12.121094 11.152344 C 12.09375 11.265625 12.09375 11.265625 12.0625 11.378906 C 11.855469 12.136719 11.5625 12.78125 11.152344 13.453125 C 10.792969 13.453125 10.429688 13.453125 10.0625 13.453125 C 10.101562 13.375 10.140625 13.292969 10.183594 13.210938 C 10.464844 13.164062 10.746094 13.121094 11.03125 13.089844 C 11.050781 13.011719 11.074219 12.933594 11.097656 12.851562 C 11.269531 12.25 11.453125 11.699219 11.757812 11.152344 C 11.597656 11.152344 11.4375 11.152344 11.273438 11.152344 C 11.3125 11.03125 11.351562 10.910156 11.394531 10.789062 C 11.472656 10.789062 11.554688 10.789062 11.636719 10.789062 C 11.636719 10.707031 11.636719 10.628906 11.636719 10.546875 C 11.835938 10.503906 12.035156 10.464844 12.242188 10.425781 C 12.242188 10.34375 12.242188 10.265625 12.242188 10.183594 Z M 12.242188 10.183594 "/>
<path style=" stroke:none;fill-rule:nonzero;fill:rgb(44.705883%,14.117648%,14.117648%);fill-opacity:1;" d="M 5.332031 3.515625 C 2.726562 5.453125 2.726562 5.453125 2.304688 5.453125 C 2.261719 5.535156 2.222656 5.613281 2.183594 5.695312 C 2.183594 5.164062 2.199219 4.644531 2.304688 4.121094 C 2.675781 3.839844 2.675781 3.839844 3.03125 3.757812 C 3.03125 3.957031 3.03125 4.15625 3.03125 4.363281 C 3.390625 4.320312 3.390625 4.320312 3.757812 4.242188 C 3.796875 4.164062 3.835938 4.082031 3.878906 4 C 4 4 4.117188 4 4.242188 4 C 4.324219 3.878906 4.402344 3.761719 4.484375 3.636719 C 5.03125 3.363281 5.03125 3.363281 5.332031 3.515625 Z M 5.332031 3.515625 "/>
<path style=" stroke:none;fill-rule:nonzero;fill:rgb(67.058825%,20%,20%);fill-opacity:1;" d="M 1.960938 6.523438 C 2.070312 6.527344 2.179688 6.527344 2.292969 6.53125 C 2.417969 6.539062 2.417969 6.539062 2.546875 6.546875 C 2.546875 6.746094 2.546875 6.945312 2.546875 7.152344 C 2.46875 7.179688 2.394531 7.210938 2.316406 7.242188 C 2.042969 7.371094 2.042969 7.371094 1.9375 7.644531 C 1.816406 7.878906 1.816406 7.878906 1.5625 7.96875 C 1.449219 7.984375 1.449219 7.984375 1.332031 8 C 1.253906 7.839844 1.171875 7.679688 1.089844 7.515625 C 0.972656 7.574219 0.972656 7.574219 0.847656 7.636719 C 0.808594 7.355469 0.769531 7.078125 0.726562 6.789062 C 0.847656 6.847656 0.847656 6.847656 0.96875 6.910156 C 1.015625 6.847656 1.0625 6.789062 1.113281 6.730469 C 1.40625 6.484375 1.585938 6.507812 1.960938 6.523438 Z M 1.960938 6.523438 "/>
<path style=" stroke:none;fill-rule:nonzero;fill:rgb(73.725492%,22.745098%,16.470589%);fill-opacity:1;" d="M 10.183594 11.757812 C 10.222656 11.835938 10.261719 11.917969 10.304688 12 C 9.421875 13.148438 9.421875 13.148438 8.726562 13.332031 C 8.082031 13.386719 7.433594 13.359375 6.789062 13.332031 C 7.085938 13.132812 7.363281 12.976562 7.6875 12.824219 C 7.78125 12.78125 7.875 12.738281 7.96875 12.691406 C 8.277344 12.59375 8.425781 12.621094 8.726562 12.726562 C 8.703125 12.632812 8.675781 12.539062 8.652344 12.4375 C 8.636719 12.335938 8.621094 12.230469 8.605469 12.121094 C 8.6875 12.042969 8.765625 11.960938 8.847656 11.878906 C 8.96875 11.917969 9.089844 11.957031 9.210938 12 C 9.210938 12.242188 9.210938 12.242188 9.03125 12.4375 C 8.96875 12.496094 8.910156 12.550781 8.847656 12.605469 C 9.40625 12.390625 9.785156 12.21875 10.183594 11.757812 Z M 10.183594 11.757812 "/>
<path style=" stroke:none;fill-rule:nonzero;fill:rgb(71.372551%,29.803923%,23.529412%);fill-opacity:1;" d="M 2.0625 10.546875 C 2.226562 10.703125 2.390625 10.863281 2.546875 11.03125 C 2.546875 11.109375 2.546875 11.191406 2.546875 11.273438 C 2.625 11.273438 2.707031 11.273438 2.789062 11.273438 C 2.90625 11.511719 3.027344 11.753906 3.152344 12 C 3.390625 11.921875 3.632812 11.839844 3.878906 11.757812 C 3.878906 11.835938 3.878906 11.917969 3.878906 12 C 3.957031 12 4.039062 12 4.121094 12 C 4.160156 12.199219 4.203125 12.398438 4.242188 12.605469 C 4.324219 12.605469 4.402344 12.605469 4.484375 12.605469 C 4.511719 12.679688 4.535156 12.757812 4.5625 12.832031 C 4.792969 13.191406 5.054688 13.203125 5.453125 13.332031 C 5.742188 13.589844 5.742188 13.589844 5.9375 13.816406 C 5.222656 13.632812 4.574219 13.457031 4 12.96875 C 3.96875 12.863281 3.933594 12.757812 3.902344 12.652344 C 3.855469 12.554688 3.804688 12.460938 3.757812 12.363281 C 3.515625 12.3125 3.515625 12.3125 3.234375 12.289062 C 2.941406 12.242188 2.941406 12.242188 2.667969 12.121094 C 2.355469 11.664062 2.0625 11.109375 2.0625 10.546875 Z M 2.0625 10.546875 "/>
<path style=" stroke:none;fill-rule:nonzero;fill:rgb(77.64706%,25.490198%,12.156863%);fill-opacity:1;" d="M 11.757812 12 C 11.875 12.46875 11.894531 12.644531 11.757812 13.089844 C 11.574219 13.296875 11.574219 13.296875 11.394531 13.453125 C 11.355469 13.535156 11.3125 13.613281 11.273438 13.695312 C 11.023438 13.746094 10.773438 13.78125 10.523438 13.8125 C 9.929688 13.890625 9.496094 14.007812 8.96875 14.304688 C 8.046875 14.523438 7.195312 14.46875 6.304688 14.183594 C 6.0625 13.984375 6.0625 13.984375 5.9375 13.816406 C 6.289062 13.882812 6.605469 13.960938 6.9375 14.074219 C 7.9375 14.308594 8.792969 14.007812 9.695312 13.574219 C 9.738281 13.535156 9.777344 13.496094 9.816406 13.453125 C 10.042969 13.425781 10.265625 13.40625 10.492188 13.386719 C 10.820312 13.359375 10.820312 13.359375 11.152344 13.332031 C 11.351562 12.894531 11.550781 12.453125 11.757812 12 Z M 11.757812 12 "/>
<path style=" stroke:none;fill-rule:nonzero;fill:rgb(53.333336%,13.725491%,10.196079%);fill-opacity:1;" d="M 5.453125 13.089844 C 5.78125 13.214844 6.078125 13.34375 6.378906 13.523438 C 7.296875 13.914062 8.273438 13.894531 9.210938 13.574219 C 9.375 13.496094 9.539062 13.417969 9.695312 13.332031 C 9.695312 13.453125 9.695312 13.574219 9.695312 13.695312 C 8.4375 14.261719 7.589844 14.453125 6.265625 13.96875 C 5.847656 13.773438 5.617188 13.574219 5.332031 13.210938 C 5.375 13.171875 5.414062 13.132812 5.453125 13.089844 Z M 5.453125 13.089844 "/>
<path style=" stroke:none;fill-rule:nonzero;fill:rgb(83.137256%,30.19608%,12.156863%);fill-opacity:1;" d="M 4.847656 6.183594 C 4.847656 6.621094 4.847656 7.0625 4.847656 7.515625 C 4.0625 7.878906 4.0625 7.878906 3.515625 7.878906 C 3.546875 7.359375 3.582031 7.09375 3.925781 6.6875 C 4.535156 6.183594 4.535156 6.183594 4.847656 6.183594 Z M 4.847656 6.183594 "/>
<path style=" stroke:none;fill-rule:nonzero;fill:rgb(68.235296%,25.098041%,24.705882%);fill-opacity:1;" d="M 10.425781 9.453125 C 11.058594 9.417969 11.46875 9.457031 12 9.816406 C 12.226562 10.203125 12.226562 10.203125 12.363281 10.546875 C 11.964844 10.625 11.5625 10.707031 11.152344 10.789062 C 10.910156 10.347656 10.671875 9.90625 10.425781 9.453125 Z M 10.425781 9.453125 "/>
<path style=" stroke:none;fill-rule:nonzero;fill:rgb(75.686276%,21.176471%,11.764706%);fill-opacity:1;" d="M 6.789062 7.394531 C 6.90625 7.433594 7.027344 7.472656 7.152344 7.515625 C 7.191406 7.636719 7.230469 7.753906 7.273438 7.878906 C 7.59375 7.917969 7.914062 7.957031 8.242188 8 C 8.242188 8.160156 8.242188 8.320312 8.242188 8.484375 C 7.425781 8.511719 6.722656 8.480469 5.9375 8.242188 C 5.980469 8.082031 6.019531 7.921875 6.0625 7.757812 C 6.179688 7.796875 6.300781 7.835938 6.425781 7.878906 C 6.425781 7.796875 6.425781 7.71875 6.425781 7.636719 C 6.542969 7.554688 6.664062 7.476562 6.789062 7.394531 Z M 6.789062 7.394531 "/>
<path style=" stroke:none;fill-rule:nonzero;fill:rgb(46.27451%,11.764706%,10.588235%);fill-opacity:1;" d="M 10.183594 5.089844 C 10.222656 5.289062 10.261719 5.492188 10.304688 5.695312 C 10.0625 5.738281 9.824219 5.777344 9.574219 5.816406 C 9.617188 5.65625 9.65625 5.5 9.695312 5.332031 C 8.921875 5.613281 8.285156 5.917969 7.636719 6.425781 C 7.738281 5.839844 7.777344 5.652344 8.265625 5.289062 C 8.894531 4.980469 9.503906 4.90625 10.183594 5.089844 Z M 10.183594 5.089844 "/>
<path style=" stroke:none;fill-rule:nonzero;fill:rgb(69.803923%,21.568628%,19.607843%);fill-opacity:1;" d="M 4.121094 10.0625 C 4.242188 10.0625 4.359375 10.0625 4.484375 10.0625 C 4.523438 10.140625 4.566406 10.21875 4.605469 10.304688 C 4.773438 10.296875 4.773438 10.296875 4.941406 10.292969 C 5.085938 10.292969 5.230469 10.289062 5.378906 10.289062 C 5.523438 10.285156 5.664062 10.28125 5.8125 10.28125 C 6.183594 10.304688 6.183594 10.304688 6.425781 10.546875 C 6.527344 10.527344 6.632812 10.503906 6.742188 10.484375 C 7.269531 10.40625 7.613281 10.515625 8.121094 10.667969 C 8.121094 10.746094 8.121094 10.828125 8.121094 10.910156 C 7.253906 11.039062 6.722656 11.050781 5.9375 10.667969 C 5.539062 10.636719 5.539062 10.636719 5.210938 10.667969 C 5.210938 10.746094 5.210938 10.828125 5.210938 10.910156 C 4.734375 10.75 4.453125 10.5625 4.121094 10.183594 C 4.121094 10.140625 4.121094 10.101562 4.121094 10.0625 Z M 4.121094 10.0625 "/>
<path style=" stroke:none;fill-rule:nonzero;fill:rgb(44.313726%,14.509805%,16.078432%);fill-opacity:1;" d="M 10.304688 11.757812 C 10.382812 11.757812 10.464844 11.757812 10.546875 11.757812 C 10.476562 12.238281 10.355469 12.582031 10.0625 12.96875 C 9.734375 13.167969 9.734375 13.167969 9.332031 13.332031 C 9.257812 13.367188 9.183594 13.402344 9.105469 13.4375 C 8.511719 13.6875 8.039062 13.730469 7.394531 13.695312 C 7.394531 13.578125 7.394531 13.457031 7.394531 13.332031 C 7.476562 13.332031 7.5625 13.332031 7.648438 13.332031 C 8.546875 13.296875 9.144531 13.09375 9.816406 12.484375 C 10.003906 12.25 10.148438 12.015625 10.304688 11.757812 Z M 10.304688 11.757812 "/>
<path style=" stroke:none;fill-rule:nonzero;fill:rgb(81.960785%,37.254903%,11.764706%);fill-opacity:1;" d="M 14.667969 6.910156 C 14.746094 7.027344 14.828125 7.148438 14.910156 7.273438 C 14.800781 7.242188 14.6875 7.210938 14.574219 7.183594 C 14.183594 7.113281 14.183594 7.113281 13.902344 7.316406 C 13.613281 7.769531 13.597656 8.199219 13.574219 8.726562 C 13.457031 8.765625 13.335938 8.808594 13.210938 8.847656 C 13.253906 9.089844 13.292969 9.328125 13.332031 9.574219 C 13.214844 9.574219 13.09375 9.574219 12.96875 9.574219 C 12.96875 9.65625 12.96875 9.734375 12.96875 9.816406 C 12.890625 9.816406 12.808594 9.816406 12.726562 9.816406 C 12.933594 8.8125 12.933594 8.8125 13.105469 8.410156 C 13.238281 8.101562 13.238281 8.101562 13.1875 7.683594 C 13.210938 7.273438 13.210938 7.273438 13.460938 7.039062 C 13.894531 6.882812 14.210938 6.859375 14.667969 6.910156 Z M 14.667969 6.910156 "/>
<path style=" stroke:none;fill-rule:nonzero;fill:rgb(54.509807%,14.117648%,11.764706%);fill-opacity:1;" d="M 7.515625 0.726562 C 7.753906 0.726562 7.996094 0.726562 8.242188 0.726562 C 8.246094 0.839844 8.246094 0.839844 8.25 0.957031 C 8.257812 1.054688 8.265625 1.15625 8.273438 1.257812 C 8.277344 1.355469 8.285156 1.453125 8.289062 1.554688 C 8.335938 1.839844 8.335938 1.839844 8.605469 1.960938 C 8.726562 2.007812 8.726562 2.007812 8.847656 2.0625 C 8.886719 2.140625 8.929688 2.21875 8.96875 2.304688 C 8.726562 2.183594 8.484375 2.0625 8.242188 1.9375 C 7.878906 1.890625 7.621094 1.871094 7.304688 2.074219 C 7.128906 2.226562 6.957031 2.382812 6.789062 2.546875 C 6.746094 2.425781 6.707031 2.304688 6.667969 2.183594 C 6.765625 2.125 6.863281 2.066406 6.960938 2.007812 C 7.253906 1.847656 7.253906 1.847656 7.394531 1.695312 C 7.421875 1.535156 7.445312 1.371094 7.460938 1.203125 C 7.480469 1.046875 7.496094 0.890625 7.515625 0.726562 Z M 7.515625 0.726562 "/>
<path style=" stroke:none;fill-rule:nonzero;fill:rgb(49.019608%,19.215687%,21.960784%);fill-opacity:1;" d="M 11.03125 14.425781 C 11.089844 14.542969 11.089844 14.542969 11.152344 14.667969 C 11.519531 14.746094 11.519531 14.746094 11.878906 14.789062 C 11.878906 14.828125 11.878906 14.867188 11.878906 14.910156 C 9.976562 14.933594 8.082031 14.859375 6.183594 14.789062 C 6.183594 14.746094 6.183594 14.707031 6.183594 14.667969 C 6.28125 14.664062 6.378906 14.660156 6.480469 14.65625 C 6.929688 14.644531 7.378906 14.628906 7.824219 14.613281 C 7.980469 14.609375 8.136719 14.605469 8.292969 14.597656 C 8.519531 14.589844 8.519531 14.589844 8.75 14.582031 C 8.886719 14.578125 9.027344 14.574219 9.167969 14.570312 C 9.796875 14.53125 10.398438 14.40625 11.03125 14.425781 Z M 11.03125 14.425781 "/>
<path style=" stroke:none;fill-rule:nonzero;fill:rgb(75.294119%,21.176471%,14.117648%);fill-opacity:1;" d="M 5.9375 9.9375 C 5.9375 10.019531 5.9375 10.097656 5.9375 10.183594 C 6.339844 10.222656 6.738281 10.261719 7.152344 10.304688 C 7.03125 10.421875 6.910156 10.542969 6.789062 10.667969 C 6.527344 10.636719 6.367188 10.609375 6.183594 10.425781 C 5.917969 10.414062 5.652344 10.414062 5.386719 10.417969 C 5.242188 10.417969 5.097656 10.417969 4.945312 10.421875 C 4.777344 10.421875 4.777344 10.421875 4.605469 10.425781 C 4.566406 10.265625 4.527344 10.105469 4.484375 9.9375 C 5.007812 9.847656 5.421875 9.796875 5.9375 9.9375 Z M 5.9375 9.9375 "/>
<path style=" stroke:none;fill-rule:nonzero;fill:rgb(66.666669%,23.529412%,27.058825%);fill-opacity:1;" d="M 4.121094 14.304688 C 4.640625 14.300781 5.15625 14.296875 5.675781 14.296875 C 5.894531 14.292969 5.894531 14.292969 6.121094 14.292969 C 6.332031 14.292969 6.332031 14.292969 6.546875 14.292969 C 6.679688 14.289062 6.808594 14.289062 6.941406 14.289062 C 7.273438 14.304688 7.273438 14.304688 7.636719 14.425781 C 7.96875 14.453125 8.296875 14.476562 8.628906 14.492188 C 8.71875 14.496094 8.808594 14.503906 8.902344 14.507812 C 9.128906 14.519531 9.351562 14.535156 9.574219 14.546875 C 9.574219 14.585938 9.574219 14.625 9.574219 14.667969 C 9.054688 14.667969 8.53125 14.671875 8.011719 14.671875 C 7.835938 14.675781 7.660156 14.675781 7.480469 14.675781 C 6.316406 14.683594 5.164062 14.648438 4 14.546875 C 4.039062 14.464844 4.078125 14.386719 4.121094 14.304688 Z M 4.121094 14.304688 "/>
<path style=" stroke:none;fill-rule:nonzero;fill:rgb(85.09804%,42.352942%,11.764706%);fill-opacity:1;" d="M 6.910156 6.910156 C 7.6875 6.859375 8.265625 6.925781 8.96875 7.273438 C 9.117188 7.527344 9.117188 7.527344 9.210938 7.757812 C 8.574219 7.703125 7.996094 7.625 7.394531 7.394531 C 7.394531 7.273438 7.394531 7.152344 7.394531 7.03125 C 7.195312 7.070312 6.992188 7.109375 6.789062 7.152344 C 6.828125 7.070312 6.867188 6.992188 6.910156 6.910156 Z M 6.910156 6.910156 "/>
<path style=" stroke:none;fill-rule:nonzero;fill:rgb(73.725492%,24.313726%,16.470589%);fill-opacity:1;" d="M 0.96875 7.273438 C 1.332031 7.726562 1.332031 7.726562 1.332031 8 C 1.773438 7.773438 1.773438 7.773438 2.0625 7.394531 C 2.140625 7.433594 2.21875 7.472656 2.304688 7.515625 C 2.144531 7.816406 2.144531 7.816406 1.9375 8.121094 C 1.820312 8.121094 1.699219 8.121094 1.574219 8.121094 C 1.59375 8.191406 1.609375 8.265625 1.628906 8.339844 C 1.746094 8.839844 1.851562 9.300781 1.816406 9.816406 C 1.511719 9.511719 1.414062 9.222656 1.257812 8.816406 C 1.203125 8.683594 1.148438 8.546875 1.09375 8.40625 C 0.972656 8.003906 0.945312 7.691406 0.96875 7.273438 Z M 0.96875 7.273438 "/>
<path style=" stroke:none;fill-rule:nonzero;fill:rgb(74.509805%,19.215687%,12.156863%);fill-opacity:1;" d="M 14.0625 8.363281 C 14.140625 8.363281 14.21875 8.363281 14.304688 8.363281 C 14.425781 8.726562 14.425781 8.726562 14.25 9.113281 C 14.15625 9.28125 14.15625 9.28125 14.0625 9.453125 C 13.710938 9.46875 13.710938 9.46875 13.332031 9.453125 C 13.253906 9.375 13.171875 9.292969 13.089844 9.210938 C 13.089844 8.96875 13.089844 8.96875 13.210938 8.726562 C 13.574219 8.582031 13.574219 8.582031 13.9375 8.484375 C 13.980469 8.445312 14.019531 8.40625 14.0625 8.363281 Z M 14.0625 8.363281 "/>
<path style=" stroke:none;fill-rule:nonzero;fill:rgb(47.058824%,13.333334%,11.764706%);fill-opacity:1;" d="M 4.605469 5.332031 C 4.6875 5.375 4.765625 5.414062 4.847656 5.453125 C 4.847656 5.535156 4.847656 5.613281 4.847656 5.695312 C 4.742188 5.746094 4.632812 5.796875 4.523438 5.847656 C 3.753906 6.253906 3.445312 6.589844 3.152344 7.394531 C 3.03125 7.355469 2.910156 7.3125 2.789062 7.273438 C 3.027344 6.339844 3.613281 5.929688 4.390625 5.433594 C 4.460938 5.398438 4.53125 5.367188 4.605469 5.332031 Z M 4.605469 5.332031 "/>
<path style=" stroke:none;fill-rule:nonzero;fill:rgb(84.705883%,41.176471%,12.54902%);fill-opacity:1;" d="M 5.9375 8.242188 C 6.636719 8.226562 6.636719 8.226562 6.910156 8.363281 C 7.253906 8.398438 7.601562 8.417969 7.949219 8.4375 C 8.09375 8.460938 8.09375 8.460938 8.242188 8.484375 C 8.28125 8.566406 8.324219 8.644531 8.363281 8.726562 C 7.839844 9.03125 7.484375 8.945312 6.929688 8.800781 C 6.800781 8.765625 6.800781 8.765625 6.667969 8.726562 C 6.503906 8.6875 6.34375 8.644531 6.183594 8.605469 C 6.183594 8.527344 6.183594 8.445312 6.183594 8.363281 C 6.101562 8.324219 6.023438 8.285156 5.9375 8.242188 Z M 5.9375 8.242188 "/>
<path style=" stroke:none;fill-rule:nonzero;fill:rgb(85.09804%,43.137255%,12.54902%);fill-opacity:1;" d="M 9.695312 5.332031 C 9.6875 5.554688 9.6875 5.554688 9.574219 5.816406 C 9.09375 6.074219 8.789062 6.183594 8.242188 6.183594 C 8.242188 6.261719 8.242188 6.34375 8.242188 6.425781 C 8.042969 6.464844 7.84375 6.503906 7.636719 6.546875 C 8.066406 5.863281 8.875 5.332031 9.695312 5.332031 Z M 9.695312 5.332031 "/>
<path style=" stroke:none;fill-rule:nonzero;fill:rgb(79.607844%,27.843139%,14.117648%);fill-opacity:1;" d="M 5.453125 9.453125 C 5.527344 9.496094 5.597656 9.535156 5.675781 9.574219 C 5.945312 9.722656 5.945312 9.722656 6.304688 9.695312 C 6.421875 9.738281 6.542969 9.777344 6.667969 9.816406 C 6.667969 9.898438 6.667969 9.976562 6.667969 10.0625 C 6.90625 10.140625 7.148438 10.21875 7.394531 10.304688 C 7.066406 10.464844 6.890625 10.398438 6.539062 10.324219 C 6.375 10.292969 6.375 10.292969 6.207031 10.261719 C 6.121094 10.234375 6.03125 10.210938 5.9375 10.183594 C 5.898438 10.101562 5.859375 10.023438 5.816406 9.9375 C 5.21875 9.980469 4.617188 10.019531 4 10.0625 C 4.320312 9.738281 4.546875 9.769531 4.984375 9.738281 C 5.242188 9.714844 5.242188 9.714844 5.453125 9.453125 Z M 5.453125 9.453125 "/>
<path style=" stroke:none;fill-rule:nonzero;fill:rgb(32.156864%,13.333334%,14.901961%);fill-opacity:1;" d="M 1.574219 4.726562 C 1.585938 4.902344 1.59375 5.074219 1.597656 5.25 C 1.601562 5.347656 1.605469 5.445312 1.609375 5.542969 C 1.574219 5.816406 1.574219 5.816406 1.414062 6.035156 C 1.210938 6.183594 1.210938 6.183594 0.847656 6.183594 C 0.96875 4.726562 0.96875 4.726562 1.574219 4.726562 Z M 1.574219 4.726562 "/>
<path style=" stroke:none;fill-rule:nonzero;fill:rgb(74.901962%,19.215687%,11.764706%);fill-opacity:1;" d="M 3.03125 5.816406 C 3.03125 6.019531 3.03125 6.21875 3.03125 6.425781 C 2.910156 6.484375 2.910156 6.484375 2.789062 6.546875 C 2.652344 6.789062 2.652344 6.789062 2.546875 7.03125 C 2.546875 6.871094 2.546875 6.710938 2.546875 6.546875 C 2.226562 6.546875 1.90625 6.546875 1.574219 6.546875 C 1.695312 6.503906 1.816406 6.464844 1.9375 6.425781 C 1.9375 6.34375 1.9375 6.265625 1.9375 6.183594 C 2.296875 5.835938 2.539062 5.777344 3.03125 5.816406 Z M 3.03125 5.816406 "/>
<path style=" stroke:none;fill-rule:nonzero;fill:rgb(45.09804%,13.725491%,14.901961%);fill-opacity:1;" d="M 9.089844 2.183594 C 9.25 2.183594 9.410156 2.183594 9.574219 2.183594 C 9.574219 2.300781 9.574219 2.421875 9.574219 2.546875 C 9.816406 2.625 10.054688 2.707031 10.304688 2.789062 C 10.34375 2.988281 10.382812 3.1875 10.425781 3.394531 C 9.617188 3.214844 9.617188 3.214844 9.425781 2.917969 C 9.394531 2.835938 9.363281 2.75 9.332031 2.667969 C 9.148438 2.460938 9.148438 2.460938 8.96875 2.304688 C 9.007812 2.261719 9.050781 2.222656 9.089844 2.183594 Z M 9.089844 2.183594 "/>
<path style=" stroke:none;fill-rule:nonzero;fill:rgb(85.882354%,43.137255%,12.54902%);fill-opacity:1;" d="M 9.332031 6.789062 C 9.453125 6.828125 9.574219 6.867188 9.695312 6.910156 C 10.136719 6.914062 10.574219 6.90625 11.011719 6.894531 C 11.71875 6.882812 11.71875 6.882812 12.121094 7.152344 C 11.65625 7.308594 11.214844 7.296875 10.726562 7.296875 C 10.585938 7.296875 10.585938 7.296875 10.445312 7.300781 C 9.96875 7.300781 9.734375 7.300781 9.332031 7.03125 C 9.332031 6.949219 9.332031 6.871094 9.332031 6.789062 Z M 9.332031 6.789062 "/>
<path style=" stroke:none;fill-rule:nonzero;fill:rgb(50.980395%,13.333334%,10.196079%);fill-opacity:1;" d="M 11.636719 11.878906 C 11.714844 11.917969 11.796875 11.957031 11.878906 12 C 11.640625 12.480469 11.398438 12.960938 11.152344 13.453125 C 10.792969 13.453125 10.429688 13.453125 10.0625 13.453125 C 10.101562 13.375 10.140625 13.292969 10.183594 13.210938 C 10.464844 13.164062 10.746094 13.121094 11.03125 13.089844 C 11.0625 12.9375 11.09375 12.78125 11.128906 12.621094 C 11.222656 12.183594 11.238281 12.144531 11.636719 11.878906 Z M 11.636719 11.878906 "/>
<path style=" stroke:none;fill-rule:nonzero;fill:rgb(46.666667%,11.764706%,10.588235%);fill-opacity:1;" d="M 13.089844 8 C 13.171875 8.039062 13.25 8.078125 13.332031 8.121094 C 13.277344 8.25 13.277344 8.25 13.222656 8.378906 C 12.921875 9.132812 12.789062 9.628906 12.96875 10.425781 C 12.851562 10.382812 12.730469 10.34375 12.605469 10.304688 C 12.46875 9.953125 12.472656 9.613281 12.476562 9.242188 C 12.476562 9.144531 12.480469 9.046875 12.480469 8.949219 C 12.480469 8.875 12.484375 8.800781 12.484375 8.726562 C 12.644531 8.6875 12.804688 8.648438 12.96875 8.605469 C 13.007812 8.40625 13.050781 8.207031 13.089844 8 Z M 13.089844 8 "/>
<path style=" stroke:none;fill-rule:nonzero;fill:rgb(80.392158%,26.274511%,12.54902%);fill-opacity:1;" d="M 8.847656 6.425781 C 8.929688 6.703125 9.007812 6.984375 9.089844 7.273438 C 8.890625 7.234375 8.691406 7.191406 8.484375 7.152344 C 8.484375 7.070312 8.484375 6.992188 8.484375 6.910156 C 8.347656 6.886719 8.347656 6.886719 8.203125 6.863281 C 7.878906 6.789062 7.878906 6.789062 7.515625 6.546875 C 8.015625 6.347656 8.328125 6.269531 8.847656 6.425781 Z M 8.847656 6.425781 "/>
<path style=" stroke:none;fill-rule:nonzero;fill:rgb(44.313726%,13.333334%,15.294118%);fill-opacity:1;" d="M 10.304688 5.332031 C 10.523438 5.464844 10.742188 5.601562 10.960938 5.734375 C 11.085938 5.808594 11.207031 5.882812 11.332031 5.960938 C 11.636719 6.183594 11.636719 6.183594 11.757812 6.546875 C 11.539062 6.488281 11.316406 6.429688 11.097656 6.371094 C 10.976562 6.339844 10.855469 6.304688 10.726562 6.273438 C 10.425781 6.183594 10.425781 6.183594 10.304688 6.0625 C 10.296875 5.816406 10.296875 5.574219 10.304688 5.332031 Z M 10.304688 5.332031 "/>
<path style=" stroke:none;fill-rule:nonzero;fill:rgb(46.27451%,13.333334%,12.54902%);fill-opacity:1;" d="M 10.546875 9.816406 C 10.90625 10.109375 11.023438 10.269531 11.136719 10.726562 C 11.152344 11.136719 11.132812 11.304688 10.910156 11.636719 C 10.75 11.597656 10.589844 11.554688 10.425781 11.515625 C 10.464844 11.394531 10.503906 11.273438 10.546875 11.152344 C 10.554688 10.921875 10.554688 10.691406 10.554688 10.460938 C 10.550781 10.339844 10.550781 10.222656 10.550781 10.097656 C 10.546875 10.003906 10.546875 9.914062 10.546875 9.816406 Z M 10.546875 9.816406 "/>
<path style=" stroke:none;fill-rule:nonzero;fill:rgb(66.666669%,21.568628%,23.529412%);fill-opacity:1;" d="M 10.183594 11.757812 C 10.222656 11.835938 10.261719 11.917969 10.304688 12 C 9.839844 12.605469 9.425781 13.015625 8.726562 13.332031 C 8.371094 13.363281 8.371094 13.363281 8.121094 13.332031 C 8.121094 13.253906 8.121094 13.171875 8.121094 13.089844 C 8.269531 13.0625 8.417969 13.035156 8.566406 13.007812 C 9.089844 12.878906 9.34375 12.65625 9.695312 12.242188 C 9.9375 12 9.9375 12 10.183594 11.757812 Z M 10.183594 11.757812 "/>
<path style=" stroke:none;fill-rule:nonzero;fill:rgb(53.725493%,14.509805%,10.588235%);fill-opacity:1;" d="M 4.847656 5.816406 C 4.886719 5.9375 4.929688 6.058594 4.96875 6.183594 C 5.050781 6.183594 5.128906 6.183594 5.210938 6.183594 C 5.128906 6.5625 5 6.914062 4.847656 7.273438 C 4.808594 7.273438 4.769531 7.273438 4.726562 7.273438 C 4.710938 6.453125 4.710938 6.453125 4.847656 6.183594 C 4.570312 6.34375 4.289062 6.5 4 6.667969 C 3.921875 6.585938 3.839844 6.507812 3.757812 6.425781 C 4.117188 6.222656 4.476562 6.023438 4.847656 5.816406 Z M 4.847656 5.816406 "/>
<path style=" stroke:none;fill-rule:nonzero;fill:rgb(53.333336%,14.509805%,12.54902%);fill-opacity:1;" d="M 8.484375 12.121094 C 8.726562 12.484375 8.726562 12.484375 8.726562 12.726562 C 8.625 12.738281 8.523438 12.753906 8.417969 12.765625 C 7.988281 12.835938 7.988281 12.835938 7.566406 13.039062 C 7.179688 13.199219 6.957031 13.25 6.546875 13.210938 C 6.503906 13.132812 6.464844 13.050781 6.425781 12.96875 C 7.878906 12.605469 7.878906 12.605469 8.160156 12.554688 C 8.226562 12.53125 8.292969 12.507812 8.363281 12.484375 C 8.402344 12.363281 8.445312 12.246094 8.484375 12.121094 Z M 8.484375 12.121094 "/>
<path style=" stroke:none;fill-rule:nonzero;fill:rgb(71.764708%,21.176471%,10.588235%);fill-opacity:1;" d="M 4.871094 7.925781 C 4.980469 7.960938 4.980469 7.960938 5.089844 8 C 5.050781 8.078125 5.011719 8.160156 4.96875 8.242188 C 4.769531 8.242188 4.570312 8.242188 4.363281 8.242188 C 4.363281 8.441406 4.363281 8.640625 4.363281 8.847656 C 4.164062 8.886719 3.964844 8.929688 3.757812 8.96875 C 3.71875 8.890625 3.675781 8.808594 3.636719 8.726562 C 3.476562 8.765625 3.316406 8.808594 3.152344 8.847656 C 3.191406 8.726562 3.230469 8.609375 3.273438 8.484375 C 3.550781 8.566406 3.832031 8.644531 4.121094 8.726562 C 4.132812 8.632812 4.144531 8.539062 4.160156 8.4375 C 4.265625 8.027344 4.429688 7.847656 4.871094 7.925781 Z M 4.871094 7.925781 "/>
<path style=" stroke:none;fill-rule:nonzero;fill:rgb(82.352942%,30.19608%,11.764706%);fill-opacity:1;" d="M 3.757812 8 C 3.996094 8 4.238281 8 4.484375 8 C 4.40625 8.078125 4.324219 8.160156 4.242188 8.242188 C 4.164062 8.492188 4.164062 8.492188 4.121094 8.726562 C 3.839844 8.648438 3.5625 8.566406 3.273438 8.484375 C 3.234375 8.726562 3.191406 8.964844 3.152344 9.210938 C 3.113281 9.210938 3.070312 9.210938 3.03125 9.210938 C 3.007812 8.863281 3.007812 8.863281 3.03125 8.484375 C 3.394531 8.242188 3.394531 8.242188 3.757812 8.242188 C 3.757812 8.164062 3.757812 8.082031 3.757812 8 Z M 3.757812 8 "/>
<path style=" stroke:none;fill-rule:nonzero;fill:rgb(83.137256%,40.784314%,11.764706%);fill-opacity:1;" d="M 13.332031 5.816406 C 13.492188 5.9375 13.652344 6.058594 13.816406 6.183594 C 13.617188 6.261719 13.417969 6.34375 13.210938 6.425781 C 13.210938 6.664062 13.210938 6.902344 13.210938 7.152344 C 12.515625 6.574219 12.515625 6.574219 12.242188 6.304688 C 12.5625 6.261719 12.882812 6.222656 13.210938 6.183594 C 13.253906 6.0625 13.292969 5.941406 13.332031 5.816406 Z M 13.332031 5.816406 "/>
<path style=" stroke:none;fill-rule:nonzero;fill:rgb(74.117649%,25.098041%,14.117648%);fill-opacity:1;" d="M 2.0625 10.546875 C 2.226562 10.703125 2.390625 10.863281 2.546875 11.03125 C 2.546875 11.109375 2.546875 11.191406 2.546875 11.273438 C 2.625 11.273438 2.707031 11.273438 2.789062 11.273438 C 3.046875 11.664062 3.054688 11.792969 3.03125 12.242188 C 2.695312 12.117188 2.566406 12.039062 2.390625 11.71875 C 2.351562 11.613281 2.3125 11.503906 2.273438 11.394531 C 2.230469 11.285156 2.191406 11.179688 2.148438 11.066406 C 2.0625 10.789062 2.0625 10.789062 2.0625 10.546875 Z M 2.0625 10.546875 "/>
<path style=" stroke:none;fill-rule:nonzero;fill:rgb(75.294119%,30.980393%,23.529412%);fill-opacity:1;" d="M 11.03125 9.453125 C 11.820312 9.632812 11.820312 9.632812 12.113281 9.953125 C 12.15625 10.03125 12.199219 10.105469 12.242188 10.183594 C 12.203125 10.261719 12.164062 10.34375 12.121094 10.425781 C 11.921875 10.425781 11.722656 10.425781 11.515625 10.425781 C 11.476562 10.222656 11.433594 10.023438 11.394531 9.816406 C 11.273438 9.816406 11.152344 9.816406 11.03125 9.816406 C 11.03125 9.699219 11.03125 9.578125 11.03125 9.453125 Z M 11.03125 9.453125 "/>
<path style=" stroke:none;fill-rule:nonzero;fill:rgb(37.254903%,10.980392%,9.019608%);fill-opacity:1;" d="M 10.0625 5.332031 C 10.304688 5.695312 10.304688 5.695312 10.425781 6.0625 C 10.667969 6.148438 10.667969 6.148438 10.910156 6.183594 C 10.910156 6.261719 10.910156 6.34375 10.910156 6.425781 C 10.367188 6.484375 10.367188 6.484375 9.816406 6.546875 C 9.898438 6.144531 9.976562 5.746094 10.0625 5.332031 Z M 10.0625 5.332031 "/>
<path style=" stroke:none;fill-rule:nonzero;fill:rgb(44.313726%,13.725491%,14.509805%);fill-opacity:1;" d="M 12.242188 10.183594 C 12.324219 10.183594 12.402344 10.183594 12.484375 10.183594 C 12.484375 10.460938 12.484375 10.742188 12.484375 11.03125 C 12.085938 11.070312 11.683594 11.109375 11.273438 11.152344 C 11.3125 11.03125 11.351562 10.910156 11.394531 10.789062 C 11.472656 10.789062 11.554688 10.789062 11.636719 10.789062 C 11.636719 10.707031 11.636719 10.628906 11.636719 10.546875 C 11.835938 10.503906 12.035156 10.464844 12.242188 10.425781 C 12.242188 10.34375 12.242188 10.265625 12.242188 10.183594 Z M 12.242188 10.183594 "/>
<path style=" stroke:none;fill-rule:nonzero;fill:rgb(51.764709%,11.764706%,10.196079%);fill-opacity:1;" d="M 6.789062 7.757812 C 6.828125 7.878906 6.867188 7.996094 6.910156 8.121094 C 6.988281 8.128906 7.0625 8.132812 7.144531 8.140625 C 7.242188 8.148438 7.34375 8.15625 7.445312 8.167969 C 7.546875 8.175781 7.648438 8.183594 7.75 8.191406 C 7.875 8.21875 7.875 8.21875 8 8.242188 C 8.039062 8.324219 8.078125 8.402344 8.121094 8.484375 C 6.839844 8.53125 6.839844 8.53125 6.304688 8.242188 C 6.464844 8.082031 6.621094 7.921875 6.789062 7.757812 Z M 6.789062 7.757812 "/>
<path style=" stroke:none;fill-rule:nonzero;fill:rgb(77.254903%,21.176471%,11.764706%);fill-opacity:1;" d="M 3.636719 7.152344 C 3.921875 7.1875 4.203125 7.226562 4.484375 7.273438 C 4.484375 7.394531 4.484375 7.511719 4.484375 7.636719 C 4.109375 7.851562 3.972656 7.878906 3.515625 7.878906 C 3.511719 7.675781 3.511719 7.476562 3.515625 7.273438 C 3.554688 7.234375 3.59375 7.191406 3.636719 7.152344 Z M 3.636719 7.152344 "/>
<path style=" stroke:none;fill-rule:nonzero;fill:rgb(52.549022%,14.117648%,10.196079%);fill-opacity:1;" d="M 7.878906 6.667969 C 8.082031 6.75 8.28125 6.832031 8.484375 6.910156 C 8.070312 7.042969 7.734375 7.023438 7.304688 6.976562 C 7.183594 6.964844 7.0625 6.953125 6.941406 6.941406 C 6.851562 6.929688 6.761719 6.917969 6.667969 6.910156 C 6.667969 6.789062 6.667969 6.667969 6.667969 6.546875 C 7.171875 6.429688 7.433594 6.394531 7.878906 6.667969 Z M 7.878906 6.667969 "/>
<path style=" stroke:none;fill-rule:nonzero;fill:rgb(40.000001%,13.333334%,14.509805%);fill-opacity:1;" d="M 3.757812 10.304688 C 4.292969 10.441406 4.765625 10.570312 5.210938 10.910156 C 5.210938 11.027344 5.210938 11.148438 5.210938 11.273438 C 5.09375 11.273438 4.972656 11.273438 4.847656 11.273438 C 4.769531 11.191406 4.6875 11.113281 4.605469 11.03125 C 4.457031 10.976562 4.457031 10.976562 4.304688 10.925781 C 4 10.789062 4 10.789062 3.839844 10.53125 C 3.8125 10.457031 3.785156 10.378906 3.757812 10.304688 Z M 3.757812 10.304688 "/>
<path style=" stroke:none;fill-rule:nonzero;fill:rgb(77.254903%,29.803923%,11.764706%);fill-opacity:1;" d="M 5.9375 13.816406 C 6.28125 13.878906 6.601562 13.957031 6.933594 14.066406 C 7.5 14.207031 8.023438 14.203125 8.605469 14.183594 C 8.085938 14.527344 7.601562 14.476562 7.007812 14.382812 C 6.558594 14.285156 6.214844 14.199219 5.9375 13.816406 Z M 5.9375 13.816406 "/>
<path style=" stroke:none;fill-rule:nonzero;fill:rgb(78.431374%,21.960784%,11.764706%);fill-opacity:1;" d="M 9.453125 10.667969 C 9.535156 10.707031 9.613281 10.746094 9.695312 10.789062 C 9.65625 11.066406 9.617188 11.347656 9.574219 11.636719 C 9.335938 11.554688 9.097656 11.476562 8.847656 11.394531 C 8.808594 11.195312 8.769531 10.992188 8.726562 10.789062 C 8.875 10.792969 8.875 10.792969 9.023438 10.796875 C 9.324219 10.824219 9.324219 10.824219 9.453125 10.667969 Z M 9.453125 10.667969 "/>
<path style=" stroke:none;fill-rule:nonzero;fill:rgb(44.313726%,12.156863%,10.196079%);fill-opacity:1;" d="M 10.789062 4.363281 C 10.714844 4.609375 10.632812 4.851562 10.546875 5.089844 C 10.425781 5.152344 10.425781 5.152344 10.304688 5.210938 C 10.304688 5.09375 10.304688 4.972656 10.304688 4.847656 C 10.1875 4.851562 10.074219 4.859375 9.953125 4.863281 C 9.574219 4.847656 9.574219 4.847656 9.332031 4.605469 C 9.484375 4.566406 9.632812 4.527344 9.789062 4.484375 C 9.871094 4.460938 9.957031 4.441406 10.042969 4.417969 C 10.304688 4.363281 10.304688 4.363281 10.789062 4.363281 Z M 10.789062 4.363281 "/>
<path style=" stroke:none;fill-rule:nonzero;fill:rgb(44.705883%,14.117648%,13.725491%);fill-opacity:1;" d="M 6.425781 11.152344 C 6.910156 11.574219 7.105469 11.835938 7.152344 12.484375 C 6.992188 12.445312 6.832031 12.40625 6.667969 12.363281 C 6.425781 11.5625 6.425781 11.5625 6.425781 11.152344 Z M 6.425781 11.152344 "/>
<path style=" stroke:none;fill-rule:nonzero;fill:rgb(83.92157%,40.000001%,11.764706%);fill-opacity:1;" d="M 5.9375 7.757812 C 5.9375 7.835938 5.9375 7.917969 5.9375 8 C 5.355469 8.027344 4.914062 7.933594 4.363281 7.757812 C 4.695312 7.097656 5.433594 7.546875 5.9375 7.757812 Z M 5.9375 7.757812 "/>
<path style=" stroke:none;fill-rule:nonzero;fill:rgb(52.156866%,14.117648%,11.764706%);fill-opacity:1;" d="M 4.96875 7.152344 C 5.074219 7.195312 5.179688 7.238281 5.289062 7.28125 C 5.726562 7.402344 5.984375 7.378906 6.425781 7.273438 C 6.34375 7.433594 6.265625 7.59375 6.183594 7.757812 C 5.703125 7.800781 5.507812 7.792969 5.105469 7.515625 C 5.019531 7.433594 4.9375 7.355469 4.847656 7.273438 C 4.886719 7.234375 4.929688 7.191406 4.96875 7.152344 Z M 4.96875 7.152344 "/>
<path style=" stroke:none;fill-rule:nonzero;fill:rgb(47.450981%,13.725491%,11.764706%);fill-opacity:1;" d="M 12.242188 6.425781 C 12.6875 6.546875 12.839844 6.65625 13.128906 7.03125 C 13.332031 7.394531 13.332031 7.394531 13.332031 7.636719 C 13.171875 7.636719 13.011719 7.636719 12.847656 7.636719 C 12.808594 7.355469 12.769531 7.078125 12.726562 6.789062 C 12.605469 6.789062 12.488281 6.789062 12.363281 6.789062 C 12.324219 6.667969 12.285156 6.546875 12.242188 6.425781 Z M 12.242188 6.425781 "/>
<path style=" stroke:none;fill-rule:nonzero;fill:rgb(47.450981%,14.117648%,12.156863%);fill-opacity:1;" d="M 7.394531 13.332031 C 7.832031 13.332031 8.273438 13.332031 8.726562 13.332031 C 8.726562 13.414062 8.726562 13.492188 8.726562 13.574219 C 8.394531 13.6875 8.199219 13.710938 7.855469 13.703125 C 7.628906 13.699219 7.628906 13.699219 7.394531 13.695312 C 7.394531 13.578125 7.394531 13.457031 7.394531 13.332031 Z M 7.394531 13.332031 "/>
<path style=" stroke:none;fill-rule:nonzero;fill:rgb(50.588238%,12.941177%,11.372549%);fill-opacity:1;" d="M 11.03125 8.96875 C 11.351562 9.007812 11.671875 9.050781 12 9.089844 C 12 9.25 12 9.410156 12 9.574219 C 12.078125 9.574219 12.160156 9.574219 12.242188 9.574219 C 12.242188 9.65625 12.242188 9.734375 12.242188 9.816406 C 11.710938 9.757812 11.414062 9.4375 11.03125 9.089844 C 11.03125 9.050781 11.03125 9.011719 11.03125 8.96875 Z M 11.03125 8.96875 "/>
<path style=" stroke:none;fill-rule:nonzero;fill:rgb(79.215688%,26.666668%,14.901961%);fill-opacity:1;" d="M 8.847656 11.757812 C 9.207031 11.816406 9.207031 11.816406 9.574219 11.878906 C 9.535156 12.078125 9.496094 12.277344 9.453125 12.484375 C 9.253906 12.523438 9.054688 12.566406 8.847656 12.605469 C 8.886719 12.484375 8.929688 12.367188 8.96875 12.242188 C 9.050781 12.242188 9.128906 12.242188 9.210938 12.242188 C 9.210938 12.164062 9.210938 12.082031 9.210938 12 C 9.09375 12 8.972656 12 8.847656 12 C 8.847656 11.921875 8.847656 11.839844 8.847656 11.757812 Z M 8.847656 11.757812 "/>
<path style=" stroke:none;fill-rule:nonzero;fill:rgb(49.803922%,13.725491%,12.54902%);fill-opacity:1;" d="M 3.878906 9.695312 C 4.320312 9.695312 4.757812 9.695312 5.210938 9.695312 C 5.210938 9.738281 5.210938 9.777344 5.210938 9.816406 C 4.890625 9.859375 4.570312 9.898438 4.242188 9.9375 C 4.242188 10.019531 4.242188 10.097656 4.242188 10.183594 C 4.242188 10.300781 4.242188 10.421875 4.242188 10.546875 C 4.082031 10.464844 3.921875 10.386719 3.757812 10.304688 C 3.796875 10.101562 3.835938 9.902344 3.878906 9.695312 Z M 3.878906 9.695312 "/>
<path style=" stroke:none;fill-rule:nonzero;fill:rgb(82.352942%,38.431373%,12.941177%);fill-opacity:1;" d="M 1.574219 5.9375 C 1.816406 6.0625 1.816406 6.0625 1.9375 6.183594 C 1.9375 6.261719 1.9375 6.34375 1.9375 6.425781 C 1.804688 6.453125 1.667969 6.484375 1.53125 6.515625 C 1.085938 6.621094 1.085938 6.621094 0.917969 6.925781 C 0.894531 7 0.871094 7.074219 0.847656 7.152344 C 0.804688 6.886719 0.804688 6.886719 0.847656 6.546875 C 1.070312 6.304688 1.308594 6.132812 1.574219 5.9375 Z M 1.574219 5.9375 "/>
<path style=" stroke:none;fill-rule:nonzero;fill:rgb(53.333336%,14.901961%,10.980392%);fill-opacity:1;" d="M 8.847656 5.210938 C 9.25 5.210938 9.648438 5.210938 10.0625 5.210938 C 10.019531 5.414062 9.980469 5.613281 9.9375 5.816406 C 9.820312 5.816406 9.699219 5.816406 9.574219 5.816406 C 9.617188 5.65625 9.65625 5.5 9.695312 5.332031 C 9.417969 5.414062 9.136719 5.492188 8.847656 5.574219 C 8.847656 5.457031 8.847656 5.335938 8.847656 5.210938 Z M 8.847656 5.210938 "/>
<path style=" stroke:none;fill-rule:nonzero;fill:rgb(54.901963%,15.294118%,12.156863%);fill-opacity:1;" d="M 5.332031 3.515625 C 4.851562 3.875 4.375 4.234375 3.878906 4.605469 C 3.839844 4.484375 3.796875 4.367188 3.757812 4.242188 C 3.796875 4.164062 3.835938 4.082031 3.878906 4 C 4 4 4.117188 4 4.242188 4 C 4.324219 3.878906 4.402344 3.761719 4.484375 3.636719 C 5.03125 3.363281 5.03125 3.363281 5.332031 3.515625 Z M 5.332031 3.515625 "/>
<path style=" stroke:none;fill-rule:nonzero;fill:rgb(78.039217%,29.803923%,12.941177%);fill-opacity:1;" d="M 12.121094 11.152344 C 12.53125 11.136719 12.53125 11.136719 12.96875 11.152344 C 13.050781 11.230469 13.128906 11.3125 13.210938 11.394531 C 12.972656 11.394531 12.730469 11.394531 12.484375 11.394531 C 12.484375 11.472656 12.484375 11.554688 12.484375 11.636719 C 12.363281 11.675781 12.246094 11.714844 12.121094 11.757812 C 12.042969 11.835938 11.960938 11.917969 11.878906 12 C 11.984375 11.425781 11.984375 11.425781 12.121094 11.152344 Z M 12.121094 11.152344 "/>
<path style=" stroke:none;fill-rule:nonzero;fill:rgb(43.921569%,12.54902%,9.411765%);fill-opacity:1;" d="M 3.636719 6.546875 C 3.757812 6.585938 3.875 6.625 4 6.667969 C 3.914062 6.796875 3.914062 6.796875 3.824219 6.933594 C 3.644531 7.261719 3.566406 7.511719 3.515625 7.878906 C 3.355469 7.839844 3.195312 7.796875 3.03125 7.757812 C 3.109375 7.757812 3.191406 7.757812 3.273438 7.757812 C 3.289062 7.625 3.300781 7.492188 3.316406 7.355469 C 3.394531 6.910156 3.394531 6.910156 3.636719 6.546875 Z M 3.636719 6.546875 "/>
<path style=" stroke:none;fill-rule:nonzero;fill:rgb(82.745099%,30.980393%,12.941177%);fill-opacity:1;" d="M 5.453125 9.453125 C 5.613281 9.535156 5.773438 9.613281 5.9375 9.695312 C 5.898438 9.777344 5.859375 9.855469 5.816406 9.9375 C 5.507812 9.976562 5.210938 10 4.902344 10.015625 C 4.773438 10.023438 4.773438 10.023438 4.640625 10.03125 C 4.425781 10.039062 4.214844 10.050781 4 10.0625 C 4.320312 9.738281 4.546875 9.769531 4.984375 9.738281 C 5.242188 9.714844 5.242188 9.714844 5.453125 9.453125 Z M 5.453125 9.453125 "/>
<path style=" stroke:none;fill-rule:nonzero;fill:rgb(84.313726%,35.294119%,11.372549%);fill-opacity:1;" d="M 10.910156 4.363281 C 11.460938 4.320312 11.460938 4.320312 11.734375 4.546875 C 11.78125 4.605469 11.828125 4.664062 11.878906 4.726562 C 11.394531 4.726562 11.394531 4.726562 11.152344 4.605469 C 11.152344 4.6875 11.152344 4.765625 11.152344 4.847656 C 11.230469 4.847656 11.3125 4.847656 11.394531 4.847656 C 11.394531 4.929688 11.394531 5.007812 11.394531 5.089844 C 11.195312 5.089844 10.992188 5.089844 10.789062 5.089844 C 10.867188 5.050781 10.949219 5.011719 11.03125 4.96875 C 10.992188 4.769531 10.949219 4.570312 10.910156 4.363281 Z M 10.910156 4.363281 "/>
<path style=" stroke:none;fill-rule:nonzero;fill:rgb(68.235296%,25.490198%,25.098041%);fill-opacity:1;" d="M 2.667969 12.121094 C 3.027344 12.160156 3.386719 12.203125 3.757812 12.242188 C 3.515625 12.363281 3.515625 12.363281 3.273438 12.484375 C 3.175781 12.792969 3.175781 12.792969 3.152344 13.089844 C 2.800781 12.800781 2.726562 12.566406 2.667969 12.121094 Z M 2.667969 12.121094 "/>
<path style=" stroke:none;fill-rule:nonzero;fill:rgb(80.392158%,25.098041%,12.54902%);fill-opacity:1;" d="M 6.789062 7.394531 C 6.867188 7.433594 6.949219 7.472656 7.03125 7.515625 C 6.40625 8.191406 6.40625 8.191406 5.9375 8.242188 C 5.980469 8.082031 6.019531 7.921875 6.0625 7.757812 C 6.179688 7.796875 6.300781 7.835938 6.425781 7.878906 C 6.425781 7.796875 6.425781 7.71875 6.425781 7.636719 C 6.542969 7.554688 6.664062 7.476562 6.789062 7.394531 Z M 6.789062 7.394531 "/>
<path style=" stroke:none;fill-rule:nonzero;fill:rgb(78.039217%,29.803923%,14.117648%);fill-opacity:1;" d="M 4.484375 12.96875 C 5.523438 13.316406 5.523438 13.316406 5.9375 13.816406 C 5.742188 13.761719 5.546875 13.703125 5.347656 13.644531 C 5.238281 13.613281 5.128906 13.578125 5.015625 13.546875 C 4.726562 13.453125 4.726562 13.453125 4.484375 13.332031 C 4.484375 13.214844 4.484375 13.09375 4.484375 12.96875 Z M 4.484375 12.96875 "/>
<path style=" stroke:none;fill-rule:nonzero;fill:rgb(73.333335%,23.529412%,18.039216%);fill-opacity:1;" d="M 11.757812 12 C 11.875 12.472656 11.902344 12.644531 11.757812 13.089844 C 11.507812 13.371094 11.507812 13.371094 11.273438 13.574219 C 11.191406 13.535156 11.113281 13.496094 11.03125 13.453125 C 11.269531 12.972656 11.511719 12.496094 11.757812 12 Z M 11.757812 12 "/>
<path style=" stroke:none;fill-rule:nonzero;fill:rgb(47.058824%,12.156863%,10.196079%);fill-opacity:1;" d="M 5.9375 10.789062 C 5.980469 10.90625 6.019531 11.027344 6.0625 11.152344 C 5.980469 11.230469 5.902344 11.3125 5.816406 11.394531 C 5.65625 11.394531 5.5 11.394531 5.332031 11.394531 C 5.332031 11.234375 5.332031 11.074219 5.332031 10.910156 C 5.574219 10.789062 5.574219 10.789062 5.9375 10.789062 Z M 5.9375 10.789062 "/>
<path style=" stroke:none;fill-rule:nonzero;fill:rgb(81.568629%,35.686275%,12.54902%);fill-opacity:1;" d="M 10.667969 8.605469 C 10.746094 8.605469 10.828125 8.605469 10.910156 8.605469 C 10.9375 8.675781 10.964844 8.746094 10.992188 8.816406 C 11.191406 9.160156 11.441406 9.34375 11.757812 9.574219 C 11.71875 9.65625 11.675781 9.734375 11.636719 9.816406 C 10.839844 9.210938 10.839844 9.210938 10.667969 8.605469 Z M 10.667969 8.605469 "/>
<path style=" stroke:none;fill-rule:nonzero;fill:rgb(54.901963%,15.294118%,11.372549%);fill-opacity:1;" d="M 10.910156 6.546875 C 11.308594 6.625 11.710938 6.707031 12.121094 6.789062 C 11.613281 7.125 11.375 7.003906 10.789062 6.910156 C 10.828125 6.789062 10.867188 6.667969 10.910156 6.546875 Z M 10.910156 6.546875 "/>
<path style=" stroke:none;fill-rule:nonzero;fill:rgb(76.078433%,30.980393%,18.82353%);fill-opacity:1;" d="M 3.878906 11.757812 C 3.878906 11.835938 3.878906 11.917969 3.878906 12 C 3.957031 12 4.039062 12 4.121094 12 C 4.121094 12.078125 4.121094 12.160156 4.121094 12.242188 C 3.761719 12.242188 3.402344 12.242188 3.03125 12.242188 C 3.207031 11.886719 3.484375 11.757812 3.878906 11.757812 Z M 3.878906 11.757812 "/>
<path style=" stroke:none;fill-rule:nonzero;fill:rgb(67.450982%,25.098041%,25.490198%);fill-opacity:1;" d="M 13.453125 10.910156 C 13.535156 10.949219 13.613281 10.988281 13.695312 11.03125 C 13.484375 11.953125 13.484375 11.953125 13.210938 12.363281 C 13.230469 12.167969 13.246094 11.96875 13.265625 11.773438 C 13.273438 11.664062 13.285156 11.554688 13.296875 11.441406 C 13.332031 11.152344 13.332031 11.152344 13.453125 10.910156 Z M 13.453125 10.910156 "/>
<path style=" stroke:none;fill-rule:nonzero;fill:rgb(49.803922%,16.078432%,9.019608%);fill-opacity:1;" d="M 13.210938 10.910156 C 13.210938 11.027344 13.210938 11.148438 13.210938 11.273438 C 12.851562 11.234375 12.492188 11.191406 12.121094 11.152344 C 12.082031 11.230469 12.042969 11.3125 12 11.394531 C 12 11.273438 12 11.152344 12 11.03125 C 12.410156 10.902344 12.785156 10.898438 13.210938 10.910156 Z M 13.210938 10.910156 "/>
<path style=" stroke:none;fill-rule:nonzero;fill:rgb(77.254903%,24.313726%,15.686275%);fill-opacity:1;" d="M 10.304688 10.183594 C 10.421875 10.183594 10.542969 10.183594 10.667969 10.183594 C 10.667969 10.421875 10.667969 10.660156 10.667969 10.910156 C 10.507812 10.867188 10.347656 10.828125 10.183594 10.789062 C 10.222656 10.585938 10.261719 10.386719 10.304688 10.183594 Z M 10.304688 10.183594 "/>
<path style=" stroke:none;fill-rule:nonzero;fill:rgb(81.176472%,23.921569%,12.156863%);fill-opacity:1;" d="M 4.363281 8.242188 C 4.644531 8.242188 4.921875 8.242188 5.210938 8.242188 C 5.210938 8.363281 5.210938 8.484375 5.210938 8.605469 C 4.972656 8.605469 4.730469 8.605469 4.484375 8.605469 C 4.445312 8.484375 4.40625 8.367188 4.363281 8.242188 Z M 4.363281 8.242188 "/>
<path style=" stroke:none;fill-rule:nonzero;fill:rgb(67.450982%,26.274511%,26.274511%);fill-opacity:1;" d="M 12 13.453125 C 12.238281 13.453125 12.480469 13.453125 12.726562 13.453125 C 12.6875 13.65625 12.648438 13.855469 12.605469 14.0625 C 12.566406 13.980469 12.527344 13.902344 12.484375 13.816406 C 12.363281 13.816406 12.246094 13.816406 12.121094 13.816406 C 12.082031 13.699219 12.042969 13.578125 12 13.453125 Z M 12 13.453125 "/>
<path style=" stroke:none;fill-rule:nonzero;fill:rgb(53.725493%,13.725491%,10.980392%);fill-opacity:1;" d="M 9.574219 2.910156 C 9.816406 2.910156 10.054688 2.910156 10.304688 2.910156 C 10.34375 3.070312 10.382812 3.230469 10.425781 3.394531 C 10.144531 3.3125 9.863281 3.234375 9.574219 3.152344 C 9.574219 3.070312 9.574219 2.992188 9.574219 2.910156 Z M 9.574219 2.910156 "/>
<path style=" stroke:none;fill-rule:nonzero;fill:rgb(56.078434%,14.901961%,11.764706%);fill-opacity:1;" d="M 9.453125 13.332031 C 9.574219 13.375 9.695312 13.414062 9.816406 13.453125 C 9.53125 13.785156 9.257812 13.917969 8.847656 14.0625 C 8.984375 13.648438 9.085938 13.550781 9.453125 13.332031 Z M 9.453125 13.332031 "/>
<path style=" stroke:none;fill-rule:nonzero;fill:rgb(49.411765%,13.333334%,10.588235%);fill-opacity:1;" d="M 7.394531 12.847656 C 7.394531 12.929688 7.394531 13.007812 7.394531 13.089844 C 7.113281 13.132812 6.832031 13.171875 6.546875 13.210938 C 6.503906 13.132812 6.464844 13.050781 6.425781 12.96875 C 6.777344 12.851562 7.023438 12.839844 7.394531 12.847656 Z M 7.394531 12.847656 "/>
<path style=" stroke:none;fill-rule:nonzero;fill:rgb(86.666667%,48.627451%,12.156863%);fill-opacity:1;" d="M 8.121094 7.273438 C 8.402344 7.273438 8.679688 7.273438 8.96875 7.273438 C 9.050781 7.433594 9.128906 7.59375 9.210938 7.757812 C 8.851562 7.636719 8.492188 7.515625 8.121094 7.394531 C 8.121094 7.355469 8.121094 7.3125 8.121094 7.273438 Z M 8.121094 7.273438 "/>
</g>
</svg>
